# Sources:
# -Misc-Fixed-Bold-R-Normal--13-120-75-75-C-70-ISO10646-1 "$ucs-fonts: 7x13B.bdf,v 1.27 2002-11-08 20:42:37+00 mgk25 Rel $"
# -windows-dina-bold-r-normal--13-80-96-96-c-70-microsoft-cp1252
# -dylex-terminal-Medium-R-Normal--13-120-75-75-C-70-ISO10646-1

name: terminal Bold 13
family: terminal
foundry: dylex
copyright: Public domain font.  Share and enjoy.
point-size: 13
weight: bold
dpi: 78 78
spacing: character-cell
x-height: 6
cap-height: 8
offset: 0 -3
encoding: unicode
default-char: u+0000
converter: monobit v0.12
source-name: 7x13B.bdf
source-format: BDF v2.1
bdf.FONTNAME-REGISTRY: ""
bdf.DESTINATION: 1
bdf.-GBDFED-INFO: "Edited with gbdfed 1.6."

u+0000:
char0:
    .......
    .@@.@@.
    .@@.@@.
    .......
    .@@.@@.
    .@@.@@.
    .......
    .@@.@@.
    .@@.@@.
    .......
    .@@.@@.
    .@@.@@.
    .......

u+0001:
char1:
    .......
    .......
    .......
    ...@...
    ..@@@..
    .@@@@@.
    @@@@@@@
    .@@@@@.
    ..@@@..
    ...@...
    .......
    .......
    .......

u+0002:
dkshade:
    @@@@@@@
    .@.@.@.
    @@@@@@@
    @.@.@.@
    @@@@@@@
    .@.@.@.
    @@@@@@@
    @.@.@.@
    @@@@@@@
    .@.@.@.
    @@@@@@@
    @.@.@.@
    @@@@@@@

u+0003:
char3:
    .......
    .@.@...
    .@.@...
    .@@@...
    .@.@...
    .@.@@@@
    .....@.
    .....@.
    .....@.
    .....@.
    .......
    .......
    .......

u+0004:
char4:
    .......
    .@@@...
    .@.....
    .@@....
    .@.....
    .@..@@@
    ....@..
    ....@@.
    ....@..
    ....@..
    .......
    .......
    .......

u+0005:
char5:
    .......
    ..@@...
    .@.....
    .@.....
    .@.....
    ..@@@@@
    ....@.@
    ....@@.
    ....@.@
    ....@.@
    .......
    .......
    .......

u+0006:
char6:
    .......
    .@.....
    .@.....
    .@.....
    .@.....
    .@@@@@@
    ....@..
    ....@@.
    ....@..
    ....@..
    .......
    .......
    .......

u+0007:
char7:
    .......
    .......
    ..@@@..
    .@@.@@.
    .@@.@@.
    ..@@@..
    .......
    .......
    .......
    .......
    .......
    .......
    .......

u+0008:
char8:
    .......
    .......
    .......
    ..@@...
    ..@@...
    @@@@@@.
    ..@@...
    ..@@...
    .......
    @@@@@@.
    .......
    .......
    .......

u+0009:
char9:
    .......
    .@@....
    .@.@...
    .@.@...
    .@.@...
    .@.@@..
    ....@..
    ....@..
    ....@..
    ....@@@
    .......
    .......
    .......

u+000a:
char10:
    .......
    .@.@...
    .@.@...
    .@.@...
    ..@....
    ..@.@@@
    .....@.
    .....@.
    .....@.
    .....@.
    .......
    .......
    .......

u+000b:
char14:
    ..@@...
    ..@@...
    ..@@...
    ..@@...
    ..@@...
    @@@@...
    @@@@...
    .......
    .......
    .......
    .......
    .......
    .......

u+000c:
char17:
    .......
    .......
    .......
    .......
    .......
    @@@@...
    @@@@...
    ..@@...
    ..@@...
    ..@@...
    ..@@...
    ..@@...
    ..@@...

u+000d:
char16:
    .......
    .......
    .......
    .......
    .......
    ..@@@@@
    ..@@@@@
    ..@@...
    ..@@...
    ..@@...
    ..@@...
    ..@@...
    ..@@...

u+000e:
char15:
    ..@@...
    ..@@...
    ..@@...
    ..@@...
    ..@@...
    ..@@@@@
    ..@@@@@
    .......
    .......
    .......
    .......
    .......
    .......

u+000f:
char24:
    ..@@...
    ..@@...
    ..@@...
    ..@@...
    ..@@...
    @@@@@@@
    @@@@@@@
    ..@@...
    ..@@...
    ..@@...
    ..@@...
    ..@@...
    ..@@...

u+0010:
char16:
    @@@@@@@
    @@@@@@@
    .......
    .......
    .......
    .......
    .......
    .......
    .......
    .......
    .......
    .......
    .......

u+0011:
char17:
    .......
    .......
    .......
    @@@@@@@
    @@@@@@@
    .......
    .......
    .......
    .......
    .......
    .......
    .......
    .......

u+0012:
char18:
    .......
    .......
    .......
    .......
    .......
    @@@@@@@
    @@@@@@@
    .......
    .......
    .......
    .......
    .......
    .......

u+0013:
char19:
    .......
    .......
    .......
    .......
    .......
    .......
    .......
    .......
    @@@@@@@
    @@@@@@@
    .......
    .......
    .......

u+0014:
char20:
    .......
    .......
    .......
    .......
    .......
    .......
    .......
    .......
    .......
    .......
    .......
    @@@@@@@
    @@@@@@@

u+0015:
char22:
    ..@@...
    ..@@...
    ..@@...
    ..@@...
    ..@@...
    ..@@@@@
    ..@@@@@
    ..@@...
    ..@@...
    ..@@...
    ..@@...
    ..@@...
    ..@@...

u+0016:
char20:
    ..@@...
    ..@@...
    ..@@...
    ..@@...
    ..@@...
    @@@@...
    @@@@...
    ..@@...
    ..@@...
    ..@@...
    ..@@...
    ..@@...
    ..@@...

u+0017:
char21:
    ..@@...
    ..@@...
    ..@@...
    ..@@...
    ..@@...
    @@@@@@@
    @@@@@@@
    .......
    .......
    .......
    .......
    .......
    .......

u+0018:
char23:
    .......
    .......
    .......
    .......
    .......
    @@@@@@@
    @@@@@@@
    ..@@...
    ..@@...
    ..@@...
    ..@@...
    ..@@...
    ..@@...

u+0019:
char19:
    ..@@...
    ..@@...
    ..@@...
    ..@@...
    ..@@...
    ..@@...
    ..@@...
    ..@@...
    ..@@...
    ..@@...
    ..@@...
    ..@@...
    ..@@...

u+001a:
char27:
    .......
    .......
    .......
    ...@@@.
    .@@@...
    @@.....
    .@@@...
    ...@@@.
    .......
    @@@@@@.
    .......
    .......
    .......

u+001b:
char29:
    .......
    .......
    .......
    @@@....
    ..@@@..
    ....@@.
    ..@@@..
    @@@....
    .......
    @@@@@@.
    .......
    .......
    .......

u+001c:
char28:
    .......
    .......
    .......
    .......
    @@@@@@.
    .@@.@..
    .@@.@..
    .@@.@..
    .@@.@..
    .@@.@..
    .......
    .......
    .......

u+001d:
char26:
    .......
    .......
    .......
    .......
    ...@@..
    @@@@@@.
    ..@@...
    @@@@@@.
    .@@....
    .......
    .......
    .......
    .......

u+001e:
char30:
    .......
    .......
    ..@@@..
    .@@....
    .@@....
    @@@@@..
    .@@....
    .@@....
    @@.....
    @@@@@@.
    .......
    .......
    .......

u+001f:
char31:
    .......
    .......
    .......
    .......
    .......
    .......
    .@@@@..
    .......
    .......
    .......
    .......
    .......
    .......

u+0020:
char32:
    .......
    .......
    .......
    .......
    .......
    .......
    .......
    .......
    .......
    .......
    .......
    .......
    .......

u+0021:
char33:
    .......
    .......
    ..@@...
    ..@@...
    ..@@...
    ..@@...
    ..@@...
    ..@@...
    .......
    ..@@...
    .......
    .......
    .......

u+0022:
char34:
    .......
    .@@.@@.
    .@@.@@.
    .@@.@@.
    .......
    .......
    .......
    .......
    .......
    .......
    .......
    .......
    .......

u+0023:
char35:
    .......
    .......
    .@@.@@.
    .@@.@@.
    @@@@@@@
    .@@.@@.
    .@@.@@.
    @@@@@@@
    .@@.@@.
    .@@.@@.
    .......
    .......
    .......

u+0024:
char36:
    .......
    ...@...
    .@@@@@.
    @@.@.@@
    @@@@...
    .@@@@..
    ..@@@@.
    ...@.@@
    @@.@.@@
    .@@@@@.
    ...@...
    .......
    .......

u+0025:
char37:
    .......
    .......
    .@..@@.
    @@@.@@.
    .@.@@..
    ...@@..
    ..@@...
    ..@@.@.
    .@@.@@@
    .@@..@.
    .......
    .......
    .......

u+0026:
char38:
    .......
    .......
    .@@....
    @@.@...
    @@.@...
    .@@....
    @@.@.@.
    @@.@@..
    @@.@@..
    .@@@.@.
    .......
    .......
    .......

u+0027:
char39:
    .......
    ..@@...
    ..@@...
    ..@@...
    .......
    .......
    .......
    .......
    .......
    .......
    .......
    .......
    .......

u+0028:
char40:
    .......
    ....@@.
    ...@@..
    ...@@..
    ..@@...
    ..@@...
    ..@@...
    ..@@...
    ..@@...
    ...@@..
    ...@@..
    ....@@.
    .......

u+0029:
char41:
    .......
    .@@....
    ..@@...
    ..@@...
    ...@@..
    ...@@..
    ...@@..
    ...@@..
    ...@@..
    ..@@...
    ..@@...
    .@@....
    .......

u+002a:
char42:
    .......
    .......
    .......
    .......
    @@..@@.
    .@@@@..
    @@@@@@.
    .@@@@..
    @@..@@.
    .......
    .......
    .......
    .......

u+002b:
char43:
    .......
    .......
    .......
    .......
    ..@@...
    ..@@...
    @@@@@@.
    ..@@...
    ..@@...
    .......
    .......
    .......
    .......

u+002c:
char44:
    .......
    .......
    .......
    .......
    .......
    .......
    .......
    .......
    ..@@...
    ..@@...
    ..@@...
    .@@....
    .......

u+002d:
char45:
    .......
    .......
    .......
    .......
    .......
    .......
    @@@@@@.
    .......
    .......
    .......
    .......
    .......
    .......

u+002e:
char46:
    .......
    .......
    .......
    .......
    .......
    .......
    .......
    .......
    ..@@...
    ..@@...
    .......
    .......
    .......

u+002f:
char47:
    .......
    .....@.
    ....@@.
    ....@@.
    ...@@..
    ...@@..
    ..@@...
    ..@@...
    .@@....
    .@@....
    .@.....
    .......
    .......

u+0030:
char48:
    .......
    .......
    .@@@@..
    @@..@@.
    @@..@@.
    @@.@@@.
    @@@.@@.
    @@..@@.
    @@..@@.
    .@@@@..
    .......
    .......
    .......

u+0031:
char49:
    .......
    .......
    ...@...
    ..@@...
    .@@@...
    ..@@...
    ..@@...
    ..@@...
    ..@@...
    @@@@@@.
    .......
    .......
    .......

u+0032:
char50:
    .......
    .......
    .@@@@..
    @@..@@.
    ....@@.
    ...@@..
    ..@@...
    .@@....
    @@.....
    @@@@@@.
    .......
    .......
    .......

u+0033:
char51:
    .......
    .......
    .@@@@..
    @@..@@.
    ....@@.
    ..@@@..
    ....@@.
    ....@@.
    @@..@@.
    .@@@@..
    .......
    .......
    .......

u+0034:
char52:
    .......
    .......
    ....@@.
    ...@@@.
    ..@@@@.
    .@@.@@.
    @@..@@.
    @@@@@@@
    ....@@.
    ....@@.
    .......
    .......
    .......

u+0035:
char53:
    .......
    .......
    @@@@@@.
    @@.....
    @@.....
    @@@@@..
    ....@@.
    ....@@.
    @@..@@.
    .@@@@..
    .......
    .......
    .......

u+0036:
char54:
    .......
    .......
    ..@@...
    .@@....
    @@.....
    @@@@@..
    @@..@@.
    @@..@@.
    @@..@@.
    .@@@@..
    .......
    .......
    .......

u+0037:
char55:
    .......
    .......
    @@@@@@.
    ....@@.
    ...@@..
    ...@@..
    ..@@...
    ..@@...
    .@@....
    .@@....
    .......
    .......
    .......

u+0038:
char56:
    .......
    .......
    .@@@@..
    @@..@@.
    @@..@@.
    .@@@@..
    @@..@@.
    @@..@@.
    @@..@@.
    .@@@@..
    .......
    .......
    .......

u+0039:
char57:
    .......
    .......
    .@@@@..
    @@..@@.
    @@..@@.
    @@..@@.
    .@@@@@.
    ....@@.
    ...@@..
    ..@@...
    .......
    .......
    .......

u+003a:
char58:
    .......
    .......
    .......
    .......
    ..@@...
    ..@@...
    .......
    .......
    ..@@...
    ..@@...
    .......
    .......
    .......

u+003b:
char59:
    .......
    .......
    .......
    .......
    ..@@...
    ..@@...
    .......
    .......
    ..@@...
    ..@@...
    ..@@...
    .@@....
    .......

u+003c:
char60:
    .......
    .......
    .......
    ....@@.
    ...@@..
    ..@@...
    .@@....
    ..@@...
    ...@@..
    ....@@.
    .......
    .......
    .......

u+003d:
char61:
    .......
    .......
    .......
    .......
    .......
    @@@@@@@
    .......
    @@@@@@@
    .......
    .......
    .......
    .......
    .......

u+003e:
char62:
    .......
    .......
    .......
    @@.....
    .@@....
    ..@@...
    ...@@..
    ..@@...
    .@@....
    @@.....
    .......
    .......
    .......

u+003f:
char63:
    .......
    .......
    .@@@@..
    @@..@@.
    ....@@.
    ...@@..
    ..@@...
    ..@@...
    .......
    ..@@...
    .......
    .......
    .......

u+0040:
char64:
    .......
    .......
    ..@@@@.
    .@@..@@
    @@.@@@@
    @@@@.@@
    @@@@.@@
    @@.@@@@
    .@@....
    ..@@@@.
    .......
    .......
    .......

u+0041:
char65:
    .......
    .......
    ..@@...
    ..@@...
    .@@@@..
    .@..@..
    @@@@@@.
    @@..@@.
    @@..@@.
    @@..@@.
    .......
    .......
    .......

u+0042:
char66:
    .......
    .......
    @@@@@..
    @@..@@.
    @@..@@.
    @@@@@..
    @@..@@.
    @@..@@.
    @@..@@.
    @@@@@..
    .......
    .......
    .......

u+0043:
char67:
    .......
    .......
    ..@@@..
    .@@.@@.
    @@.....
    @@.....
    @@.....
    @@.....
    .@@.@@.
    ..@@@..
    .......
    .......
    .......

u+0044:
char68:
    .......
    .......
    @@@@...
    @@.@@..
    @@..@@.
    @@..@@.
    @@..@@.
    @@..@@.
    @@.@@..
    @@@@...
    .......
    .......
    .......

u+0045:
char69:
    .......
    .......
    @@@@@@.
    @@.....
    @@.....
    @@@@@..
    @@.....
    @@.....
    @@.....
    @@@@@@.
    .......
    .......
    .......

u+0046:
char70:
    .......
    .......
    @@@@@@.
    @@.....
    @@.....
    @@@@@..
    @@.....
    @@.....
    @@.....
    @@.....
    .......
    .......
    .......

u+0047:
char71:
    .......
    .......
    ..@@@..
    .@@.@@.
    @@.....
    @@.....
    @@.@@@.
    @@..@@.
    .@@.@@.
    ..@@@..
    .......
    .......
    .......

u+0048:
char72:
    .......
    .......
    @@..@@.
    @@..@@.
    @@..@@.
    @@@@@@.
    @@..@@.
    @@..@@.
    @@..@@.
    @@..@@.
    .......
    .......
    .......

u+0049:
char73:
    .......
    .......
    .@@@@..
    ..@@...
    ..@@...
    ..@@...
    ..@@...
    ..@@...
    ..@@...
    .@@@@..
    .......
    .......
    .......

u+004a:
char74:
    .......
    .......
    ...@@@.
    ....@@.
    ....@@.
    ....@@.
    ....@@.
    @@..@@.
    @@..@@.
    .@@@@..
    .......
    .......
    .......

u+004b:
char75:
    .......
    .......
    @@..@@.
    @@..@@.
    @@.@@..
    @@@@...
    @@.@@..
    @@..@@.
    @@..@@.
    @@..@@.
    .......
    .......
    .......

u+004c:
char76:
    .......
    .......
    @@.....
    @@.....
    @@.....
    @@.....
    @@.....
    @@.....
    @@.....
    @@@@@@.
    .......
    .......
    .......

u+004d:
char77:
    .......
    .......
    @.....@
    @@...@@
    @@@.@@@
    @@@@@@@
    @@.@.@@
    @@...@@
    @@...@@
    @@...@@
    .......
    .......
    .......

u+004e:
char78:
    .......
    .......
    @@..@@.
    @@@.@@.
    @@@.@@.
    @@.@@@.
    @@.@@@.
    @@..@@.
    @@..@@.
    @@..@@.
    .......
    .......
    .......

u+004f:
char79:
    .......
    .......
    .@@@@..
    @@..@@.
    @@..@@.
    @@..@@.
    @@..@@.
    @@..@@.
    @@..@@.
    .@@@@..
    .......
    .......
    .......

u+0050:
char80:
    .......
    .......
    @@@@@..
    @@..@@.
    @@..@@.
    @@..@@.
    @@@@@..
    @@.....
    @@.....
    @@.....
    .......
    .......
    .......

u+0051:
char81:
    .......
    .......
    .@@@@..
    @@..@@.
    @@..@@.
    @@..@@.
    @@..@@.
    @@..@@.
    @@..@..
    .@@@@@.
    ....@@.
    .......
    .......

u+0052:
char82:
    .......
    .......
    @@@@@..
    @@..@@.
    @@..@@.
    @@@@@..
    @@.@@..
    @@..@@.
    @@..@@.
    @@..@@.
    .......
    .......
    .......

u+0053:
char83:
    .......
    .......
    .@@@@..
    @@..@@.
    @@.....
    .@@....
    ...@@..
    ....@@.
    @@..@@.
    .@@@@..
    .......
    .......
    .......

u+0054:
char84:
    .......
    .......
    @@@@@@.
    ..@@...
    ..@@...
    ..@@...
    ..@@...
    ..@@...
    ..@@...
    ..@@...
    .......
    .......
    .......

u+0055:
char85:
    .......
    .......
    @@..@@.
    @@..@@.
    @@..@@.
    @@..@@.
    @@..@@.
    @@..@@.
    @@..@@.
    .@@@@..
    .......
    .......
    .......

u+0056:
char86:
    .......
    .......
    @@..@@.
    @@..@@.
    @@..@@.
    @@..@@.
    .@@@@..
    .@@@@..
    ..@@...
    ..@@...
    .......
    .......
    .......

u+0057:
char87:
    .......
    .......
    @@...@@
    @@.@.@@
    @@.@.@@
    @@@@@@@
    @@@@@@@
    .@@.@@.
    .@@.@@.
    .@@.@@.
    .......
    .......
    .......

u+0058:
char88:
    .......
    .......
    @@..@@.
    @@..@@.
    .@@@@..
    ..@@...
    ..@@...
    .@@@@..
    @@..@@.
    @@..@@.
    .......
    .......
    .......

u+0059:
char89:
    .......
    .......
    @@..@@.
    @@..@@.
    @@..@@.
    .@@@@..
    ..@@...
    ..@@...
    ..@@...
    ..@@...
    .......
    .......
    .......

u+005a:
char90:
    .......
    .......
    @@@@@@.
    ....@@.
    ...@@..
    ..@@...
    .@@....
    .@@....
    @@.....
    @@@@@@.
    .......
    .......
    .......

u+005b:
char91:
    .......
    ..@@@@.
    ..@@...
    ..@@...
    ..@@...
    ..@@...
    ..@@...
    ..@@...
    ..@@...
    ..@@...
    ..@@...
    ..@@@@.
    .......

u+005c:
char92:
    .......
    .@.....
    .@@....
    .@@....
    ..@@...
    ..@@...
    ...@@..
    ...@@..
    ....@@.
    ....@@.
    .....@.
    .......
    .......

u+005d:
char93:
    .......
    .@@@@..
    ...@@..
    ...@@..
    ...@@..
    ...@@..
    ...@@..
    ...@@..
    ...@@..
    ...@@..
    ...@@..
    .@@@@..
    .......

u+005e:
char94:
    .......
    ..@@...
    ..@@...
    .@@@@..
    .@@@@..
    @@..@@.
    @@..@@.
    .......
    .......
    .......
    .......
    .......
    .......

u+005f:
char95:
    .......
    .......
    .......
    .......
    .......
    .......
    .......
    .......
    .......
    .......
    @@@@@@@
    .......
    .......

u+0060:
char96:
    .......
    ..@@...
    ...@@..
    .......
    .......
    .......
    .......
    .......
    .......
    .......
    .......
    .......
    .......

u+0061:
char97:
    .......
    .......
    .......
    .......
    .@@@@..
    ....@@.
    .@@@@@.
    @@..@@.
    @@..@@.
    .@@@@@.
    .......
    .......
    .......

u+0062:
char98:
    .......
    @@.....
    @@.....
    @@.....
    @@@@@..
    @@..@@.
    @@..@@.
    @@..@@.
    @@..@@.
    @@@@@..
    .......
    .......
    .......

u+0063:
char99:
    .......
    .......
    .......
    .......
    .@@@@..
    @@..@@.
    @@.....
    @@.....
    @@..@@.
    .@@@@..
    .......
    .......
    .......

u+0064:
char100:
    .......
    ....@@.
    ....@@.
    ....@@.
    .@@@@@.
    @@..@@.
    @@..@@.
    @@..@@.
    @@..@@.
    .@@@@@.
    .......
    .......
    .......

u+0065:
char101:
    .......
    .......
    .......
    .......
    .@@@@..
    @@..@@.
    @@@@@@.
    @@.....
    @@..@@.
    .@@@@..
    .......
    .......
    .......

u+0066:
char102:
    .......
    ..@@@@.
    .@@....
    .@@....
    @@@@@..
    .@@....
    .@@....
    .@@....
    .@@....
    .@@....
    .......
    .......
    .......

u+0067:
char103:
    .......
    .......
    .......
    .......
    .@@@@@.
    @@..@@.
    @@..@@.
    @@..@@.
    @@..@@.
    .@@@@@.
    ....@@.
    ....@@.
    .@@@@..

u+0068:
char104:
    .......
    @@.....
    @@.....
    @@.....
    @@@@@..
    @@..@@.
    @@..@@.
    @@..@@.
    @@..@@.
    @@..@@.
    .......
    .......
    .......

u+0069:
char105:
    .......
    ..@@...
    ..@@...
    .......
    .@@@...
    ..@@...
    ..@@...
    ..@@...
    ..@@...
    ..@@...
    .......
    .......
    .......

u+006a:
char106:
    .......
    ...@@..
    ...@@..
    .......
    ..@@@..
    ...@@..
    ...@@..
    ...@@..
    ...@@..
    ...@@..
    ...@@..
    @@@@...
    .......

u+006b:
char107:
    .......
    @@.....
    @@.....
    @@.....
    @@..@@.
    @@.@@..
    @@@@...
    @@@@...
    @@.@@..
    @@..@@.
    .......
    .......
    .......

u+006c:
char108:
    .......
    .@@@...
    ..@@...
    ..@@...
    ..@@...
    ..@@...
    ..@@...
    ..@@...
    ..@@...
    ..@@...
    .......
    .......
    .......

u+006d:
char109:
    .......
    .......
    .......
    .......
    @@@.@@.
    @@@@@@@
    @@@@@@@
    @@.@.@@
    @@.@.@@
    @@.@.@@
    .......
    .......
    .......

u+006e:
char110:
    .......
    .......
    .......
    .......
    @@@@@..
    @@..@@.
    @@..@@.
    @@..@@.
    @@..@@.
    @@..@@.
    .......
    .......
    .......

u+006f:
char111:
    .......
    .......
    .......
    .......
    .@@@@..
    @@..@@.
    @@..@@.
    @@..@@.
    @@..@@.
    .@@@@..
    .......
    .......
    .......

u+0070:
char112:
    .......
    .......
    .......
    .......
    @@@@@..
    @@..@@.
    @@..@@.
    @@..@@.
    @@..@@.
    @@@@@..
    @@.....
    @@.....
    @@.....

u+0071:
char113:
    .......
    .......
    .......
    .......
    .@@@@@.
    @@..@@.
    @@..@@.
    @@..@@.
    @@..@@.
    .@@@@@.
    ....@@.
    ....@@.
    ....@@.

u+0072:
char114:
    .......
    .......
    .......
    .......
    @@.@@..
    @@@.@@.
    @@.....
    @@.....
    @@.....
    @@.....
    .......
    .......
    .......

u+0073:
char115:
    .......
    .......
    .......
    .......
    .@@@@..
    @@..@@.
    .@@@@..
    ....@@.
    @@..@@.
    .@@@@..
    .......
    .......
    .......

u+0074:
char116:
    .......
    .......
    .@@....
    .@@....
    @@@@@..
    .@@....
    .@@....
    .@@....
    .@@....
    ..@@@@.
    .......
    .......
    .......

u+0075:
char117:
    .......
    .......
    .......
    .......
    @@..@@.
    @@..@@.
    @@..@@.
    @@..@@.
    @@..@@.
    .@@@@@.
    .......
    .......
    .......

u+0076:
char118:
    .......
    .......
    .......
    .......
    @@..@@.
    @@..@@.
    .@@@@..
    .@@@@..
    ..@@...
    ..@@...
    .......
    .......
    .......

u+0077:
char119:
    .......
    .......
    .......
    .......
    @@...@@
    @@.@.@@
    @@.@.@@
    @@@@@@@
    .@@@@@.
    .@@.@@.
    .......
    .......
    .......

u+0078:
char120:
    .......
    .......
    .......
    .......
    @@..@@.
    .@@@@..
    ..@@...
    ..@@...
    .@@@@..
    @@..@@.
    .......
    .......
    .......

u+0079:
char121:
    .......
    .......
    .......
    .......
    @@..@@.
    @@..@@.
    @@..@@.
    @@..@@.
    @@..@@.
    .@@@@@.
    ....@@.
    @@..@@.
    .@@@@..

u+007a:
char122:
    .......
    .......
    .......
    .......
    @@@@@@.
    ...@@..
    ..@@...
    .@@....
    @@.....
    @@@@@@.
    .......
    .......
    .......

u+007b:
char123:
    .......
    ...@@@.
    ..@@...
    ..@@...
    ..@@...
    ..@@...
    @@@....
    ..@@...
    ..@@...
    ..@@...
    ..@@...
    ...@@@.
    .......

u+007c:
char124:
    .......
    ..@@...
    ..@@...
    ..@@...
    ..@@...
    ..@@...
    ..@@...
    ..@@...
    ..@@...
    ..@@...
    ..@@...
    ..@@...
    .......

u+007d:
char125:
    .......
    @@@....
    ..@@...
    ..@@...
    ..@@...
    ..@@...
    ...@@@.
    ..@@...
    ..@@...
    ..@@...
    ..@@...
    @@@....
    .......

u+007e:
char126:
    .......
    .......
    .......
    .......
    .......
    .@@..@.
    @@@@@@.
    @..@@..
    .......
    .......
    .......
    .......
    .......

u+007f:
char127:
    .......
    .......
    .......
    .......
    .......
    .......
    .......
    .......
    .......
    .......
    .......
    .......
    .......

u+0080:
char128:
    .......
    .......
    .......
    ..@@@..
    .@@.@@.
    @@@@...
    .@@....
    @@@@...
    .@@.@@.
    ..@@@..
    .......
    .......
    .......

u+0081:
char129:
    .......
    .......
    .......
    .......
    .......
    .......
    .......
    .......
    .......
    .......
    .......
    .......
    .......

u+0082:
char130:
    .......
    .......
    .......
    .......
    .......
    .......
    .......
    .......
    ..@@...
    ..@@...
    ..@@...
    .@@....
    .......

u+0083:
char131:
    .......
    ...@@@.
    ..@@...
    ..@@...
    .@@@@@.
    ..@@...
    ..@@...
    ..@@...
    ..@@...
    ..@@...
    ..@@...
    @@@....
    .......

u+0084:
char132:
    .......
    .......
    .......
    .......
    .......
    .......
    .......
    .......
    .@@.@@.
    .@@.@@.
    .@@.@@.
    .......
    .......

u+0085:
char133:
    .......
    .......
    .......
    .......
    .......
    .......
    .......
    .......
    .......
    .@.@.@.
    .......
    .......
    .......

u+0086:
char134:
    .......
    ..@@...
    ..@@...
    @@@@@@.
    ..@@...
    ..@@...
    ..@@...
    ..@@...
    ..@@...
    ..@@...
    .......
    .......
    .......

u+0087:
char135:
    .......
    ..@@...
    ..@@...
    @@@@@@.
    ..@@...
    @@@@@@.
    ..@@...
    ..@@...
    ..@@...
    ..@@...
    .......
    .......
    .......

u+0088:
char136:
    .......
    ..@@...
    .@@@@..
    @@..@@.
    .......
    .......
    .......
    .......
    .......
    .......
    .......
    .......
    .......

u+0089:
char137:
    .......
    .......
    @@.@@..
    @@.@@..
    ..@@...
    ..@@...
    .@@....
    .@@....
    @@.@.@.
    @@.@.@.
    .......
    .......
    .......

u+008a:
char138:
    .@@.@@.
    ..@@@..
    .@@@@..
    @@..@@.
    @@.....
    .@@@@..
    ....@@.
    ....@@.
    @@..@@.
    .@@@@..
    .......
    .......
    .......

u+008b:
char139:
    .......
    .......
    .......
    .......
    ...@@..
    ..@@...
    .@@....
    ..@@...
    ...@@..
    .......
    .......
    .......
    .......

u+008c:
char140:
    .......
    .......
    .@@.@@.
    @@.@@..
    @@.@@..
    @@.@@@.
    @@.@@..
    @@.@@..
    @@.@@..
    .@@.@@.
    .......
    .......
    .......

u+008d:
char141:
    .......
    .......
    .......
    .......
    .......
    .......
    .......
    .......
    .......
    .......
    .......
    .......
    .......

u+008e:
char142:
    .@@.@@.
    ..@@@..
    @@@@@@.
    ...@@..
    ..@@...
    ..@@...
    .@@....
    .@@....
    @@.....
    @@@@@@.
    .......
    .......
    .......

u+008f:
char143:
    .......
    .......
    .......
    .......
    .......
    .......
    .......
    .......
    .......
    .......
    .......
    .......
    .......

u+0090:
char144:
    .......
    .......
    .......
    .......
    .......
    .......
    .......
    .......
    .......
    .......
    .......
    .......
    .......

u+0091:
char145:
    .......
    ..@@...
    ..@@...
    ...@@..
    .......
    .......
    .......
    .......
    .......
    .......
    .......
    .......
    .......

u+0092:
char146:
    .......
    ..@@...
    ..@@...
    .@@....
    .......
    .......
    .......
    .......
    .......
    .......
    .......
    .......
    .......

u+0093:
char147:
    .......
    @@.@@..
    @@.@@..
    .@@.@@.
    .......
    .......
    .......
    .......
    .......
    .......
    .......
    .......
    .......

u+0094:
char148:
    .......
    .@@.@@.
    .@@.@@.
    @@.@@..
    .......
    .......
    .......
    .......
    .......
    .......
    .......
    .......
    .......

u+0095:
char149:
    .......
    .......
    .......
    .......
    ..@@...
    .@@@@..
    @@@@@@.
    .@@@@..
    ..@@...
    .......
    .......
    .......
    .......

u+0096:
char150:
    .......
    .......
    .......
    .......
    .......
    .......
    @@@@@@.
    .......
    .......
    .......
    .......
    .......
    .......

u+0097:
char151:
    .......
    .......
    .......
    .......
    .......
    .......
    @@@@@@@
    .......
    .......
    .......
    .......
    .......
    .......

u+0098:
char152:
    .......
    .......
    ..@@.@.
    .@.@@..
    .......
    .......
    .......
    .......
    .......
    .......
    .......
    .......
    .......

u+0099:
char153:
    .......
    .......
    .@@@@@.
    ..@.@@.
    ..@.@@.
    ..@.@@.
    .......
    .......
    .......
    .......
    .......
    .......
    .......

u+009a:
char154:
    .......
    .@@.@@.
    ..@@@..
    .......
    .@@@@..
    @@..@@.
    .@@@@..
    ....@@.
    @@..@@.
    .@@@@..
    .......
    .......
    .......

u+009b:
char155:
    .......
    .......
    .......
    .......
    .@@....
    ..@@...
    ...@@..
    ..@@...
    .@@....
    .......
    .......
    .......
    .......

u+009c:
char156:
    .......
    .......
    .......
    .......
    .@@.@..
    @@.@.@.
    @@.@@@.
    @@.@...
    @@.@.@.
    .@@.@..
    .......
    .......
    .......

u+009d:
char157:
    .......
    .......
    .......
    .......
    .......
    .......
    .......
    .......
    .......
    .......
    .......
    .......
    .......

u+009e:
char158:
    .......
    .@@.@@.
    ..@@@..
    .......
    @@@@@@.
    ...@@..
    ..@@...
    .@@....
    @@.....
    @@@@@@.
    .......
    .......
    .......

u+009f:
char159:
    .......
    @@..@@.
    .......
    @@..@@.
    @@..@@.
    @@..@@.
    .@@@@..
    ..@@...
    ..@@...
    ..@@...
    .......
    .......
    .......

u+00a0:
char160:
    .......
    .......
    .......
    .......
    .......
    .......
    .......
    .......
    .......
    .......
    .......
    .......
    .......

u+00a1:
char161:
    .......
    .......
    ..@@...
    .......
    ..@@...
    ..@@...
    ..@@...
    ..@@...
    ..@@...
    ..@@...
    .......
    .......
    .......

u+00a2:
char162:
    .......
    .......
    .......
    ...@...
    .@@@@..
    @@.@.@.
    @@.@...
    @@.@...
    @@.@.@.
    .@@@@..
    ...@...
    .......
    .......

u+00a3:
char163:
    .......
    .......
    ..@@@..
    .@@....
    .@@....
    @@@@@..
    .@@....
    .@@....
    @@.....
    @@@@@@.
    .......
    .......
    .......

u+00a4:
char164:
    .......
    .......
    .......
    .......
    @@...@@
    .@@@@@.
    .@@.@@.
    .@@.@@.
    .@@@@@.
    @@...@@
    .......
    .......
    .......

u+00a5:
char165:
    .......
    .......
    @@..@@.
    @@..@@.
    @@..@@.
    .@@@@..
    ..@@...
    @@@@@@.
    ..@@...
    ..@@...
    .......
    .......
    .......

u+00a6:
char166:
    .......
    ..@@...
    ..@@...
    ..@@...
    ..@@...
    ..@@...
    .......
    ..@@...
    ..@@...
    ..@@...
    ..@@...
    ..@@...
    .......

u+00a7:
char167:
    .......
    .@@@@..
    @@..@@.
    @@.....
    .@@@...
    .@@.@..
    ..@@@..
    ....@@.
    @@..@@.
    .@@@@..
    .......
    .......
    .......

u+00a8:
char168:
    .......
    .@@.@@.
    .......
    .......
    .......
    .......
    .......
    .......
    .......
    .......
    .......
    .......
    .......

u+00a9:
char169:
    .......
    .......
    .@@@@@.
    @@@@@@@
    @@@..@@
    @@.@@@@
    @@.@@@@
    @@@..@@
    @@@@@@@
    .@@@@@.
    .......
    .......
    .......

u+00aa:
char170:
    .......
    .......
    .@@@...
    ...@@..
    .@@@@..
    @@.@@..
    .@@@@..
    .......
    .......
    .......
    .......
    .......
    .......

u+00ab:
char171:
    .......
    .......
    .......
    .......
    ..@@.@.
    .@@.@..
    @@.@...
    .@@.@..
    ..@@.@.
    .......
    .......
    .......
    .......

u+00ac:
char172:
    .......
    .......
    .......
    .......
    .......
    .......
    @@@@@..
    ...@@..
    ...@@..
    ...@@..
    .......
    .......
    .......

u+00ad:
char173:
    .......
    .......
    .......
    .......
    .......
    .......
    .......
    .......
    .......
    .......
    .......
    .......
    .......

u+00ae:
char174:
    .......
    .......
    .@@@@@.
    @@@@@@@
    @@..@@@
    @@.@.@@
    @@..@@@
    @@.@.@@
    @@@@@@@
    .@@@@@.
    .......
    .......
    .......

u+00af:
char175:
    @@@@@@@
    .......
    .......
    .......
    .......
    .......
    .......
    .......
    .......
    .......
    .......
    .......
    .......

u+00b0:
char176:
    .......
    .@@@...
    @@.@@..
    @@.@@..
    .@@@...
    .......
    .......
    .......
    .......
    .......
    .......
    .......
    .......

u+00b1:
char177:
    .......
    .......
    .......
    ..@@...
    ..@@...
    @@@@@@.
    ..@@...
    ..@@...
    .......
    @@@@@@.
    .......
    .......
    .......

u+00b2:
char178:
    .......
    @@@@...
    ...@@..
    ..@@...
    .@@....
    @@@@@..
    .......
    .......
    .......
    .......
    .......
    .......
    .......

u+00b3:
char179:
    .......
    @@@@...
    ...@@..
    .@@@...
    ...@@..
    @@@@...
    .......
    .......
    .......
    .......
    .......
    .......
    .......

u+00b4:
char180:
    .......
    ...@@..
    ..@@...
    .......
    .......
    .......
    .......
    .......
    .......
    .......
    .......
    .......
    .......

u+00b5:
char181:
    .......
    .......
    .......
    .......
    .@@.@@.
    .@@.@@.
    .@@.@@.
    .@@.@@.
    .@@@@@.
    .@@.@..
    .@@....
    @@.....
    .......

u+00b6:
char182:
    .......
    .......
    ..@@@@.
    .@@@.@.
    .@@@.@.
    ..@@.@.
    ...@.@.
    ...@.@.
    ...@.@.
    ...@.@.
    ...@.@.
    .......
    .......

u+00b7:
char183:
    .......
    .......
    .......
    .......
    .......
    ...@...
    ..@@@..
    ...@...
    .......
    .......
    .......
    .......
    .......

u+00b8:
char184:
    .......
    .......
    .......
    .......
    .......
    .......
    .......
    .......
    .......
    ..@@@..
    ...@@..
    ..@@...
    .......

u+00b9:
char185:
    .......
    .@@....
    @@@....
    .@@....
    .@@....
    @@@@...
    .......
    .......
    .......
    .......
    .......
    .......
    .......

u+00ba:
char186:
    .......
    .@@@...
    @@.@@..
    @@.@@..
    @@.@@..
    .@@@...
    .......
    .......
    .......
    .......
    .......
    .......
    .......

u+00bb:
char187:
    .......
    .......
    .......
    .......
    @@.@...
    .@@.@..
    ..@@.@.
    .@@.@..
    @@.@...
    .......
    .......
    .......
    .......

u+00bc:
char188:
    .......
    .@...@.
    .@..@..
    .@..@..
    .@.@...
    ...@...
    ..@..@.
    ..@.@@.
    .@.@@@.
    .@...@.
    .......
    .......
    .......

u+00bd:
char189:
    .......
    .@...@.
    .@..@..
    .@..@..
    .@.@...
    ...@...
    ..@.@..
    ..@..@.
    .@..@..
    .@..@@.
    .......
    .......
    .......

u+00be:
char190:
    .......
    .@@..@.
    ..@.@..
    .@..@..
    ..@@...
    .@@@...
    ..@..@.
    ..@.@@.
    .@.@@@.
    .@...@.
    .......
    .......
    .......

u+00bf:
char191:
    .......
    .......
    ..@@...
    .......
    ..@@...
    ..@@...
    .@@....
    @@.....
    @@..@@.
    .@@@@..
    .......
    .......
    .......

u+00c0:
char192:
    .@@....
    ..@@...
    .......
    ..@@...
    ..@@...
    .@@@@..
    .@..@..
    @@@@@@.
    @@..@@.
    @@..@@.
    .......
    .......
    .......

u+00c1:
char193:
    ...@@..
    ..@@...
    .......
    ..@@...
    ..@@...
    .@@@@..
    .@..@..
    @@@@@@.
    @@..@@.
    @@..@@.
    .......
    .......
    .......

u+00c2:
char194:
    ..@@@..
    .@@.@@.
    .......
    ..@@...
    ..@@...
    .@@@@..
    .@..@..
    @@@@@@.
    @@..@@.
    @@..@@.
    .......
    .......
    .......

u+00c3:
char195:
    ..@@.@.
    .@.@@..
    .......
    ..@@...
    ..@@...
    .@@@@..
    .@..@..
    @@@@@@.
    @@..@@.
    @@..@@.
    .......
    .......
    .......

u+00c4:
char196:
    .......
    @@..@@.
    .......
    ..@@...
    ..@@...
    .@@@@..
    .@..@..
    @@@@@@.
    @@..@@.
    @@..@@.
    .......
    .......
    .......

u+00c5:
char197:
    ..@@@..
    .@@.@@.
    ..@@@..
    ..@@...
    .@@@@..
    .@@@@..
    @@..@@.
    @@@@@@.
    @@..@@.
    @@..@@.
    .......
    .......
    .......

u+00c6:
char198:
    .......
    .......
    ..@@@@.
    .@@@@..
    .@.@@..
    @@.@@@.
    @@@@@..
    @@.@@..
    @@.@@..
    @@.@@@.
    .......
    .......
    .......

u+00c7:
char199:
    .......
    .......
    .@@@@..
    @@..@@.
    @@.....
    @@.....
    @@.....
    @@.....
    @@..@@.
    .@@@@..
    ..@@...
    ..@@...
    .@@....

u+00c8:
char200:
    .@@....
    ..@@...
    .......
    @@@@@@.
    @@.....
    @@.....
    @@@@@..
    @@.....
    @@.....
    @@@@@@.
    .......
    .......
    .......

u+00c9:
char201:
    ...@@..
    ..@@...
    .......
    @@@@@@.
    @@.....
    @@.....
    @@@@@..
    @@.....
    @@.....
    @@@@@@.
    .......
    .......
    .......

u+00ca:
char202:
    ..@@@..
    .@@.@@.
    .......
    @@@@@@.
    @@.....
    @@.....
    @@@@@..
    @@.....
    @@.....
    @@@@@@.
    .......
    .......
    .......

u+00cb:
char203:
    .......
    @@..@@.
    .......
    @@@@@@.
    @@.....
    @@.....
    @@@@@..
    @@.....
    @@.....
    @@@@@@.
    .......
    .......
    .......

u+00cc:
char204:
    .@@....
    ..@@...
    .......
    .@@@@..
    ..@@...
    ..@@...
    ..@@...
    ..@@...
    ..@@...
    .@@@@..
    .......
    .......
    .......

u+00cd:
char205:
    ...@@..
    ..@@...
    .......
    .@@@@..
    ..@@...
    ..@@...
    ..@@...
    ..@@...
    ..@@...
    .@@@@..
    .......
    .......
    .......

u+00ce:
char206:
    ..@@@..
    .@@.@@.
    .......
    .@@@@..
    ..@@...
    ..@@...
    ..@@...
    ..@@...
    ..@@...
    .@@@@..
    .......
    .......
    .......

u+00cf:
char207:
    .......
    @@..@@.
    .......
    .@@@@..
    ..@@...
    ..@@...
    ..@@...
    ..@@...
    ..@@...
    .@@@@..
    .......
    .......
    .......

u+00d0:
char208:
    .......
    .......
    .......
    .@@@@..
    .@@.@@.
    .@@.@@.
    @@@@@@.
    .@@.@@.
    .@@.@@.
    .@@@@..
    .......
    .......
    .......

u+00d1:
char209:
    ..@@.@.
    .@.@@..
    .......
    @@..@@.
    @@@.@@.
    @@@@@@.
    @@.@@@.
    @@..@@.
    @@..@@.
    @@..@@.
    .......
    .......
    .......

u+00d2:
char210:
    .@@....
    ..@@...
    .......
    .@@@@..
    @@..@@.
    @@..@@.
    @@..@@.
    @@..@@.
    @@..@@.
    .@@@@..
    .......
    .......
    .......

u+00d3:
char211:
    ...@@..
    ..@@...
    .......
    .@@@@..
    @@..@@.
    @@..@@.
    @@..@@.
    @@..@@.
    @@..@@.
    .@@@@..
    .......
    .......
    .......

u+00d4:
char212:
    ..@@@..
    .@@.@@.
    .......
    .@@@@..
    @@..@@.
    @@..@@.
    @@..@@.
    @@..@@.
    @@..@@.
    .@@@@..
    .......
    .......
    .......

u+00d5:
char213:
    ..@@.@.
    .@.@@..
    .......
    .@@@@..
    @@..@@.
    @@..@@.
    @@..@@.
    @@..@@.
    @@..@@.
    .@@@@..
    .......
    .......
    .......

u+00d6:
char214:
    .......
    @@..@@.
    .......
    .@@@@..
    @@..@@.
    @@..@@.
    @@..@@.
    @@..@@.
    @@..@@.
    .@@@@..
    .......
    .......
    .......

u+00d7:
char215:
    .......
    .......
    .......
    .......
    @@..@@.
    .@@@@..
    ..@@...
    .@@@@..
    @@..@@.
    .......
    .......
    .......
    .......

u+00d8:
char216:
    .......
    .......
    .@@@.@.
    @@..@@.
    @@.@@..
    @@.@@@.
    @@@.@@.
    .@@.@@.
    @@..@@.
    @.@@@..
    .......
    .......
    .......

u+00d9:
char217:
    .@@....
    ..@@...
    .......
    @@..@@.
    @@..@@.
    @@..@@.
    @@..@@.
    @@..@@.
    @@..@@.
    .@@@@..
    .......
    .......
    .......

u+00da:
char218:
    ...@@..
    ..@@...
    .......
    @@..@@.
    @@..@@.
    @@..@@.
    @@..@@.
    @@..@@.
    @@..@@.
    .@@@@..
    .......
    .......
    .......

u+00db:
char219:
    ..@@@..
    .@@.@@.
    .......
    @@..@@.
    @@..@@.
    @@..@@.
    @@..@@.
    @@..@@.
    @@..@@.
    .@@@@..
    .......
    .......
    .......

u+00dc:
char220:
    .......
    @@..@@.
    .......
    @@..@@.
    @@..@@.
    @@..@@.
    @@..@@.
    @@..@@.
    @@..@@.
    .@@@@..
    .......
    .......
    .......

u+00dd:
char221:
    ...@@..
    ..@@...
    .......
    @@..@@.
    @@..@@.
    @@..@@.
    .@@@@..
    ..@@...
    ..@@...
    ..@@...
    .......
    .......
    .......

u+00de:
char222:
    .......
    .......
    @@.....
    @@.....
    @@@@@..
    @@..@@.
    @@..@@.
    @@@@@..
    @@.....
    @@.....
    .......
    .......
    .......

u+00df:
char223:
    .......
    ..@@@..
    .@@.@@.
    .@@.@@.
    .@@@@..
    .@@.@@.
    .@@.@@.
    .@@.@@.
    .@@.@@.
    .@@@@..
    @@.....
    .......
    .......

u+00e0:
char224:
    .......
    .@@....
    ..@@...
    .......
    .@@@@..
    ....@@.
    .@@@@@.
    @@..@@.
    @@..@@.
    .@@@@@.
    .......
    .......
    .......

u+00e1:
char225:
    .......
    ...@@..
    ..@@...
    .......
    .@@@@..
    ....@@.
    .@@@@@.
    @@..@@.
    @@..@@.
    .@@@@@.
    .......
    .......
    .......

u+00e2:
char226:
    .......
    ..@@@..
    .@@.@@.
    .......
    .@@@@..
    ....@@.
    .@@@@@.
    @@..@@.
    @@..@@.
    .@@@@@.
    .......
    .......
    .......

u+00e3:
char227:
    .......
    ..@@.@.
    .@.@@..
    .......
    .@@@@..
    ....@@.
    .@@@@@.
    @@..@@.
    @@..@@.
    .@@@@@.
    .......
    .......
    .......

u+00e4:
char228:
    .......
    @@..@@.
    .......
    .......
    .@@@@..
    ....@@.
    .@@@@@.
    @@..@@.
    @@..@@.
    .@@@@@.
    .......
    .......
    .......

u+00e5:
char229:
    ..@@@..
    .@@.@@.
    ..@@@..
    .......
    .@@@@..
    ....@@.
    .@@@@@.
    @@..@@.
    @@..@@.
    .@@@@@.
    .......
    .......
    .......

u+00e6:
char230:
    .......
    .......
    .......
    .......
    .@.@@..
    ..@@.@.
    .@@@@@.
    @.@@...
    @.@@.@.
    .@@.@..
    .......
    .......
    .......

u+00e7:
char231:
    .......
    .......
    .......
    .......
    .@@@@..
    @@..@@.
    @@.....
    @@.....
    @@..@@.
    .@@@@..
    ..@@...
    ..@@...
    .@@....

u+00e8:
char232:
    .......
    .@@....
    ..@@...
    .......
    .@@@@..
    @@..@@.
    @@@@@@.
    @@.....
    @@..@@.
    .@@@@..
    .......
    .......
    .......

u+00e9:
char233:
    .......
    ...@@..
    ..@@...
    .......
    .@@@@..
    @@..@@.
    @@@@@@.
    @@.....
    @@..@@.
    .@@@@..
    .......
    .......
    .......

u+00ea:
char234:
    .......
    ..@@@..
    .@@.@@.
    .......
    .@@@@..
    @@..@@.
    @@@@@@.
    @@.....
    @@..@@.
    .@@@@..
    .......
    .......
    .......

u+00eb:
char235:
    .......
    @@..@@.
    .......
    .......
    .@@@@..
    @@..@@.
    @@@@@@.
    @@.....
    @@..@@.
    .@@@@..
    .......
    .......
    .......

u+00ec:
char236:
    .......
    .@@....
    ..@@...
    .......
    .@@@...
    ..@@...
    ..@@...
    ..@@...
    ..@@...
    .@@@@..
    .......
    .......
    .......

u+00ed:
char237:
    .......
    ...@@..
    ..@@...
    .......
    .@@@...
    ..@@...
    ..@@...
    ..@@...
    ..@@...
    .@@@@..
    .......
    .......
    .......

u+00ee:
char238:
    .......
    ..@@@..
    .@@.@@.
    .......
    .@@@...
    ..@@...
    ..@@...
    ..@@...
    ..@@...
    .@@@@..
    .......
    .......
    .......

u+00ef:
char239:
    .......
    @@..@@.
    .......
    .......
    .@@@...
    ..@@...
    ..@@...
    ..@@...
    ..@@...
    .@@@@..
    .......
    .......
    .......

u+00f0:
char240:
    .......
    .@@@.@.
    ...@@..
    ..@.@@.
    ....@@.
    .@@@@@.
    @@..@@.
    @@..@@.
    @@..@@.
    .@@@@..
    .......
    .......
    .......

u+00f1:
char241:
    .......
    ..@@.@.
    .@.@@..
    .......
    @@@@@..
    @@..@@.
    @@..@@.
    @@..@@.
    @@..@@.
    @@..@@.
    .......
    .......
    .......

u+00f2:
char242:
    .......
    .@@....
    ..@@...
    .......
    .@@@@..
    @@..@@.
    @@..@@.
    @@..@@.
    @@..@@.
    .@@@@..
    .......
    .......
    .......

u+00f3:
char243:
    .......
    ...@@..
    ..@@...
    .......
    .@@@@..
    @@..@@.
    @@..@@.
    @@..@@.
    @@..@@.
    .@@@@..
    .......
    .......
    .......

u+00f4:
char244:
    .......
    ..@@@..
    .@@.@@.
    .......
    .@@@@..
    @@..@@.
    @@..@@.
    @@..@@.
    @@..@@.
    .@@@@..
    .......
    .......
    .......

u+00f5:
char245:
    .......
    ..@@.@.
    .@.@@..
    .......
    .@@@@..
    @@..@@.
    @@..@@.
    @@..@@.
    @@..@@.
    .@@@@..
    .......
    .......
    .......

u+00f6:
char246:
    .......
    @@..@@.
    .......
    .......
    .@@@@..
    @@..@@.
    @@..@@.
    @@..@@.
    @@..@@.
    .@@@@..
    .......
    .......
    .......

u+00f7:
char247:
    .......
    .......
    .......
    .......
    ..@@...
    .......
    @@@@@@.
    .......
    ..@@...
    .......
    .......
    .......
    .......

u+00f8:
char248:
    .......
    .......
    .......
    ....@@.
    .@@@@..
    @@..@@.
    @@.@@@.
    @@@.@@.
    @@..@@.
    .@@@@..
    @@.....
    .......
    .......

u+00f9:
char249:
    .......
    .@@....
    ..@@...
    .......
    @@..@@.
    @@..@@.
    @@..@@.
    @@..@@.
    @@..@@.
    .@@@@@.
    .......
    .......
    .......

u+00fa:
char250:
    .......
    ...@@..
    ..@@...
    .......
    @@..@@.
    @@..@@.
    @@..@@.
    @@..@@.
    @@..@@.
    .@@@@@.
    .......
    .......
    .......

u+00fb:
char251:
    .......
    ..@@@..
    .@@.@@.
    .......
    @@..@@.
    @@..@@.
    @@..@@.
    @@..@@.
    @@..@@.
    .@@@@@.
    .......
    .......
    .......

u+00fc:
char252:
    .......
    @@..@@.
    .......
    .......
    @@..@@.
    @@..@@.
    @@..@@.
    @@..@@.
    @@..@@.
    .@@@@@.
    .......
    .......
    .......

u+00fd:
char253:
    .......
    ...@@..
    ..@@...
    .......
    @@..@@.
    @@..@@.
    @@..@@.
    @@..@@.
    @@..@@.
    .@@@@@.
    ....@@.
    ....@@.
    .@@@@..

u+00fe:
char254:
    .......
    .......
    @@.....
    @@.....
    @@@@@..
    @@..@@.
    @@..@@.
    @@..@@.
    @@..@@.
    @@@@@..
    @@.....
    @@.....
    .......

u+00ff:
char255:
    .......
    @@..@@.
    .......
    .......
    @@..@@.
    @@..@@.
    @@..@@.
    @@..@@.
    @@..@@.
    .@@@@@.
    ....@@.
    ....@@.
    .@@@@..

u+0100:
Amacron:
    .......
    @@@@@@.
    .......
    ..@@...
    .@..@..
    @@..@@.
    @@..@@.
    @@@@@@.
    @@..@@.
    @@..@@.
    @@..@@.
    .......
    .......

u+0101:
amacron:
    .......
    .......
    .......
    @@@@@@.
    .......
    .@@@@..
    ....@@.
    .@@@@@.
    @@..@@.
    @@..@@.
    .@@@@@.
    .......
    .......

u+0102:
Abreve:
    .......
    @@..@@.
    .@@@@..
    .......
    ..@@...
    .@@@@..
    @@..@@.
    @@..@@.
    @@@@@@.
    @@..@@.
    @@..@@.
    .......
    .......

u+0103:
abreve:
    .......
    .......
    @@..@@.
    .@@@@..
    .......
    .@@@@..
    ....@@.
    .@@@@@.
    @@..@@.
    @@..@@.
    .@@@@@.
    .......
    .......

u+0104:
Aogonek:
    .......
    .......
    ..@@...
    .@@@@..
    @@..@@.
    @@..@@.
    @@..@@.
    @@@@@@.
    @@..@@.
    @@..@@.
    @@..@@.
    ....@@.
    .....@@

u+0105:
aogonek:
    .......
    .......
    .......
    .......
    .......
    .@@@@..
    ....@@.
    .@@@@@.
    @@..@@.
    @@..@@.
    .@@@@@.
    ....@..
    .....@@

u+0106:
Cacute:
    .......
    ...@@..
    ..@@...
    .......
    .@@@@..
    @@..@@.
    @@.....
    @@.....
    @@.....
    @@..@@.
    .@@@@..
    .......
    .......

u+0107:
cacute:
    .......
    .......
    ...@@..
    ..@@...
    .......
    .@@@@..
    @@..@@.
    @@.....
    @@.....
    @@..@@.
    .@@@@..
    .......
    .......

u+0108:
Ccircumflex:
    .......
    ..@@@..
    .@@.@@.
    .......
    .@@@@..
    @@..@@.
    @@.....
    @@.....
    @@.....
    @@..@@.
    .@@@@..
    .......
    .......

u+0109:
ccircumflex:
    .......
    .......
    ..@@@..
    .@@.@@.
    .......
    .@@@@..
    @@..@@.
    @@.....
    @@.....
    @@..@@.
    .@@@@..
    .......
    .......

u+010a:
Cdotaccent:
    .......
    ..@@...
    ..@@...
    .......
    .@@@@..
    @@..@@.
    @@.....
    @@.....
    @@.....
    @@..@@.
    .@@@@..
    .......
    .......

u+010b:
cdotaccent:
    .......
    .......
    ..@@...
    ..@@...
    .......
    .@@@@..
    @@..@@.
    @@.....
    @@.....
    @@..@@.
    .@@@@..
    .......
    .......

u+010c:
Ccaron:
    .......
    @@.@@..
    .@@@...
    .......
    .@@@@..
    @@..@@.
    @@.....
    @@.....
    @@.....
    @@..@@.
    .@@@@..
    .......
    .......

u+010d:
ccaron:
    .......
    .......
    .@@.@@.
    ..@@@..
    .......
    .@@@@..
    @@..@@.
    @@.....
    @@.....
    @@..@@.
    .@@@@..
    .......
    .......

u+010e:
Dcaron:
    .......
    @@.@@..
    .@@@...
    .......
    @@@@@..
    @@..@@.
    @@..@@.
    @@..@@.
    @@..@@.
    @@..@@.
    @@@@@..
    .......
    .......

u+010f:
dcaron:
    .......
    @@.@@..
    .@@@...
    ....@@.
    ....@@.
    .@@@@@.
    @@..@@.
    @@..@@.
    @@..@@.
    @@..@@.
    .@@@@@.
    .......
    .......

u+0110:
Dcroat:
    .......
    .......
    @@@@@@.
    .@@..@@
    .@@..@@
    .@@..@@
    @@@@.@@
    .@@..@@
    .@@..@@
    .@@..@@
    @@@@@@.
    .......
    .......

u+0111:
dcroat:
    .......
    .......
    ....@@.
    ...@@@@
    ....@@.
    .@@@@@.
    @@..@@.
    @@..@@.
    @@..@@.
    @@..@@.
    .@@@@@.
    .......
    .......

u+0112:
Emacron:
    .......
    @@@@@@.
    .......
    @@@@@@.
    @@.....
    @@.....
    @@@@...
    @@.....
    @@.....
    @@.....
    @@@@@@.
    .......
    .......

u+0113:
emacron:
    .......
    .......
    .......
    @@@@@@.
    .......
    .@@@@..
    @@..@@.
    @@@@@@.
    @@.....
    @@..@@.
    .@@@@..
    .......
    .......

u+0114:
Ebreve:
    .......
    @@..@@.
    .@@@@..
    .......
    @@@@@@.
    @@.....
    @@.....
    @@@@...
    @@.....
    @@.....
    @@@@@@.
    .......
    .......

u+0115:
ebreve:
    .......
    .......
    @@..@@.
    .@@@@..
    .......
    .@@@@..
    @@..@@.
    @@@@@@.
    @@.....
    @@..@@.
    .@@@@..
    .......
    .......

u+0116:
Edotaccent:
    .......
    ..@@...
    ..@@...
    .......
    @@@@@@.
    @@.....
    @@.....
    @@@@...
    @@.....
    @@.....
    @@@@@@.
    .......
    .......

u+0117:
edotaccent:
    .......
    .......
    ..@@...
    ..@@...
    .......
    .@@@@..
    @@..@@.
    @@@@@@.
    @@.....
    @@..@@.
    .@@@@..
    .......
    .......

u+0118:
Eogonek:
    .......
    .......
    @@@@@@.
    @@.....
    @@.....
    @@.....
    @@@@...
    @@.....
    @@.....
    @@.....
    @@@@@@.
    .@@....
    ..@@@..

u+0119:
eogonek:
    .......
    .......
    .......
    .......
    .......
    .@@@@..
    @@..@@.
    @@@@@@.
    @@.....
    @@..@@.
    .@@@@..
    .@@....
    ..@@@..

u+011a:
Ecaron:
    .......
    .@@.@@.
    ..@@@..
    .......
    @@@@@@.
    @@.....
    @@.....
    @@@@...
    @@.....
    @@.....
    @@@@@@.
    .......
    .......

u+011b:
ecaron:
    .......
    .......
    .@@.@@.
    ..@@@..
    .......
    .@@@@..
    @@..@@.
    @@@@@@.
    @@.....
    @@..@@.
    .@@@@..
    .......
    .......

u+011c:
Gcircumflex:
    .......
    ..@@@..
    .@@.@@.
    .......
    .@@@@..
    @@..@@.
    @@.....
    @@.@@@.
    @@..@@.
    @@..@@.
    .@@@@@.
    .......
    .......

u+011d:
gcircumflex:
    .......
    .......
    .@@@...
    @@.@@..
    .......
    .@@@@@.
    @@.@@..
    @@.@@..
    .@@@...
    @@.....
    .@@@@..
    @@..@@.
    .@@@@..

u+011e:
Gbreve:
    .......
    @@..@@.
    .@@@@..
    .......
    .@@@@..
    @@..@@.
    @@.....
    @@.@@@.
    @@..@@.
    @@..@@.
    .@@@@@.
    .......
    .......

u+011f:
gbreve:
    .......
    .......
    @@..@@.
    .@@@@..
    .......
    .@@@@@.
    @@.@@..
    @@.@@..
    .@@@...
    @@.....
    .@@@@..
    @@..@@.
    .@@@@..

u+0120:
Gdotaccent:
    .......
    ..@@...
    ..@@...
    .......
    .@@@@..
    @@..@@.
    @@.....
    @@.@@@.
    @@..@@.
    @@..@@.
    .@@@@@.
    .......
    .......

u+0121:
gdotaccent:
    .......
    .......
    ..@@...
    ..@@...
    .......
    .@@@@@.
    @@.@@..
    @@.@@..
    .@@@...
    @@.....
    .@@@@..
    @@..@@.
    .@@@@..

u+0122:
Gcommaaccent:
    .......
    .......
    .@@@@..
    @@..@@.
    @@.....
    @@.....
    @@.....
    @@.@@@.
    @@..@@.
    @@..@@.
    .@@@@@.
    ...@@..
    ..@@...

u+0123:
gcommaaccent:
    .......
    ...@...
    ..@....
    ..@@...
    .......
    .@@@@@.
    @@.@@..
    @@.@@..
    .@@@...
    @@.....
    .@@@@..
    @@..@@.
    .@@@@..

u+0124:
Hcircumflex:
    .......
    .@@@@..
    @@..@@.
    .......
    @@..@@.
    @@..@@.
    @@..@@.
    @@@@@@.
    @@..@@.
    @@..@@.
    @@..@@.
    .......
    .......

u+0125:
hcircumflex:
    ..@@@..
    .@@.@@.
    .......
    @@.....
    @@.....
    @@@@@..
    @@..@@.
    @@..@@.
    @@..@@.
    @@..@@.
    @@..@@.
    .......
    .......

u+0126:
Hbar:
    .......
    .......
    .@@.@@.
    .@@.@@.
    @@@@@@@
    .@@.@@.
    .@@@@@.
    .@@.@@.
    .@@.@@.
    .@@.@@.
    .@@.@@.
    .......
    .......

u+0127:
hbar:
    .......
    .......
    .@@....
    @@@@@..
    .@@....
    .@@@@..
    .@@.@@.
    .@@.@@.
    .@@.@@.
    .@@.@@.
    .@@.@@.
    .......
    .......

u+0128:
Itilde:
    .......
    ..@@.@.
    .@.@@..
    .......
    @@@@@@.
    ..@@...
    ..@@...
    ..@@...
    ..@@...
    ..@@...
    @@@@@@.
    .......
    .......

u+0129:
itilde:
    .......
    .......
    ..@@.@.
    .@.@@..
    .......
    .@@@...
    ..@@...
    ..@@...
    ..@@...
    ..@@...
    @@@@@@.
    .......
    .......

u+012a:
Imacron:
    .......
    .......
    @@@@@@.
    .......
    @@@@@@.
    ..@@...
    ..@@...
    ..@@...
    ..@@...
    ..@@...
    @@@@@@.
    .......
    .......

u+012b:
imacron:
    .......
    .......
    .......
    @@@@@@.
    .......
    .@@@...
    ..@@...
    ..@@...
    ..@@...
    ..@@...
    @@@@@@.
    .......
    .......

u+012c:
Ibreve:
    .......
    @@..@@.
    .@@@@..
    .......
    @@@@@@.
    ..@@...
    ..@@...
    ..@@...
    ..@@...
    ..@@...
    @@@@@@.
    .......
    .......

u+012d:
ibreve:
    .......
    .......
    @@..@@.
    .@@@@..
    .......
    .@@@...
    ..@@...
    ..@@...
    ..@@...
    ..@@...
    @@@@@@.
    .......
    .......

u+012e:
Iogonek:
    .......
    .......
    @@@@@@.
    ..@@...
    ..@@...
    ..@@...
    ..@@...
    ..@@...
    ..@@...
    ..@@...
    @@@@@@.
    ..@@...
    ...@@..

u+012f:
iogonek:
    .......
    .......
    ..@@...
    ..@@...
    .......
    .@@@...
    ..@@...
    ..@@...
    ..@@...
    ..@@...
    @@@@@@.
    ..@@...
    ...@@..

u+0130:
Idotaccent:
    .......
    ..@@...
    ..@@...
    .......
    @@@@@@.
    ..@@...
    ..@@...
    ..@@...
    ..@@...
    ..@@...
    @@@@@@.
    .......
    .......

u+0131:
dotlessi:
    .......
    .......
    .......
    .......
    .......
    .@@@...
    ..@@...
    ..@@...
    ..@@...
    ..@@...
    @@@@@@.
    .......
    .......

u+0132:
IJ:
    .......
    .......
    @@.@@@@
    @@..@@.
    @@..@@.
    @@..@@.
    @@..@@.
    @@..@@.
    @@..@@.
    @@@.@@.
    @@.@@..
    .......
    .......

u+0133:
ij:
    .......
    .......
    @@...@@
    @@...@@
    .......
    @@..@@@
    @@...@@
    @@...@@
    @@...@@
    @@...@@
    @@.@.@@
    ...@.@@
    ....@@.

u+0134:
Jcircumflex:
    .......
    ..@@@..
    .@@.@@.
    .......
    ..@@@@.
    ...@@..
    ...@@..
    ...@@..
    ...@@..
    @..@@..
    .@@@...
    .......
    .......

u+0135:
jcircumflex:
    .......
    .......
    ..@@@..
    .@@.@@.
    .......
    ..@@@..
    ...@@..
    ...@@..
    ...@@..
    ...@@..
    @@.@@..
    @@.@@..
    .@@@...

u+0136:
Kcommaaccent:
    .......
    .......
    @@...@@
    @@..@@.
    @@.@@..
    @@@@...
    @@@....
    @@@@...
    @@.@@..
    @@..@@.
    @@...@@
    .@@....
    @@.....

u+0137:
kcommaaccent:
    .......
    .......
    @@.....
    @@.....
    @@.....
    @@..@@.
    @@.@@..
    @@@@...
    @@.@@..
    @@..@@.
    @@...@@
    .@@....
    @@.....

u+0138:
kgreenlandic:
    .......
    .......
    .......
    .......
    @@...@@
    @@..@@.
    @@.@@..
    @@@@...
    @@.@@..
    @@..@@.
    @@...@@
    .......
    .......

u+0139:
Lacute:
    .......
    .@@....
    @@.....
    .......
    @@.....
    @@.....
    @@.....
    @@.....
    @@.....
    @@.....
    @@@@@@.
    .......
    .......

u+013a:
lacute:
    .......
    ...@@..
    ..@@...
    .......
    .@@@...
    ..@@...
    ..@@...
    ..@@...
    ..@@...
    ..@@...
    @@@@@@.
    .......
    .......

u+013b:
Lcommaaccent:
    .......
    .......
    @@.....
    @@.....
    @@.....
    @@.....
    @@.....
    @@.....
    @@.....
    @@.....
    @@@@@@.
    ..@@...
    .@@....

u+013c:
lcommaaccent:
    .......
    .......
    .@@@...
    ..@@...
    ..@@...
    ..@@...
    ..@@...
    ..@@...
    ..@@...
    ..@@...
    @@@@@@.
    ...@@..
    ..@@...

u+013d:
Lcaron:
    .......
    @@.@@..
    .@@@...
    .......
    @@.....
    @@.....
    @@.....
    @@.....
    @@.....
    @@.....
    @@@@@@.
    .......
    .......

u+013e:
lcaron:
    .......
    .@@.@@.
    ..@@@..
    .......
    .@@@...
    ..@@...
    ..@@...
    ..@@...
    ..@@...
    ..@@...
    @@@@@@.
    .......
    .......

u+013f:
Ldot:
    .......
    .......
    @@.....
    @@.....
    @@.....
    @@.@@..
    @@.@@..
    @@.....
    @@.....
    @@.....
    @@@@@@.
    .......
    .......

u+0140:
ldot:
    .......
    .......
    @@@....
    .@@....
    .@@....
    .@@.@@.
    .@@.@@.
    .@@....
    .@@....
    .@@....
    @@@@@..
    .......
    .......

u+0141:
Lslash:
    .......
    .......
    .@@....
    .@@....
    .@@.@..
    .@@@...
    @@@....
    .@@....
    .@@....
    .@@....
    .@@@@@.
    .......
    .......

u+0142:
lslash:
    .......
    .......
    @@@....
    .@@....
    .@@.@..
    .@@@...
    @@@....
    .@@....
    .@@....
    .@@....
    @@@@@..
    .......
    .......

u+0143:
Nacute:
    .......
    ...@@..
    ..@@...
    .......
    @@..@@.
    @@..@@.
    @@@.@@.
    @@.@@@.
    @@..@@.
    @@..@@.
    @@..@@.
    .......
    .......

u+0144:
nacute:
    .......
    .......
    ...@@..
    ..@@...
    .......
    @@@@@..
    @@..@@.
    @@..@@.
    @@..@@.
    @@..@@.
    @@..@@.
    .......
    .......

u+0145:
Ncommaaccent:
    .......
    .......
    @@..@@.
    @@..@@.
    @@..@@.
    @@@.@@.
    @@.@@@.
    @@..@@.
    @@..@@.
    @@..@@.
    @@..@@.
    .@@....
    @@.....

u+0146:
ncommaaccent:
    .......
    .......
    .......
    .......
    .......
    @@@@@..
    @@..@@.
    @@..@@.
    @@..@@.
    @@..@@.
    @@..@@.
    .@@....
    @@.....

u+0147:
Ncaron:
    .......
    @@.@@..
    .@@@...
    .......
    @@..@@.
    @@..@@.
    @@@.@@.
    @@@.@@.
    @@.@@@.
    @@..@@.
    @@..@@.
    .......
    .......

u+0148:
ncaron:
    .......
    .......
    @@.@@..
    .@@@...
    .......
    @@@@@..
    @@..@@.
    @@..@@.
    @@..@@.
    @@..@@.
    @@..@@.
    .......
    .......

u+0149:
napostrophe:
    .......
    @@@....
    .@@....
    @@.....
    .......
    .@@@@..
    .@@.@@.
    .@@.@@.
    .@@.@@.
    .@@.@@.
    .@@.@@.
    .......
    .......

u+014a:
Eng:
    .......
    .......
    @@..@@.
    @@..@@.
    @@..@@.
    @@@.@@.
    @@.@@@.
    @@..@@.
    @@..@@.
    @@..@@.
    @@..@@.
    ....@@.
    ..@@@..

u+014b:
eng:
    .......
    .......
    .......
    .......
    .......
    @@@@@..
    @@..@@.
    @@..@@.
    @@..@@.
    @@..@@.
    @@..@@.
    ....@@.
    ...@@..

u+014c:
Omacron:
    .......
    @@@@@@.
    .......
    .@@@@..
    @@..@@.
    @@..@@.
    @@..@@.
    @@..@@.
    @@..@@.
    @@..@@.
    .@@@@..
    .......
    .......

u+014d:
omacron:
    .......
    .......
    .......
    @@@@@@.
    .......
    .@@@@..
    @@..@@.
    @@..@@.
    @@..@@.
    @@..@@.
    .@@@@..
    .......
    .......

u+014e:
Obreve:
    .......
    @@..@@.
    .@@@@..
    .......
    .@@@@..
    @@..@@.
    @@..@@.
    @@..@@.
    @@..@@.
    @@..@@.
    .@@@@..
    .......
    .......

u+014f:
obreve:
    .......
    .......
    @@..@@.
    .@@@@..
    .......
    .@@@@..
    @@..@@.
    @@..@@.
    @@..@@.
    @@..@@.
    .@@@@..
    .......
    .......

u+0150:
Ohungarumlaut:
    .......
    .@@..@@
    @@..@@.
    .......
    .@@@@..
    @@..@@.
    @@..@@.
    @@..@@.
    @@..@@.
    @@..@@.
    .@@@@..
    .......
    .......

u+0151:
ohungarumlaut:
    .......
    .......
    .@@..@@
    @@..@@.
    .......
    .@@@@..
    @@..@@.
    @@..@@.
    @@..@@.
    @@..@@.
    .@@@@..
    .......
    .......

u+0152:
OE:
    .......
    .......
    .@@@@@.
    @@.@@..
    @@.@@..
    @@.@@..
    @@.@@@.
    @@.@@..
    @@.@@..
    @@.@@..
    .@@@@@.
    .......
    .......

u+0153:
oe:
    .......
    .......
    .......
    .......
    .......
    .@@.@@.
    @@.@@.@
    @@.@@@@
    @@.@@..
    @@.@@.@
    .@@.@@.
    .......
    .......

u+0154:
Racute:
    .......
    ...@@..
    ..@@...
    .......
    @@@@@..
    @@..@@.
    @@..@@.
    @@@@@..
    @@@@...
    @@.@@..
    @@..@@.
    .......
    .......

u+0155:
racute:
    .......
    .......
    ...@@..
    ..@@...
    .......
    @@@@@..
    .@@.@@.
    .@@....
    .@@....
    .@@....
    .@@....
    .......
    .......

u+0156:
Rcommaaccent:
    .......
    .......
    @@@@@..
    @@..@@.
    @@..@@.
    @@..@@.
    @@@@@..
    @@@@...
    @@.@@..
    @@..@@.
    @@...@@
    .@@....
    @@.....

u+0157:
rcommaaccent:
    .......
    .......
    .......
    .......
    .......
    @@@@@..
    .@@.@@.
    .@@....
    .@@....
    .@@....
    .@@....
    .@@....
    @@.....

u+0158:
Rcaron:
    .......
    @@.@@..
    .@@@...
    .......
    @@@@@..
    @@..@@.
    @@..@@.
    @@@@@..
    @@.@@..
    @@..@@.
    @@...@@
    .......
    .......

u+0159:
rcaron:
    .......
    .......
    .@@.@@.
    ..@@@..
    .......
    @.@@@..
    .@@.@@.
    .@@....
    .@@....
    .@@....
    .@@....
    .......
    .......

u+015a:
Sacute:
    .......
    ...@@..
    ..@@...
    .......
    .@@@@..
    @@..@@.
    @@.....
    .@@@@..
    ....@@.
    @@..@@.
    .@@@@..
    .......
    .......

u+015b:
sacute:
    .......
    .......
    ...@@..
    ..@@...
    .......
    .@@@@..
    @@..@@.
    .@@....
    ...@@..
    @@..@@.
    .@@@@..
    .......
    .......

u+015c:
Scircumflex:
    .......
    ..@@@..
    .@@.@@.
    .......
    .@@@@..
    @@..@@.
    @@.....
    .@@@@..
    ....@@.
    @@..@@.
    .@@@@..
    .......
    .......

u+015d:
scircumflex:
    .......
    .......
    ..@@@..
    .@@.@@.
    .......
    .@@@@..
    @@..@@.
    .@@....
    ...@@..
    @@..@@.
    .@@@@..
    .......
    .......

u+015e:
Scedilla:
    .......
    .......
    .@@@@..
    @@..@@.
    @@.....
    @@.....
    .@@@@..
    ....@@.
    ....@@.
    @@..@@.
    .@@@@..
    ...@@..
    ..@@...

u+015f:
scedilla:
    .......
    .......
    .......
    .......
    .......
    .@@@@..
    @@..@@.
    .@@....
    ...@@..
    @@..@@.
    .@@@@..
    ..@@...
    .@@....

u+0160:
Scaron:
    .......
    .@@.@@.
    ..@@@..
    .......
    .@@@@..
    @@..@@.
    @@.....
    .@@@@..
    ....@@.
    @@..@@.
    .@@@@..
    .......
    .......

u+0161:
scaron:
    .......
    .......
    .@@.@@.
    ..@@@..
    .......
    .@@@@..
    @@..@@.
    .@@....
    ...@@..
    @@..@@.
    .@@@@..
    .......
    .......

u+0162:
Tcommaaccent:
    .......
    .......
    @@@@@@.
    ..@@...
    ..@@...
    ..@@...
    ..@@...
    ..@@...
    ..@@...
    ..@@...
    ..@@...
    ...@@..
    ..@@...

u+0163:
tcommaaccent:
    .......
    .......
    .......
    .@@....
    .@@....
    @@@@...
    .@@....
    .@@....
    .@@....
    .@@.@@.
    ..@@@..
    ...@@..
    ..@@...

u+0164:
Tcaron:
    .......
    .@@.@@.
    ..@@@..
    .......
    @@@@@@.
    ..@@...
    ..@@...
    ..@@...
    ..@@...
    ..@@...
    ..@@...
    .......
    .......

u+0165:
tcaron:
    .......
    .@@.@@.
    ..@@@..
    .......
    .@@....
    @@@@...
    .@@....
    .@@....
    .@@....
    .@@.@@.
    ..@@@..
    .......
    .......

u+0166:
Tbar:
    .......
    .......
    @@@@@@.
    ..@@...
    ..@@...
    ..@@...
    @@@@@@.
    ..@@...
    ..@@...
    ..@@...
    ..@@...
    .......
    .......

u+0167:
tbar:
    .......
    .......
    .@@....
    @@@@@..
    .@@....
    .@@....
    @@@@@..
    .@@....
    .@@....
    .@@.@@.
    ..@@@..
    .......
    .......

u+0168:
Utilde:
    .......
    ..@@.@.
    .@.@@..
    .......
    @@..@@.
    @@..@@.
    @@..@@.
    @@..@@.
    @@..@@.
    @@..@@.
    .@@@@..
    .......
    .......

u+0169:
utilde:
    .......
    .......
    ..@@.@.
    .@.@@..
    .......
    @@..@@.
    @@..@@.
    @@..@@.
    @@..@@.
    @@..@@.
    .@@@@@.
    .......
    .......

u+016a:
Umacron:
    .......
    @@@@@@.
    .......
    @@..@@.
    @@..@@.
    @@..@@.
    @@..@@.
    @@..@@.
    @@..@@.
    @@..@@.
    .@@@@..
    .......
    .......

u+016b:
umacron:
    .......
    .......
    .......
    @@@@@@.
    .......
    @@..@@.
    @@..@@.
    @@..@@.
    @@..@@.
    @@..@@.
    .@@@@@.
    .......
    .......

u+016c:
Ubreve:
    .......
    @@..@@.
    .@@@@..
    .......
    @@..@@.
    @@..@@.
    @@..@@.
    @@..@@.
    @@..@@.
    @@..@@.
    .@@@@..
    .......
    .......

u+016d:
ubreve:
    .......
    .......
    @@..@@.
    .@@@@..
    .......
    @@..@@.
    @@..@@.
    @@..@@.
    @@..@@.
    @@..@@.
    .@@@@@.
    .......
    .......

u+016e:
Uring:
    .......
    .@@@@..
    @@..@@.
    .@@@@..
    @@..@@.
    @@..@@.
    @@..@@.
    @@..@@.
    @@..@@.
    @@..@@.
    .@@@@..
    .......
    .......

u+016f:
uring:
    .......
    .@@@@..
    @@..@@.
    .@@@@..
    .......
    @@..@@.
    @@..@@.
    @@..@@.
    @@..@@.
    @@..@@.
    .@@@@@.
    .......
    .......

u+0170:
Uhungarumlaut:
    .......
    .@@..@@
    @@..@@.
    .......
    @@..@@.
    @@..@@.
    @@..@@.
    @@..@@.
    @@..@@.
    @@..@@.
    .@@@@..
    .......
    .......

u+0171:
uhungarumlaut:
    .......
    .......
    .@@..@@
    @@..@@.
    .......
    @@..@@.
    @@..@@.
    @@..@@.
    @@..@@.
    @@..@@.
    .@@@@@.
    .......
    .......

u+0172:
Uogonek:
    .......
    .......
    @@..@@.
    @@..@@.
    @@..@@.
    @@..@@.
    @@..@@.
    @@..@@.
    @@..@@.
    @@..@@.
    .@@@@..
    ..@@...
    ...@@..

u+0173:
uogonek:
    .......
    .......
    .......
    .......
    .......
    @@..@@.
    @@..@@.
    @@..@@.
    @@..@@.
    @@..@@.
    .@@@@@.
    ..@@...
    ...@@..

u+0174:
Wcircumflex:
    .......
    ..@@@..
    .@@.@@.
    .......
    @@...@@
    @@...@@
    @@...@@
    @@...@@
    @@.@.@@
    @@.@.@@
    @@@.@@@
    .......
    .......

u+0175:
wcircumflex:
    .......
    .......
    ..@@@..
    .@@.@@.
    .......
    @@...@@
    @@...@@
    @@.@.@@
    @@.@.@@
    @@.@.@@
    .@@.@@.
    .......
    .......

u+0176:
Ycircumflex:
    .......
    ..@@@..
    .@@.@@.
    .......
    @@..@@.
    @@..@@.
    .@..@..
    ..@@...
    ..@@...
    ..@@...
    ..@@...
    .......
    .......

u+0177:
ycircumflex:
    .......
    .......
    ..@@@..
    .@@.@@.
    .......
    @@..@@.
    @@..@@.
    @@..@@.
    @@..@@.
    .@@@@@.
    ....@@.
    @@..@@.
    .@@@@..

u+0178:
Ydieresis:
    .......
    @@..@@.
    @@..@@.
    .......
    @@..@@.
    @@..@@.
    .@@@@..
    ..@@...
    ..@@...
    ..@@...
    ..@@...
    .......
    .......

u+0179:
Zacute:
    .......
    ...@@..
    ..@@...
    .......
    @@@@@@.
    ....@@.
    ...@@..
    ..@@...
    .@@....
    @@.....
    @@@@@@.
    .......
    .......

u+017a:
zacute:
    .......
    .......
    ...@@..
    ..@@...
    .......
    @@@@@@.
    ....@@.
    ...@@..
    ..@@...
    .@@....
    @@@@@@.
    .......
    .......

u+017b:
Zdotaccent:
    .......
    ..@@...
    ..@@...
    .......
    @@@@@@.
    ....@@.
    ...@@..
    ..@@...
    .@@....
    @@.....
    @@@@@@.
    .......
    .......

u+017c:
zdotaccent:
    .......
    .......
    ..@@...
    ..@@...
    .......
    @@@@@@.
    ....@@.
    ...@@..
    ..@@...
    .@@....
    @@@@@@.
    .......
    .......

u+017d:
Zcaron:
    .......
    .@@.@@.
    ..@@@..
    .......
    @@@@@@.
    ....@@.
    ...@@..
    ..@@...
    .@@....
    @@.....
    @@@@@@.
    .......
    .......

u+017e:
zcaron:
    .......
    .......
    .@@.@@.
    ..@@@..
    .......
    @@@@@@.
    ....@@.
    ...@@..
    ..@@...
    .@@....
    @@@@@@.
    .......
    .......

u+017f:
longs:
    .......
    .......
    ..@@@..
    .@@.@@.
    .@@....
    @@@....
    .@@....
    .@@....
    .@@....
    .@@....
    .@@....
    .......
    .......

u+018f:
uni018F:
    .......
    .......
    .@@@@..
    @@..@@.
    ....@@.
    ....@@.
    @@@@@@.
    @@..@@.
    @@..@@.
    @@..@@.
    .@@@@..
    .......
    .......

u+0192:
florin:
    .......
    .......
    ...@@@.
    ..@@.@@
    ..@@...
    ..@@...
    .@@@@..
    ..@@...
    ..@@...
    ..@@...
    @.@@...
    .@@....
    .......

u+01a0:
Ohorn:
    .......
    .......
    .@@@@.@
    @@..@@@
    @@..@@@
    @@..@@.
    @@..@@.
    @@..@@.
    @@..@@.
    @@..@@.
    .@@@@..
    .......
    .......

u+01a1:
ohorn:
    .......
    .......
    .......
    .......
    .......
    .@@@@.@
    @@..@@@
    @@..@@@
    @@..@@.
    @@..@@.
    .@@@@..
    .......
    .......

u+01af:
Uhorn:
    .......
    .......
    @@.@@.@
    @@.@@.@
    @@.@@@.
    @@.@@..
    @@.@@..
    @@.@@..
    @@.@@..
    @@.@@..
    .@@@...
    .......
    .......

u+01b0:
uhorn:
    .......
    .......
    .......
    .......
    .......
    @@.@@.@
    @@.@@.@
    @@.@@@.
    @@.@@..
    @@.@@..
    .@@@@..
    .......
    .......

u+0218:
Scommaaccent:
    .......
    .......
    .@@@@..
    @@..@@.
    @@.....
    @@.....
    .@@@@..
    ....@@.
    ....@@.
    @@..@@.
    .@@@@..
    ..@@...
    .@@....

u+0219:
scommaaccent:
    .......
    .......
    .......
    .......
    .......
    .@@@@..
    @@..@@.
    .@@....
    ...@@..
    @@..@@.
    .@@@@..
    ..@@...
    .@@....

u+021a:
Tcommaaccent:
    .......
    .......
    @@@@@@.
    ..@@...
    ..@@...
    ..@@...
    ..@@...
    ..@@...
    ..@@...
    ..@@...
    ..@@...
    ...@@..
    ..@@...

u+021b:
tcommaaccent:
    .......
    .......
    .......
    .@@....
    .@@....
    @@@@...
    .@@....
    .@@....
    .@@....
    .@@.@@.
    ..@@@..
    ..@@...
    .@@....

u+0259:
uni0259:
    .......
    .......
    .......
    .......
    .......
    .@@@@..
    @@..@@.
    ....@@.
    @@@@@@.
    @@..@@.
    .@@@@..
    .......
    .......

u+02bc:
afii57929:
    .......
    .......
    ..@@@..
    ...@@..
    ..@@...
    .......
    .......
    .......
    .......
    .......
    .......
    .......
    .......

u+02bd:
afii64937:
    .......
    .......
    ..@@@..
    ..@@...
    ...@@..
    .......
    .......
    .......
    .......
    .......
    .......
    .......
    .......

u+02c6:
circumflex:
    .......
    ..@@@..
    .@@.@@.
    .......
    .......
    .......
    .......
    .......
    .......
    .......
    .......
    .......
    .......

u+02c7:
caron:
    .......
    .@@.@@.
    ..@@@..
    .......
    .......
    .......
    .......
    .......
    .......
    .......
    .......
    .......
    .......

u+02d8:
breve:
    @@..@@.
    .@@@@..
    .......
    .......
    .......
    .......
    .......
    .......
    .......
    .......
    .......
    .......
    .......

u+02d9:
dotaccent:
    ..@@...
    .......
    .......
    .......
    .......
    .......
    .......
    .......
    .......
    .......
    .......
    .......
    .......

u+02da:
ring:
    ..@@@..
    .@@.@@.
    ..@@@..
    .......
    .......
    .......
    .......
    .......
    .......
    .......
    .......
    .......
    .......

u+02db:
ogonek:
    .......
    .......
    .......
    .......
    .......
    .......
    .......
    .......
    .......
    .......
    .......
    ..@@...
    ..@@@..

u+02dc:
tilde:
    .......
    ..@@.@.
    .@.@@..
    .......
    .......
    .......
    .......
    .......
    .......
    .......
    .......
    .......
    .......

u+02dd:
hungarumlaut:
    .@@..@@
    @@..@@.
    .......
    .......
    .......
    .......
    .......
    .......
    .......
    .......
    .......
    .......
    .......

u+0300:
gravecomb:
    .@@....
    ..@@...
    .......
    .......
    .......
    .......
    .......
    .......
    .......
    .......
    .......
    .......
    .......

u+0301:
acutecomb:
    ...@@..
    ..@@...
    .......
    .......
    .......
    .......
    .......
    .......
    .......
    .......
    .......
    .......
    .......

u+0302:
uni0302:
    ..@@@..
    .@@.@@.
    .......
    .......
    .......
    .......
    .......
    .......
    .......
    .......
    .......
    .......
    .......

u+0303:
tildecomb:
    ..@@.@.
    .@.@@..
    .......
    .......
    .......
    .......
    .......
    .......
    .......
    .......
    .......
    .......
    .......

u+0304:
uni0304:
    .@@@@@.
    .......
    .......
    .......
    .......
    .......
    .......
    .......
    .......
    .......
    .......
    .......
    .......

u+0305:
uni0305:
    @@@@@@@
    .......
    .......
    .......
    .......
    .......
    .......
    .......
    .......
    .......
    .......
    .......
    .......

u+0306:
uni0306:
    @@..@@.
    .@@@@..
    .......
    .......
    .......
    .......
    .......
    .......
    .......
    .......
    .......
    .......
    .......

u+0307:
uni0307:
    ..@@...
    ..@@...
    .......
    .......
    .......
    .......
    .......
    .......
    .......
    .......
    .......
    .......
    .......

u+0308:
uni0308:
    @@..@@.
    @@..@@.
    .......
    .......
    .......
    .......
    .......
    .......
    .......
    .......
    .......
    .......
    .......

u+0309:
hookabovecomb:
    .@@@...
    ...@@..
    ..@@...
    .......
    .......
    .......
    .......
    .......
    .......
    .......
    .......
    .......
    .......

u+030a:
uni030A:
    .@@@@..
    .@..@..
    .@@@@..
    .......
    .......
    .......
    .......
    .......
    .......
    .......
    .......
    .......
    .......

u+030b:
uni030B:
    .@@..@@
    @@..@@.
    .......
    .......
    .......
    .......
    .......
    .......
    .......
    .......
    .......
    .......
    .......

u+030c:
uni030C:
    .@@.@@.
    ..@@@..
    .......
    .......
    .......
    .......
    .......
    .......
    .......
    .......
    .......
    .......
    .......

u+030d:
uni030D:
    ..@@...
    ..@@...
    ..@@...
    ..@@...
    .......
    .......
    .......
    .......
    .......
    .......
    .......
    .......
    .......

u+030e:
uni030E:
    @@..@@.
    @@..@@.
    @@..@@.
    @@..@@.
    .......
    .......
    .......
    .......
    .......
    .......
    .......
    .......
    .......

u+030f:
uni030F:
    @@..@@.
    .@@..@@
    .......
    .......
    .......
    .......
    .......
    .......
    .......
    .......
    .......
    .......
    .......

u+0310:
uni0310:
    ...@...
    .@...@.
    ..@@@..
    .......
    .......
    .......
    .......
    .......
    .......
    .......
    .......
    .......
    .......

u+0311:
uni0311:
    .@@@@..
    @@..@@.
    .......
    .......
    .......
    .......
    .......
    .......
    .......
    .......
    .......
    .......
    .......

u+0323:
dotbelowcomb:
    ..@@...
    ..@@...
    .......
    .......
    .......
    .......
    .......
    .......
    .......
    .......
    .......
    .......
    .......

u+0324:
uni0324:
    @@..@@.
    @@..@@.
    .......
    .......
    .......
    .......
    .......
    .......
    .......
    .......
    .......
    .......
    .......

u+0340:
uni0340:
    .@@....
    ..@@...
    .......
    .......
    .......
    .......
    .......
    .......
    .......
    .......
    .......
    .......
    .......

u+0341:
uni0341:
    ...@@..
    ..@@...
    .......
    .......
    .......
    .......
    .......
    .......
    .......
    .......
    .......
    .......
    .......

u+0374:
uni0374:
    .......
    .......
    ...@@..
    ..@@...
    .......
    .......
    .......
    .......
    .......
    .......
    .......
    .......
    .......

u+0375:
uni0375:
    .......
    .......
    .......
    .......
    .......
    .......
    .......
    .......
    .......
    .......
    .......
    ...@@..
    ..@@...

u+037a:
uni037A:
    .......
    .......
    .......
    .......
    .......
    .......
    .......
    .......
    .......
    .......
    .......
    ..@@...
    ..@@@..

u+037e:
uni037E:
    .......
    .......
    .......
    .......
    ..@@...
    .@@@@..
    ..@@...
    .......
    ..@@@..
    ..@@@..
    ..@@...
    .@@....
    .......

u+0384:
tonos:
    .......
    .......
    ...@@..
    ..@@...
    .......
    .......
    .......
    .......
    .......
    .......
    .......
    .......
    .......

u+0385:
dieresistonos:
    .......
    ...@@..
    @.@@.@.
    @....@.
    .......
    .......
    .......
    .......
    .......
    .......
    .......
    .......
    .......

u+0386:
Alphatonos:
    .......
    .......
    @.@@@..
    @@@.@@.
    .@@.@@.
    .@@.@@.
    .@@@@@.
    .@@.@@.
    .@@.@@.
    .@@.@@.
    .@@.@@.
    .......
    .......

u+0387:
anoteleia:
    .......
    .......
    .......
    .......
    .......
    ..@@...
    ..@@...
    .......
    .......
    .......
    .......
    .......
    .......

u+0388:
Epsilontonos:
    .......
    .......
    @@@@@@.
    @@@....
    .@@....
    .@@....
    .@@@@..
    .@@....
    .@@....
    .@@....
    .@@@@@.
    .......
    .......

u+0389:
Etatonos:
    .......
    .......
    @@@.@@.
    @@@.@@.
    .@@.@@.
    .@@.@@.
    .@@@@@.
    .@@.@@.
    .@@.@@.
    .@@.@@.
    .@@.@@.
    .......
    .......

u+038a:
Iotatonos:
    .......
    .......
    @.@@@@.
    @..@@..
    ...@@..
    ...@@..
    ...@@..
    ...@@..
    ...@@..
    ...@@..
    ..@@@@.
    .......
    .......

u+038c:
Omicrontonos:
    .......
    .......
    @.@@@..
    @@@.@@.
    .@@.@@.
    .@@.@@.
    .@@.@@.
    .@@.@@.
    .@@.@@.
    .@@.@@.
    ..@@@..
    .......
    .......

u+038e:
Upsilontonos:
    .......
    .......
    @.@..@.
    @.@..@.
    ..@@@@.
    ..@@@@.
    ...@@..
    ...@@..
    ...@@..
    ...@@..
    ...@@..
    .......
    .......

u+038f:
Omegatonos:
    .......
    .......
    @.@@@..
    @@@.@@.
    .@@.@@.
    .@@.@@.
    .@@.@@.
    .@@.@@.
    ..@.@..
    ..@.@..
    .@@.@@.
    .......
    .......

u+0390:
iotadieresistonos:
    .......
    ...@@..
    @.@@.@.
    @....@.
    .......
    ..@@...
    ..@@...
    ..@@...
    ..@@...
    ..@@@@.
    ...@@..
    .......
    .......

u+0391:
Alpha:
    .......
    .......
    .@@@@..
    @@..@@.
    @@..@@.
    @@..@@.
    @@@@@@.
    @@..@@.
    @@..@@.
    @@..@@.
    @@..@@.
    .......
    .......

u+0392:
Beta:
    .......
    .......
    @@@@@..
    @@..@@.
    @@..@@.
    @@..@@.
    @@@@@..
    @@..@@.
    @@..@@.
    @@..@@.
    @@@@@..
    .......
    .......

u+0393:
Gamma:
    .......
    .......
    @@@@@@.
    @@.....
    @@.....
    @@.....
    @@.....
    @@.....
    @@.....
    @@.....
    @@.....
    .......
    .......

u+0394:
Delta:
    .......
    .......
    ..@@...
    ..@@...
    ..@@...
    .@@@@..
    .@..@..
    .@..@..
    @@..@@.
    @@..@@.
    @@@@@@.
    .......
    .......

u+0395:
Epsilon:
    .......
    .......
    @@@@@@.
    @@.....
    @@.....
    @@.....
    @@@@@..
    @@.....
    @@.....
    @@.....
    @@@@@@.
    .......
    .......

u+0396:
Zeta:
    .......
    .......
    @@@@@@.
    ....@@.
    ....@@.
    ...@@..
    ..@@...
    .@@....
    @@.....
    @@.....
    @@@@@@.
    .......
    .......

u+0397:
Eta:
    .......
    .......
    @@..@@.
    @@..@@.
    @@..@@.
    @@..@@.
    @@@@@@.
    @@..@@.
    @@..@@.
    @@..@@.
    @@..@@.
    .......
    .......

u+0398:
Theta:
    .......
    .......
    .@@@@..
    @@..@@.
    @@..@@.
    @@..@@.
    @@@@@@.
    @@..@@.
    @@..@@.
    @@..@@.
    .@@@@..
    .......
    .......

u+0399:
Iota:
    .......
    .......
    @@@@@@.
    ..@@...
    ..@@...
    ..@@...
    ..@@...
    ..@@...
    ..@@...
    ..@@...
    @@@@@@.
    .......
    .......

u+039a:
Kappa:
    .......
    .......
    @@...@.
    @@..@@.
    @@.@@..
    @@@@...
    @@@....
    @@@@...
    @@.@@..
    @@..@@.
    @@...@.
    .......
    .......

u+039b:
Lambda:
    .......
    .......
    ..@@...
    ..@@...
    ..@@...
    .@@@@..
    .@..@..
    .@..@..
    @@..@@.
    @@..@@.
    @@..@@.
    .......
    .......

u+039c:
Mu:
    .......
    .......
    @....@.
    @@..@@.
    @@@@@@.
    @@@@@@.
    @@..@@.
    @@..@@.
    @@..@@.
    @@..@@.
    @@..@@.
    .......
    .......

u+039d:
Nu:
    .......
    .......
    @@..@@.
    @@..@@.
    @@@.@@.
    @@@.@@.
    @@@@@@.
    @@.@@@.
    @@.@@@.
    @@..@@.
    @@..@@.
    .......
    .......

u+039e:
Xi:
    .......
    .......
    @@@@@@.
    .......
    .......
    .......
    .@@@@..
    .......
    .......
    .......
    @@@@@@.
    .......
    .......

u+039f:
Omicron:
    .......
    .......
    .@@@@..
    @@..@@.
    @@..@@.
    @@..@@.
    @@..@@.
    @@..@@.
    @@..@@.
    @@..@@.
    .@@@@..
    .......
    .......

u+03a0:
Pi:
    .......
    .......
    @@@@@@.
    @@..@@.
    @@..@@.
    @@..@@.
    @@..@@.
    @@..@@.
    @@..@@.
    @@..@@.
    @@..@@.
    .......
    .......

u+03a1:
Rho:
    .......
    .......
    @@@@@..
    @@..@@.
    @@..@@.
    @@..@@.
    @@@@@..
    @@.....
    @@.....
    @@.....
    @@.....
    .......
    .......

u+03a3:
Sigma:
    .......
    .......
    @@@@@@.
    @@.....
    .@@....
    ..@@...
    ..@@...
    .@@....
    @@.....
    @@.....
    @@@@@@.
    .......
    .......

u+03a4:
Tau:
    .......
    .......
    @@@@@@.
    ..@@...
    ..@@...
    ..@@...
    ..@@...
    ..@@...
    ..@@...
    ..@@...
    ..@@...
    .......
    .......

u+03a5:
Upsilon:
    .......
    .......
    @@..@@.
    @@..@@.
    .@@@@..
    .@@@@..
    ..@@...
    ..@@...
    ..@@...
    ..@@...
    ..@@...
    .......
    .......

u+03a6:
Phi:
    .......
    .......
    ..@@...
    .@@@@..
    @@@@@@.
    @.@@.@.
    @.@@.@.
    @.@@.@.
    @@@@@@.
    .@@@@..
    ..@@...
    .......
    .......

u+03a7:
Chi:
    .......
    .......
    @....@.
    @@..@@.
    .@..@..
    .@@@@..
    ..@@...
    .@@@@..
    .@..@..
    @@..@@.
    @....@.
    .......
    .......

u+03a8:
Psi:
    .......
    .......
    @@..@@.
    @@..@@.
    @@@@@@.
    @@@@@@.
    @@@@@@.
    @@@@@@.
    .@@@@..
    ..@@...
    ..@@...
    .......
    .......

u+03a9:
Omega:
    .......
    .......
    .@@@@..
    @@..@@.
    @@..@@.
    @@..@@.
    @@..@@.
    @@..@@.
    .@..@..
    .@..@..
    @@..@@.
    .......
    .......

u+03aa:
Iotadieresis:
    .......
    @@..@@.
    @@..@@.
    .......
    @@@@@@.
    ..@@...
    ..@@...
    ..@@...
    ..@@...
    ..@@...
    @@@@@@.
    .......
    .......

u+03ab:
Upsilondieresis:
    .......
    @@..@@.
    @@..@@.
    .......
    @@..@@.
    .@..@..
    .@@@@..
    ..@@...
    ..@@...
    ..@@...
    ..@@...
    .......
    .......

u+03ac:
alphatonos:
    .......
    .......
    ...@@..
    ..@@...
    .......
    .@@@@..
    @@..@@.
    @@..@@.
    @@..@@.
    @@.@@@.
    .@@.@@.
    .......
    .......

u+03ad:
epsilontonos:
    .......
    .......
    ...@@..
    ..@@...
    .......
    .@@@@..
    @@..@@.
    .@@@...
    @@.....
    @@..@@.
    .@@@@..
    .......
    .......

u+03ae:
etatonos:
    .......
    .......
    ...@@..
    ..@@...
    .......
    @@@@@..
    @@..@@.
    @@..@@.
    @@..@@.
    @@..@@.
    @@..@@.
    ....@@.
    ....@@.

u+03af:
iotatonos:
    .......
    .......
    ..@@...
    .@@....
    .......
    .@@....
    .@@....
    .@@....
    .@@....
    .@@@@..
    ..@@...
    .......
    .......

u+03b0:
upsilondieresistonos:
    .......
    ...@@..
    @.@@.@.
    @....@.
    .......
    @@..@@.
    @@..@@.
    @@..@@.
    @@..@@.
    @@..@@.
    .@@@@..
    .......
    .......

u+03b1:
alpha:
    .......
    .......
    .......
    .......
    .......
    .@@@@..
    @@..@@.
    @@..@@.
    @@..@@.
    @@.@@@.
    .@@.@@.
    .......
    .......

u+03b2:
beta:
    .......
    .......
    .@@@...
    @@.@@..
    @@.@@..
    @@@@@..
    @@..@@.
    @@..@@.
    @@..@@.
    @@@.@@.
    @@@@@..
    @@.....
    @@.....

u+03b3:
gamma:
    .......
    .......
    .......
    .......
    .......
    @@..@@.
    @@..@@.
    .@@@@..
    .@@@@..
    ..@@...
    ..@@...
    ..@@...
    ..@@...

u+03b4:
delta:
    .......
    .......
    .@@@@..
    @@..@@.
    .@@....
    .@@@@..
    @@..@@.
    @@..@@.
    @@..@@.
    @@..@@.
    .@@@@..
    .......
    .......

u+03b5:
epsilon:
    .......
    .......
    .......
    .......
    .......
    .@@@@..
    @@..@@.
    .@@@...
    @@.....
    @@..@@.
    .@@@@..
    .......
    .......

u+03b6:
zeta:
    .......
    .......
    @@@@@@.
    ..@@...
    .@@....
    .@@....
    @@.....
    @@.....
    @@.....
    @@.....
    .@@@@..
    ....@@.
    ..@@@..

u+03b7:
eta:
    .......
    .......
    .......
    .......
    .......
    @@@@@..
    @@..@@.
    @@..@@.
    @@..@@.
    @@..@@.
    @@..@@.
    ....@@.
    ....@@.

u+03b8:
theta:
    .......
    .......
    .@@@...
    @@.@@..
    @@.@@..
    @@.@@..
    @@@@@..
    @@.@@..
    @@.@@..
    @@.@@..
    .@@@...
    .......
    .......

u+03b9:
iota:
    .......
    .......
    .......
    .......
    .......
    .@@....
    .@@....
    .@@....
    .@@....
    .@@@@..
    ..@@...
    .......
    .......

u+03ba:
kappa:
    .......
    .......
    .......
    .......
    .......
    @@..@@.
    @@.@@..
    @@@@...
    @@@@...
    @@.@@..
    @@..@@.
    .......
    .......

u+03bb:
lambda:
    .......
    .......
    .@@@@..
    @@..@@.
    ....@@.
    .@@@@@.
    @@..@@.
    @@..@@.
    @@..@@.
    @@..@@.
    @@..@@.
    .......
    .......

u+03bc:
mu:
    .......
    .......
    .......
    .......
    .......
    @@..@@.
    @@..@@.
    @@..@@.
    @@..@@.
    @@..@@.
    @@@@@@.
    @@.....
    @@.....

u+03bd:
nu:
    .......
    .......
    .......
    .......
    .......
    @@..@@.
    @@..@@.
    @@..@@.
    .@@@@..
    .@@@@..
    ..@@...
    .......
    .......

u+03be:
xi:
    .......
    .......
    @@@@@@.
    ..@@...
    .@@....
    .@@....
    ..@@@..
    .@@....
    @@.....
    @@.....
    .@@@@..
    ....@@.
    ..@@@..

u+03bf:
omicron:
    .......
    .......
    .......
    .......
    .......
    .@@@@..
    @@..@@.
    @@..@@.
    @@..@@.
    @@..@@.
    .@@@@..
    .......
    .......

u+03c0:
pi:
    .......
    .......
    .......
    .......
    .......
    @@@@@@.
    @@..@@.
    @@..@@.
    @@..@@.
    @@..@@.
    @@..@@.
    .......
    .......

u+03c1:
rho:
    .......
    .......
    .......
    .......
    .......
    .@@@@..
    @@..@@.
    @@..@@.
    @@..@@.
    @@..@@.
    @@@@@..
    @@.....
    @@.....

u+03c2:
sigma1:
    .......
    .......
    .......
    .......
    .......
    .@@@@..
    @@..@@.
    @@.....
    @@.....
    @@.....
    .@@@@..
    ....@@.
    ..@@@..

u+03c3:
sigma:
    .......
    .......
    .......
    .......
    .......
    .@@@@@.
    @@.@@..
    @@..@@.
    @@..@@.
    @@..@@.
    .@@@@..
    .......
    .......

u+03c4:
tau:
    .......
    .......
    .......
    .......
    .......
    @@@@@@.
    ..@@...
    ..@@...
    ..@@...
    ..@@@@.
    ...@@..
    .......
    .......

u+03c5:
upsilon:
    .......
    .......
    .......
    .......
    .......
    @@..@@.
    @@..@@.
    @@..@@.
    @@..@@.
    @@..@@.
    .@@@@..
    .......
    .......

u+03c6:
phi:
    .......
    .......
    .......
    .......
    .......
    .@@@@..
    @@@@@@.
    @.@@.@.
    @.@@.@.
    @@@@@@.
    .@@@@..
    ..@@...
    ..@@...

u+03c7:
chi:
    .......
    .......
    .......
    .......
    .......
    @@..@@.
    @@..@@.
    .@@@@..
    ..@@...
    ..@@...
    .@@@@..
    @@..@@.
    @@..@@.

u+03c8:
psi:
    .......
    .......
    .......
    .......
    .......
    @@..@@.
    @@..@@.
    @@@@@@.
    @@@@@@.
    @@@@@@.
    .@@@@..
    ..@@...
    ..@@...

u+03c9:
omega:
    .......
    .......
    .......
    .......
    .......
    @@..@@.
    @@..@@.
    @@..@@.
    @@@@@@.
    @@@@@@.
    .@..@..
    .......
    .......

u+03ca:
iotadieresis:
    .......
    .......
    @@..@@.
    @@..@@.
    .......
    ..@@...
    ..@@...
    ..@@...
    ..@@...
    ..@@@@.
    ...@@..
    .......
    .......

u+03cb:
upsilondieresis:
    .......
    .......
    @@..@@.
    @@..@@.
    .......
    @@..@@.
    @@..@@.
    @@..@@.
    @@..@@.
    @@..@@.
    .@@@@..
    .......
    .......

u+03cc:
omicrontonos:
    .......
    .......
    ...@@..
    ..@@...
    .......
    .@@@@..
    @@..@@.
    @@..@@.
    @@..@@.
    @@..@@.
    .@@@@..
    .......
    .......

u+03cd:
upsilontonos:
    .......
    .......
    ...@@..
    ..@@...
    .......
    @@..@@.
    @@..@@.
    @@..@@.
    @@..@@.
    @@..@@.
    .@@@@..
    .......
    .......

u+03ce:
omegatonos:
    .......
    .......
    ...@@..
    ..@@...
    .......
    @@..@@.
    @@..@@.
    @@..@@.
    @@@@@@.
    @@@@@@.
    .@..@..
    .......
    .......

u+03d0:
uni03D0:
    .......
    .......
    .@@@...
    @@.@@..
    @@.@@..
    @@@@@..
    @@..@@.
    @@..@@.
    @@..@@.
    @@..@@.
    .@@@@..
    .......
    .......

u+03d1:
theta1:
    .......
    .......
    .@@@...
    @@.@@..
    @@.@@..
    .@@@@@.
    ...@@..
    @@.@@..
    @@.@@..
    @@.@@..
    .@@@...
    .......
    .......

u+03d2:
Upsilon1:
    .......
    .......
    .@..@..
    @@@@@@.
    @.@@.@.
    ..@@...
    ..@@...
    ..@@...
    ..@@...
    ..@@...
    ..@@...
    .......
    .......

u+03d3:
uni03D3:
    .......
    .......
    .@..@..
    @@@@@@.
    @.@@.@.
    ..@@...
    @.@@...
    @.@@...
    ..@@...
    ..@@...
    ..@@...
    .......
    .......

u+03d4:
uni03D4:
    .......
    @@..@@.
    @@..@@.
    .......
    .@..@..
    @@@@@@.
    @.@@.@.
    ..@@...
    ..@@...
    ..@@...
    ..@@...
    .......
    .......

u+03d5:
phi1:
    .......
    .......
    .......
    ..@@...
    ..@@...
    .@@@@..
    @@@@@@.
    @.@@.@.
    @.@@.@.
    @@@@@@.
    .@@@@..
    ..@@...
    ..@@...

u+03d6:
omega1:
    .......
    .......
    .......
    .......
    .......
    @@@@@@.
    @@..@@.
    @@..@@.
    @@@@@@.
    @@@@@@.
    .@..@..
    .......
    .......

u+03d7:
uni03D7:
    .......
    .......
    ...@@..
    ..@@...
    .......
    @@..@@.
    @@.@@..
    .@@@...
    .@@@.@.
    @@.@@@.
    @@..@@.
    ....@@.
    ..@@@..

u+03da:
uni03DA:
    .......
    .......
    ..@@@..
    .@@.@@.
    @@.....
    @@.....
    @@.....
    @@.....
    @@.....
    .@@@@..
    ....@@.
    ...@@..
    .......

u+03db:
uni03DB:
    .......
    .......
    .......
    .......
    ....@@.
    .@@@@..
    @@.....
    @@.....
    @@.....
    @@.....
    .@@@@..
    ....@@.
    ..@@@..

u+03dc:
uni03DC:
    .......
    .......
    @@@@@@.
    @@.....
    @@.....
    @@.....
    @@@@@..
    @@.....
    @@.....
    @@.....
    @@.....
    .......
    .......

u+03dd:
uni03DD:
    .......
    .......
    .......
    .......
    .......
    @@@@@..
    @@.....
    @@.....
    @@@@...
    @@.....
    @@.....
    @@.....
    @@.....

u+03de:
uni03DE:
    .......
    .......
    @@.....
    @@.....
    @@..@@.
    @@.@@@.
    @@@@@@.
    @@@.@@.
    @@..@@.
    ....@@.
    ....@@.
    .......
    .......

u+03df:
uni03DF:
    .......
    .......
    ..@@...
    ..@@...
    .@@....
    .@@....
    @@.....
    @@@@@@.
    ....@@.
    ...@@..
    ...@@..
    ..@@...
    ..@@...

u+03e0:
uni03E0:
    .......
    .......
    ..@@...
    ..@@...
    ..@@...
    .@@@@..
    .@..@..
    .@.@@..
    @@.@@@.
    @.@.@@.
    @.@.@@.
    .......
    .......

u+03e1:
uni03E1:
    .......
    .......
    @@@....
    ..@@...
    ...@@..
    ..@@@..
    .@@.@@.
    @@.@@@.
    ..@@@@.
    .@@.@@.
    ....@@.
    ....@@.
    ....@@.

u+03f0:
uni03F0:
    .......
    .......
    .......
    .......
    .......
    @@..@@.
    @@.@@..
    .@@@...
    .@@@...
    @@.@@..
    @@..@@.
    .......
    .......

u+03f1:
uni03F1:
    .......
    .......
    .......
    .......
    .......
    .@@@@..
    @@..@@.
    @@..@@.
    @@..@@.
    @@..@@.
    @@@@@..
    @@.....
    .@@@@..

u+03f2:
uni03F2:
    .......
    .......
    .......
    .......
    .......
    .@@@@..
    @@...@.
    @@.....
    @@.....
    @@...@.
    .@@@@..
    .......
    .......

u+03f3:
uni03F3:
    .......
    .......
    ....@@.
    ....@@.
    .......
    ....@@.
    ....@@.
    ....@@.
    ....@@.
    ....@@.
    ....@@.
    @@..@@.
    .@@@@..

u+03f4:
uni03F4:
    .......
    .......
    .@@@@..
    @@..@@.
    @@..@@.
    @@..@@.
    @@@@@@.
    @@..@@.
    @@..@@.
    @@..@@.
    .@@@@..
    .......
    .......

u+03f5:
uni03F5:
    .......
    .......
    .......
    .......
    .......
    ..@@@@.
    .@@....
    .@@@@..
    .@@....
    .@@....
    ..@@@@.
    .......
    .......

u+0401:
afii10023:
    .......
    @@..@@.
    @@..@@.
    .......
    @@@@@@.
    @@.....
    @@.....
    @@@@...
    @@.....
    @@.....
    @@@@@@.
    .......
    .......

u+0402:
afii10051:
    .......
    .......
    @@@@@..
    .@@....
    .@@....
    .@@....
    .@@@@..
    .@@.@@.
    .@@.@@.
    .@@.@@.
    .@@.@@.
    ....@@.
    ...@@..

u+0403:
afii10052:
    ...@@..
    ..@@...
    .......
    @@@@@@.
    @@.....
    @@.....
    @@.....
    @@.....
    @@.....
    @@.....
    @@.....
    .......
    .......

u+0404:
afii10053:
    .......
    .......
    ..@@@..
    .@@.@@.
    @@.....
    @@.....
    @@@@...
    @@.....
    @@.....
    .@@.@@.
    ..@@@..
    .......
    .......

u+0405:
afii10054:
    .......
    .......
    .@@@@..
    @@..@@.
    @@.....
    @@.....
    .@@@@..
    ....@@.
    ....@@.
    @@..@@.
    .@@@@..
    .......
    .......

u+0406:
afii10055:
    .......
    .......
    @@@@@@.
    ..@@...
    ..@@...
    ..@@...
    ..@@...
    ..@@...
    ..@@...
    ..@@...
    @@@@@@.
    .......
    .......

u+0407:
afii10056:
    .......
    @@..@@.
    @@..@@.
    .......
    @@@@@@.
    ..@@...
    ..@@...
    ..@@...
    ..@@...
    ..@@...
    @@@@@@.
    .......
    .......

u+0408:
afii10057:
    .......
    .......
    ..@@@@.
    ...@@..
    ...@@..
    ...@@..
    ...@@..
    ...@@..
    ...@@..
    @@.@@..
    .@@@...
    .......
    .......

u+0409:
afii10058:
    .......
    .......
    @@@@@..
    @@.@@..
    @@.@@..
    @@.@@..
    @@.@@@.
    @@.@@.@
    @@.@@.@
    @@.@@.@
    @@.@@@.
    .......
    .......

u+040a:
afii10059:
    .......
    .......
    @@.@@..
    @@.@@..
    @@.@@..
    @@.@@..
    @@@@@@.
    @@.@@.@
    @@.@@.@
    @@.@@.@
    @@.@@@.
    .......
    .......

u+040b:
afii10060:
    .......
    .......
    @@@@...
    .@@....
    .@@....
    .@@....
    .@@@@..
    .@@.@@.
    .@@.@@.
    .@@.@@.
    .@@.@@.
    .......
    .......

u+040c:
afii10061:
    ...@@..
    ..@@...
    .......
    @@..@@.
    @@.@@..
    @@@@...
    @@@....
    @@@@...
    @@.@@..
    @@..@@.
    @@...@@
    .......
    .......

u+040e:
afii10062:
    .@@.@@.
    ..@@@..
    .......
    @@..@@.
    @@..@@.
    @@..@@.
    .@@@@@.
    ....@@.
    ....@@.
    @@..@@.
    .@@@@..
    .......
    .......

u+040f:
afii10145:
    .......
    .......
    @@..@@.
    @@..@@.
    @@..@@.
    @@..@@.
    @@..@@.
    @@..@@.
    @@..@@.
    @@..@@.
    @@@@@@.
    ..@@...
    ..@@...

u+0410:
afii10017:
    .......
    .......
    ..@@...
    .@@@@..
    @@..@@.
    @@..@@.
    @@..@@.
    @@@@@@.
    @@..@@.
    @@..@@.
    @@..@@.
    .......
    .......

u+0411:
afii10018:
    .......
    .......
    @@@@@..
    @@.....
    @@.....
    @@.....
    @@@@@..
    @@..@@.
    @@..@@.
    @@..@@.
    @@@@@..
    .......
    .......

u+0412:
afii10019:
    .......
    .......
    @@@@@..
    @@..@@.
    @@..@@.
    @@..@@.
    @@@@@..
    @@..@@.
    @@..@@.
    @@..@@.
    @@@@@..
    .......
    .......

u+0413:
afii10020:
    .......
    .......
    @@@@@@.
    @@.....
    @@.....
    @@.....
    @@.....
    @@.....
    @@.....
    @@.....
    @@.....
    .......
    .......

u+0414:
afii10021:
    .......
    .......
    ..@@@@@
    ..@@.@@
    ..@@.@@
    .@@..@@
    .@@..@@
    .@@..@@
    @@...@@
    @@...@@
    @@@@@@@
    @@...@@
    .......

u+0415:
afii10022:
    .......
    .......
    @@@@@@.
    @@.....
    @@.....
    @@.....
    @@@@...
    @@.....
    @@.....
    @@.....
    @@@@@@.
    .......
    .......

u+0416:
afii10024:
    .......
    .......
    @@.@.@@
    @@.@.@@
    @@.@.@@
    .@@@@@.
    ..@@@..
    .@@@@@.
    @@.@.@@
    @@.@.@@
    @@.@.@@
    .......
    .......

u+0417:
afii10025:
    .......
    .......
    .@@@@..
    @@..@@.
    ....@@.
    ....@@.
    ..@@@..
    ....@@.
    ....@@.
    @@..@@.
    .@@@@..
    .......
    .......

u+0418:
afii10026:
    .......
    .......
    @@..@@.
    @@..@@.
    @@..@@.
    @@.@@@.
    @@@.@@.
    @@..@@.
    @@..@@.
    @@..@@.
    @@..@@.
    .......
    .......

u+0419:
afii10027:
    @@..@@.
    .@@@@..
    @@..@@.
    @@..@@.
    @@..@@.
    @@.@@@.
    @@@.@@.
    @@..@@.
    @@..@@.
    @@..@@.
    @@..@@.
    .......
    .......

u+041a:
afii10028:
    .......
    .......
    @@...@@
    @@..@@.
    @@.@@..
    @@@@...
    @@@....
    @@@@...
    @@.@@..
    @@..@@.
    @@...@@
    .......
    .......

u+041b:
afii10029:
    .......
    .......
    .@@@@@.
    .@@.@@.
    .@@.@@.
    .@@.@@.
    @@..@@.
    @@..@@.
    @@..@@.
    @@..@@.
    @@..@@.
    .......
    .......

u+041c:
afii10030:
    .......
    .......
    @....@.
    @@..@@.
    @@@@@@.
    @@@@@@.
    @@..@@.
    @@..@@.
    @@..@@.
    @@..@@.
    @@..@@.
    .......
    .......

u+041d:
afii10031:
    .......
    .......
    @@..@@.
    @@..@@.
    @@..@@.
    @@..@@.
    @@@@@@.
    @@..@@.
    @@..@@.
    @@..@@.
    @@..@@.
    .......
    .......

u+041e:
afii10032:
    .......
    .......
    .@@@@..
    @@..@@.
    @@..@@.
    @@..@@.
    @@..@@.
    @@..@@.
    @@..@@.
    @@..@@.
    .@@@@..
    .......
    .......

u+041f:
afii10033:
    .......
    .......
    @@@@@@.
    @@..@@.
    @@..@@.
    @@..@@.
    @@..@@.
    @@..@@.
    @@..@@.
    @@..@@.
    @@..@@.
    .......
    .......

u+0420:
afii10034:
    .......
    .......
    @@@@@..
    @@..@@.
    @@..@@.
    @@..@@.
    @@@@@..
    @@.....
    @@.....
    @@.....
    @@.....
    .......
    .......

u+0421:
afii10035:
    .......
    .......
    .@@@@..
    @@..@@.
    @@.....
    @@.....
    @@.....
    @@.....
    @@.....
    @@..@@.
    .@@@@..
    .......
    .......

u+0422:
afii10036:
    .......
    .......
    @@@@@@.
    ..@@...
    ..@@...
    ..@@...
    ..@@...
    ..@@...
    ..@@...
    ..@@...
    ..@@...
    .......
    .......

u+0423:
afii10037:
    .......
    .......
    @@..@@.
    @@..@@.
    @@..@@.
    @@..@@.
    .@@@@@.
    ....@@.
    ....@@.
    @@..@@.
    .@@@@..
    .......
    .......

u+0424:
afii10038:
    .......
    ...@...
    .@@@@@.
    @@.@.@@
    @@.@.@@
    @@.@.@@
    @@.@.@@
    @@.@.@@
    @@.@.@@
    @@.@.@@
    .@@@@@.
    ...@...
    .......

u+0425:
afii10039:
    .......
    .......
    @....@.
    @@..@@.
    .@..@..
    .@@@@..
    ..@@...
    .@@@@..
    .@..@..
    @@..@@.
    @....@.
    .......
    .......

u+0426:
afii10040:
    .......
    .......
    @@..@@.
    @@..@@.
    @@..@@.
    @@..@@.
    @@..@@.
    @@..@@.
    @@..@@.
    @@..@@.
    @@@@@@.
    ....@@.
    ....@@.

u+0427:
afii10041:
    .......
    .......
    @@..@@.
    @@..@@.
    @@..@@.
    @@..@@.
    .@@@@@.
    ....@@.
    ....@@.
    ....@@.
    ....@@.
    .......
    .......

u+0428:
afii10042:
    .......
    .......
    @@.@.@@
    @@.@.@@
    @@.@.@@
    @@.@.@@
    @@.@.@@
    @@.@.@@
    @@.@.@@
    @@.@.@@
    @@@@@@@
    .......
    .......

u+0429:
afii10043:
    .......
    .......
    @@.@.@@
    @@.@.@@
    @@.@.@@
    @@.@.@@
    @@.@.@@
    @@.@.@@
    @@.@.@@
    @@.@.@@
    @@@@@@@
    .....@@
    .....@@

u+042a:
afii10044:
    .......
    .......
    @@@@...
    ..@@...
    ..@@...
    ..@@...
    ..@@@@.
    ..@@.@@
    ..@@.@@
    ..@@.@@
    ..@@@@.
    .......
    .......

u+042b:
afii10045:
    .......
    .......
    @@...@@
    @@...@@
    @@...@@
    @@...@@
    @@@..@@
    @@.@.@@
    @@.@.@@
    @@.@.@@
    @@@..@@
    .......
    .......

u+042c:
afii10046:
    .......
    .......
    @@.....
    @@.....
    @@.....
    @@.....
    @@@@...
    @@.@@..
    @@.@@..
    @@.@@..
    @@@@...
    .......
    .......

u+042d:
afii10047:
    .......
    .......
    .@@@...
    @@.@@..
    ....@@.
    ....@@.
    ..@@@@.
    ....@@.
    ....@@.
    @@.@@..
    .@@@...
    .......
    .......

u+042e:
afii10048:
    .......
    .......
    @@..@@.
    @@.@.@@
    @@.@.@@
    @@.@.@@
    @@@@.@@
    @@.@.@@
    @@.@.@@
    @@.@.@@
    @@..@@.
    .......
    .......

u+042f:
afii10049:
    .......
    .......
    .@@@@@.
    @@..@@.
    @@..@@.
    @@..@@.
    .@@@@@.
    ...@@@.
    ..@@@@.
    .@@.@@.
    @@..@@.
    .......
    .......

u+0430:
afii10065:
    .......
    .......
    .......
    .......
    .......
    .@@@@..
    ....@@.
    .@@@@@.
    @@..@@.
    @@..@@.
    .@@@@@.
    .......
    .......

u+0431:
afii10066:
    .......
    .......
    ..@@@..
    .@@....
    @@.....
    @@@@@..
    @@..@@.
    @@..@@.
    @@..@@.
    @@..@@.
    @@@@@..
    .......
    .......

u+0432:
afii10067:
    .......
    .......
    .......
    .......
    .......
    @@@@@..
    @@..@@.
    @@@@@..
    @@..@@.
    @@..@@.
    @@@@@..
    .......
    .......

u+0433:
afii10068:
    .......
    .......
    .......
    .......
    .......
    @@@@@..
    @@.....
    @@.....
    @@.....
    @@.....
    @@.....
    .......
    .......

u+0434:
afii10069:
    .......
    .......
    .......
    .......
    .......
    ..@@@@.
    ..@.@@.
    .@@.@@.
    .@@.@@.
    @@..@@.
    @@@@@@.
    @@..@@.
    .......

u+0435:
afii10070:
    .......
    .......
    .......
    .......
    .......
    .@@@@..
    @@..@@.
    @@@@@@.
    @@.....
    @@..@@.
    .@@@@..
    .......
    .......

u+0436:
afii10072:
    .......
    .......
    .......
    .......
    .......
    @@.@.@@
    .@@@@@.
    ..@@@..
    .@@@@@.
    @@.@.@@
    @@.@.@@
    .......
    .......

u+0437:
afii10073:
    .......
    .......
    .......
    .......
    .......
    .@@@@..
    @@..@@.
    ...@@..
    ....@@.
    @@..@@.
    .@@@@..
    .......
    .......

u+0438:
afii10074:
    .......
    .......
    .......
    .......
    .......
    @@..@@.
    @@..@@.
    @@.@@@.
    @@@.@@.
    @@..@@.
    @@..@@.
    .......
    .......

u+0439:
afii10075:
    .......
    .......
    .@@.@@.
    ..@@@..
    .......
    @@..@@.
    @@..@@.
    @@.@@@.
    @@@.@@.
    @@..@@.
    @@..@@.
    .......
    .......

u+043a:
afii10076:
    .......
    .......
    .......
    .......
    .......
    @@..@@.
    @@.@@..
    @@@@...
    @@.@@..
    @@..@@.
    @@..@@.
    .......
    .......

u+043b:
afii10077:
    .......
    .......
    .......
    .......
    .......
    ..@@@@.
    ..@@@@.
    .@@.@@.
    .@@.@@.
    @@..@@.
    @@..@@.
    .......
    .......

u+043c:
afii10078:
    .......
    .......
    .......
    .......
    .......
    @....@.
    @@..@@.
    @@@@@@.
    @@..@@.
    @@..@@.
    @@..@@.
    .......
    .......

u+043d:
afii10079:
    .......
    .......
    .......
    .......
    .......
    @@..@@.
    @@..@@.
    @@@@@@.
    @@..@@.
    @@..@@.
    @@..@@.
    .......
    .......

u+043e:
afii10080:
    .......
    .......
    .......
    .......
    .......
    .@@@@..
    @@..@@.
    @@..@@.
    @@..@@.
    @@..@@.
    .@@@@..
    .......
    .......

u+043f:
afii10081:
    .......
    .......
    .......
    .......
    .......
    @@@@@@.
    @@..@@.
    @@..@@.
    @@..@@.
    @@..@@.
    @@..@@.
    .......
    .......

u+0440:
afii10082:
    .......
    .......
    .......
    .......
    .......
    @@@@@..
    @@..@@.
    @@..@@.
    @@..@@.
    @@@@@..
    @@.....
    @@.....
    @@.....

u+0441:
afii10083:
    .......
    .......
    .......
    .......
    .......
    .@@@@..
    @@..@@.
    @@.....
    @@.....
    @@..@@.
    .@@@@..
    .......
    .......

u+0442:
afii10084:
    .......
    .......
    .......
    .......
    .......
    @@@@@@.
    ..@@...
    ..@@...
    ..@@...
    ..@@...
    ..@@...
    .......
    .......

u+0443:
afii10085:
    .......
    .......
    .......
    .......
    .......
    @@..@@.
    @@..@@.
    @@..@@.
    @@..@@.
    .@@@@@.
    ....@@.
    @@..@@.
    .@@@@..

u+0444:
afii10086:
    .......
    .......
    .......
    ..@@...
    ..@@...
    .@@@@..
    @.@@.@.
    @.@@.@.
    @.@@.@.
    @.@@.@.
    .@@@@..
    ..@@...
    ..@@...

u+0445:
afii10087:
    .......
    .......
    .......
    .......
    .......
    @@..@@.
    @@..@@.
    .@@@@..
    .@@@@..
    @@..@@.
    @@..@@.
    .......
    .......

u+0446:
afii10088:
    .......
    .......
    .......
    .......
    .......
    @@..@@.
    @@..@@.
    @@..@@.
    @@..@@.
    @@..@@.
    @@@@@@.
    ....@@.
    ....@@.

u+0447:
afii10089:
    .......
    .......
    .......
    .......
    .......
    @@..@@.
    @@..@@.
    @@..@@.
    .@@@@@.
    ....@@.
    ....@@.
    .......
    .......

u+0448:
afii10090:
    .......
    .......
    .......
    .......
    .......
    @@.@.@@
    @@.@.@@
    @@.@.@@
    @@.@.@@
    @@.@.@@
    @@@@@@@
    .......
    .......

u+0449:
afii10091:
    .......
    .......
    .......
    .......
    .......
    @@.@.@@
    @@.@.@@
    @@.@.@@
    @@.@.@@
    @@.@.@@
    @@@@@@@
    .....@@
    .....@@

u+044a:
afii10092:
    .......
    .......
    .......
    .......
    .......
    @@@@...
    ..@@...
    ..@@@@.
    ..@@.@@
    ..@@.@@
    ..@@@@.
    .......
    .......

u+044b:
afii10093:
    .......
    .......
    .......
    .......
    .......
    @@...@@
    @@...@@
    @@@..@@
    @@.@.@@
    @@.@.@@
    @@@..@@
    .......
    .......

u+044c:
afii10094:
    .......
    .......
    .......
    .......
    .......
    @@.....
    @@.....
    @@@@...
    @@.@@..
    @@.@@..
    @@@@...
    .......
    .......

u+044d:
afii10095:
    .......
    .......
    .......
    .......
    .......
    .@@@@..
    @@..@@.
    ...@@@.
    ....@@.
    @@..@@.
    .@@@@..
    .......
    .......

u+044e:
afii10096:
    .......
    .......
    .......
    .......
    .......
    @@..@@.
    @@.@.@@
    @@@@.@@
    @@.@.@@
    @@.@.@@
    @@..@@.
    .......
    .......

u+044f:
afii10097:
    .......
    .......
    .......
    .......
    .......
    .@@@@@.
    @@..@@.
    .@@@@@.
    ..@@@@.
    .@@.@@.
    @@..@@.
    .......
    .......

u+0451:
afii10071:
    .......
    .......
    .@@.@@.
    .@@.@@.
    .......
    .@@@@..
    @@..@@.
    @@@@@@.
    @@.....
    @@..@@.
    .@@@@..
    .......
    .......

u+0452:
afii10099:
    .......
    .......
    .......
    .@@....
    .@@....
    @@@@...
    .@@....
    .@@@@..
    .@@.@@.
    .@@.@@.
    .@@.@@.
    ....@@.
    ...@@..

u+0453:
afii10100:
    .......
    .......
    ...@@..
    ..@@...
    .......
    @@@@@..
    @@.....
    @@.....
    @@.....
    @@.....
    @@.....
    .......
    .......

u+0454:
afii10101:
    .......
    .......
    .......
    .......
    .......
    .@@@@..
    @@..@@.
    @@@....
    @@.....
    @@..@@.
    .@@@@..
    .......
    .......

u+0455:
afii10102:
    .......
    .......
    .......
    .......
    .......
    .@@@@..
    @@..@@.
    .@@....
    ...@@..
    @@..@@.
    .@@@@..
    .......
    .......

u+0456:
afii10103:
    .......
    .......
    ..@@...
    ..@@...
    .......
    .@@@...
    ..@@...
    ..@@...
    ..@@...
    ..@@...
    @@@@@@.
    .......
    .......

u+0457:
afii10104:
    .......
    .......
    @@.@@..
    @@.@@..
    .......
    .@@@...
    ..@@...
    ..@@...
    ..@@...
    ..@@...
    @@@@@@.
    .......
    .......

u+0458:
afii10105:
    .......
    .......
    ....@@.
    ....@@.
    .......
    ....@@.
    ....@@.
    ....@@.
    ....@@.
    ....@@.
    .@@.@@.
    .@@.@@.
    ..@@@..

u+0459:
afii10106:
    .......
    .......
    .......
    .......
    .......
    @@@@...
    @@.@...
    @@.@@@.
    @@.@.@@
    @@.@.@@
    @@.@@@.
    .......
    .......

u+045a:
afii10107:
    .......
    .......
    .......
    .......
    .......
    @@.@...
    @@.@...
    @@@@@@.
    @@.@.@@
    @@.@.@@
    @@.@@@.
    .......
    .......

u+045b:
afii10108:
    .......
    .......
    .......
    .@@....
    .@@....
    @@@@...
    .@@....
    .@@@@..
    .@@.@@.
    .@@.@@.
    .@@.@@.
    .......
    .......

u+045c:
afii10109:
    .......
    .......
    ...@@..
    ..@@...
    .......
    @@..@@.
    @@.@@..
    @@@@...
    @@.@@..
    @@..@@.
    @@..@@.
    .......
    .......

u+045e:
afii10110:
    .......
    .......
    .@@.@@.
    ..@@@..
    .......
    @@..@@.
    @@..@@.
    @@..@@.
    @@..@@.
    .@@@@@.
    ....@@.
    @@..@@.
    .@@@@..

u+045f:
afii10193:
    .......
    .......
    .......
    .......
    .......
    @@..@@.
    @@..@@.
    @@..@@.
    @@..@@.
    @@..@@.
    @@@@@@.
    ..@@...
    ..@@...

u+0490:
afii10050:
    ....@@.
    ....@@.
    @@@@@@.
    @@.....
    @@.....
    @@.....
    @@.....
    @@.....
    @@.....
    @@.....
    @@.....
    .......
    .......

u+0491:
afii10098:
    .......
    .......
    .......
    ...@@..
    ...@@..
    @@@@@..
    @@.....
    @@.....
    @@.....
    @@.....
    @@.....
    .......
    .......

u+05d0:
afii57664:
    .......
    .......
    .......
    .......
    .......
    @@.@@..
    .@@.@@.
    .@@.@@.
    @@.@@..
    @@.@@..
    @@.@@..
    .......
    .......

u+05d1:
afii57665:
    .......
    .......
    .......
    .......
    .......
    .@@@@..
    ...@@..
    ...@@..
    ...@@..
    ...@@..
    .@@@@@.
    .......
    .......

u+05d2:
afii57666:
    .......
    .......
    .......
    .......
    .......
    .@@....
    ..@@...
    ...@@..
    ...@@..
    ..@@@@.
    .@@.@@.
    .......
    .......

u+05d3:
afii57667:
    .......
    .......
    .......
    .......
    .......
    .@@@@@.
    ...@@..
    ...@@..
    ...@@..
    ...@@..
    ...@@..
    .......
    .......

u+05d4:
afii57668:
    .......
    .......
    .......
    .......
    .......
    .@@@@@.
    ....@@.
    ....@@.
    .@@.@@.
    .@@.@@.
    .@@.@@.
    .......
    .......

u+05d5:
afii57669:
    .......
    .......
    .......
    .......
    .......
    .@@@...
    ..@@...
    ..@@...
    ..@@...
    ..@@...
    ..@@...
    .......
    .......

u+05d6:
afii57670:
    .......
    .......
    .......
    .......
    .......
    .@@@@@.
    ..@@...
    ..@@...
    ...@@..
    ...@@..
    ...@@..
    .......
    .......

u+05d7:
afii57671:
    .......
    .......
    .......
    .......
    .......
    @@@@@@.
    .@@.@@.
    .@@.@@.
    .@@.@@.
    .@@.@@.
    .@@.@@.
    .......
    .......

u+05d8:
afii57672:
    .......
    .......
    .......
    .......
    .......
    @@..@@.
    @@.@@@.
    @@.@@@.
    @@..@@.
    @@..@@.
    @@@@@@.
    .......
    .......

u+05d9:
afii57673:
    .......
    .......
    .......
    .......
    .......
    .@@@...
    ..@@...
    ..@@...
    .......
    .......
    .......
    .......
    .......

u+05da:
afii57674:
    .......
    .......
    .......
    .......
    .......
    .@@@@@.
    ....@@.
    ....@@.
    ....@@.
    ....@@.
    ....@@.
    ....@@.
    ....@@.

u+05db:
afii57675:
    .......
    .......
    .......
    .......
    .......
    .@@@@@.
    ....@@.
    ....@@.
    ....@@.
    ....@@.
    .@@@@..
    .......
    .......

u+05dc:
afii57676:
    .......
    .......
    .@@....
    .@@....
    .@@....
    .@@@@@.
    ....@@.
    ....@@.
    ....@@.
    ...@@..
    ..@@...
    .......
    .......

u+05dd:
afii57677:
    .......
    .......
    .......
    .......
    .......
    @@@@@@.
    .@@.@@.
    .@@.@@.
    .@@.@@.
    .@@.@@.
    .@@@@@.
    .......
    .......

u+05de:
afii57678:
    .......
    .......
    .......
    .......
    .......
    @@.@@..
    @@@@@@.
    .@@.@@.
    @@..@@.
    @@..@@.
    @@.@@@.
    .......
    .......

u+05df:
afii57679:
    .......
    .......
    .......
    .......
    .......
    .@@@...
    ..@@...
    ..@@...
    ..@@...
    ..@@...
    ..@@...
    ..@@...
    ..@@...

u+05e0:
afii57680:
    .......
    .......
    .......
    .......
    .......
    ..@@@..
    ...@@..
    ...@@..
    ...@@..
    ...@@..
    .@@@@..
    .......
    .......

u+05e1:
afii57681:
    .......
    .......
    .......
    .......
    .......
    @@@@@@.
    .@@.@@.
    .@@.@@.
    .@@.@..
    .@@@...
    .@@....
    .......
    .......

u+05e2:
afii57682:
    .......
    .......
    .......
    .......
    .......
    @@@.@@.
    .@@.@@.
    .@@.@@.
    .@@.@@.
    .@@.@..
    @@@@...
    .......
    .......

u+05e3:
afii57683:
    .......
    .......
    .......
    .......
    .......
    @@@@@@.
    @@..@@.
    @@..@@.
    @@@.@@.
    ....@@.
    ....@@.
    ....@@.
    ....@@.

u+05e4:
afii57684:
    .......
    .......
    .......
    .......
    .......
    @@@@@@@
    .@@..@@
    .@@@.@@
    .....@@
    .....@@
    @@@@@@.
    .......
    .......

u+05e5:
afii57685:
    .......
    .......
    .......
    .......
    .......
    @@.@@..
    .@@.@@.
    .@@.@@.
    .@@@@..
    .@@....
    .@@....
    .@@....
    .@@....

u+05e6:
afii57686:
    .......
    .......
    .......
    .......
    .......
    @@.@@..
    .@@.@@.
    ..@@@@.
    ...@@..
    ....@@.
    @@@@@@.
    .......
    .......

u+05e7:
afii57687:
    .......
    .......
    .......
    .......
    .......
    @@@@@@@
    .....@@
    @@...@@
    @@...@@
    @@...@@
    @@.@@@.
    @@.....
    @@.....

u+05e8:
afii57688:
    .......
    .......
    .......
    .......
    .......
    .@@@@..
    ....@@.
    ....@@.
    ....@@.
    ....@@.
    ....@@.
    .......
    .......

u+05e9:
afii57689:
    .......
    .......
    .......
    .......
    .......
    @@.@.@@
    @@.@.@@
    @@.@.@@
    @@@@.@@
    @@...@@
    @@@@@@.
    .......
    .......

u+05ea:
afii57690:
    .......
    .......
    .......
    .......
    .......
    @@@@@@.
    .@@.@@.
    .@@.@@.
    .@@.@@.
    .@@.@@.
    @@@.@@.
    .......
    .......

u+0e01:
uni0E01:
    .......
    .......
    .......
    .......
    .......
    @@@@@..
    .@..@@.
    @@..@@.
    @@..@@.
    @@..@@.
    @@..@@.
    .......
    .......

u+0e02:
uni0E02:
    .......
    .......
    .......
    .......
    .......
    .@@@@@.
    ..@@@@.
    ..@@@@.
    .@@.@@.
    .@@.@@.
    ..@@@..
    .......
    .......

u+0e03:
uni0E03:
    .......
    .......
    .......
    .......
    .......
    @.@@@@.
    @@@@@@.
    ..@@@@.
    .@@.@@.
    .@@.@@.
    ..@@@..
    .......
    .......

u+0e04:
uni0E04:
    .......
    .......
    .......
    .......
    .......
    .@@@@..
    @@..@@.
    @@..@@.
    @@@.@@.
    @@..@@.
    @@..@@.
    .......
    .......

u+0e05:
uni0E05:
    .......
    .......
    .......
    .......
    .......
    .@..@..
    @@@@@@.
    @@..@@.
    @@@.@@.
    @@..@@.
    @@..@@.
    .......
    .......

u+0e06:
uni0E06:
    .......
    .......
    .......
    .......
    .......
    @.@.@@.
    @@@.@@.
    ..@.@@.
    .@@.@@.
    @@@.@@.
    @@.@@..
    .......
    .......

u+0e07:
uni0E07:
    .......
    .......
    .......
    .......
    .......
    ..@@@..
    ...@@..
    ...@@..
    @@.@@..
    .@@@@..
    ..@@@..
    .......
    .......

u+0e08:
uni0E08:
    .......
    .......
    .......
    .......
    .......
    .@@@@..
    @@..@@.
    ....@@.
    ..@@@@.
    ....@@.
    ....@@.
    .......
    .......

u+0e09:
uni0E09:
    .......
    .......
    .......
    .......
    .......
    .@@@@..
    @@..@@.
    ....@@.
    @@@.@@.
    .@@@@@@
    .@@.@@.
    .......
    .......

u+0e0a:
uni0E0A:
    .......
    .......
    .......
    .......
    ....@@.
    @@@.@@.
    .@@@@..
    .@@.@@.
    @@..@@.
    @@..@@.
    .@@@@..
    .......
    .......

u+0e0b:
uni0E0B:
    .......
    .......
    .......
    .......
    ....@@.
    @.@.@@.
    @@@@@..
    ..@.@@.
    .@@.@@.
    .@@.@@.
    ..@@@..
    .......
    .......

u+0e0c:
uni0E0C:
    .......
    .......
    .......
    .......
    .......
    .@@.@@.
    @.@.@@.
    .@@.@@.
    @.@.@@.
    @@@@@@.
    @@@.@@.
    .......
    .......

u+0e0d:
uni0E0D:
    .......
    .......
    .......
    .......
    .......
    .@@.@@.
    @.@.@@.
    .@@.@@.
    @.@@@@.
    @@@@...
    @@@@@@.
    .......
    .......

u+0e0e:
uni0E0E:
    .......
    .......
    .......
    .......
    .......
    .@@@@..
    @@..@@.
    .@@.@@.
    .@@.@@.
    @@@.@@.
    @@@.@@.
    ..@@@@.
    .@..@@.

u+0e0f:
uni0E0F:
    .......
    .......
    .......
    .......
    .......
    .@@@@..
    @@..@@.
    .@@.@@.
    .@@.@@.
    @@@.@@.
    @@@.@@.
    ..@.@@.
    @@.@@@.

u+0e10:
uni0E10:
    .......
    .......
    .......
    .......
    .......
    .@@@@@.
    @@.....
    .@@@@..
    ....@@.
    .@@.@@.
    ...@@@.
    @.@.@@.
    .@.@@@.

u+0e11:
uni0E11:
    .......
    .......
    .......
    .......
    .......
    @.@.@@.
    @@@@@@.
    ..@.@@.
    .@@.@@.
    .@@.@@.
    .@@.@@.
    .......
    .......

u+0e12:
uni0E12:
    .......
    .......
    .......
    .......
    .......
    @.@.@@.
    @@@.@@.
    @.@.@@.
    @.@.@@.
    @@@@@@.
    @@@.@@.
    .......
    .......

u+0e13:
uni0E13:
    .......
    .......
    .......
    .......
    .......
    .@@.@@.
    @.@.@@.
    .@@.@@.
    @.@.@..
    @.@@@@.
    @@@.@@.
    .......
    .......

u+0e14:
uni0E14:
    .......
    .......
    .......
    .......
    .......
    .@@@@..
    @@..@@.
    @@..@@.
    @@..@@.
    @@..@@.
    .@@.@@.
    .......
    .......

u+0e15:
uni0E15:
    .......
    .......
    .......
    .......
    .......
    .@..@..
    @@@@@@.
    @@..@@.
    @@..@@.
    @@..@@.
    .@@.@@.
    .......
    .......

u+0e16:
uni0E16:
    .......
    .......
    .......
    .......
    .......
    @@@@@..
    .@..@@.
    @@..@@.
    @@..@@.
    @@..@@.
    .@@.@@.
    .......
    .......

u+0e17:
uni0E17:
    .......
    .......
    .......
    .......
    .......
    @@.@@..
    .@@.@@.
    .@@.@@.
    .@@.@@.
    .@@.@@.
    .@@.@@.
    .......
    .......

u+0e18:
uni0E18:
    .......
    .......
    .......
    .......
    .......
    .@@@@@.
    @@.....
    @@@@@..
    .@@.@@.
    .@@.@@.
    ..@@@..
    .......
    .......

u+0e19:
uni0E19:
    .......
    .......
    .......
    .......
    .......
    @@.@@..
    .@.@@..
    @@.@@..
    @@.@@..
    @@@@@@.
    @@.@@..
    .......
    .......

u+0e1a:
uni0E1A:
    .......
    .......
    .......
    .......
    .......
    @@@.@@.
    .@@.@@.
    .@@.@@.
    .@@.@@.
    .@@.@@.
    ..@@@..
    .......
    .......

u+0e1b:
uni0E1B:
    .......
    .......
    .......
    ....@@.
    ....@@.
    @@@.@@.
    .@@.@@.
    .@@.@@.
    .@@.@@.
    .@@.@@.
    ..@@@..
    .......
    .......

u+0e1c:
uni0E1C:
    .......
    .......
    .......
    .......
    .......
    @@@.@@.
    @@..@@.
    @@..@@.
    @@..@@.
    @@@@@@.
    .@..@..
    .......
    .......

u+0e1d:
uni0E1D:
    .......
    .......
    .......
    ....@@.
    ....@@.
    @@@.@@.
    @@..@@.
    @@..@@.
    @@..@@.
    @@@@@@.
    .@..@..
    .......
    .......

u+0e1e:
uni0E1E:
    .......
    .......
    .......
    .......
    .......
    @@@..@@
    .@@..@@
    @@...@@
    @@.@.@@
    @@.@.@@
    .@@.@@.
    .......
    .......

u+0e1f:
uni0E1F:
    .......
    .......
    .......
    .....@@
    .....@@
    @@@..@@
    .@@..@@
    @@...@@
    @@.@.@@
    @@.@.@@
    .@@.@@.
    .......
    .......

u+0e20:
uni0E20:
    .......
    .......
    .......
    .......
    .......
    .@@@@..
    @@..@@.
    .@@.@@.
    .@@.@@.
    .@@.@@.
    @@@.@@.
    .......
    .......

u+0e21:
uni0E21:
    .......
    .......
    .......
    .......
    .......
    @@@.@@.
    .@@.@@.
    .@@.@@.
    .@@.@@.
    @@@.@@.
    @@.@@..
    .......
    .......

u+0e22:
uni0E22:
    .......
    .......
    .......
    .......
    .......
    @@@.@@.
    @@..@@.
    .@@.@@.
    @@..@@.
    @@..@@.
    .@@@@..
    .......
    .......

u+0e23:
uni0E23:
    .......
    .......
    .......
    .......
    .......
    .@@@@..
    @@..@@.
    @@@@...
    ...@@..
    ...@@..
    ..@@@..
    .......
    .......

u+0e24:
uni0E24:
    .......
    .......
    .......
    .......
    .......
    @@@@@..
    .@..@@.
    @@..@@.
    @@..@@.
    @@..@@.
    .@@.@@.
    ....@@.
    ....@@.

u+0e25:
uni0E25:
    .......
    .......
    .......
    .......
    .......
    .@@@@..
    @@..@@.
    .@@.@@.
    @@.@@@.
    @@..@@.
    @@@.@@.
    .......
    .......

u+0e26:
uni0E26:
    .......
    .......
    .......
    .......
    .......
    .@@@@..
    @@..@@.
    .@@.@@.
    .@@.@@.
    .@@.@@.
    @@@.@@.
    ....@@.
    ....@@.

u+0e27:
uni0E27:
    .......
    .......
    .......
    .......
    .......
    .@@@@..
    @@..@@.
    ....@@.
    ....@@.
    ....@@.
    ...@@@.
    .......
    .......

u+0e28:
uni0E28:
    .......
    .......
    .......
    ....@@.
    ....@@.
    .@@@@..
    @@..@@.
    @@..@@.
    @@@.@@.
    @@..@@.
    @@..@@.
    .......
    .......

u+0e29:
uni0E29:
    .......
    .......
    .......
    .......
    .......
    @@@.@@.
    .@@.@@.
    @@@.@@.
    @@.@@@.
    @@..@@.
    .@@@@@.
    .......
    .......

u+0e2a:
uni0E2A:
    .......
    .......
    .......
    ....@@.
    ....@@.
    .@@@@..
    @@..@@.
    .@@.@@.
    @@.@@@.
    @@..@@.
    @@@.@@.
    .......
    .......

u+0e2b:
uni0E2B:
    .......
    .......
    .......
    .......
    .......
    @@@.@@.
    .@@.@@.
    .@@@@..
    .@@.@@.
    .@@.@@.
    .@@.@@.
    .......
    .......

u+0e2c:
uni0E2C:
    .......
    .......
    .......
    .....@@
    .....@@
    @@@.@@.
    .@@..@@
    @@...@@
    @@.@.@@
    @@.@.@@
    .@@.@@.
    .......
    .......

u+0e2d:
uni0E2D:
    .......
    .......
    .......
    .......
    .......
    @@@@@..
    ....@@.
    @@@.@@.
    @@..@@.
    @@..@@.
    .@@@@..
    .......
    .......

u+0e2e:
uni0E2E:
    .......
    .......
    .......
    ....@@.
    ....@@.
    @@@@@..
    ....@@.
    @@@.@@.
    @@..@@.
    @@..@@.
    .@@@@..
    .......
    .......

u+0e2f:
uni0E2F:
    .......
    .......
    .......
    .......
    .......
    @@.@@@.
    @@@.@@.
    ....@@.
    ....@@.
    ....@@.
    ...@@..
    .......
    .......

u+0e30:
uni0E30:
    .......
    .......
    .......
    .......
    .......
    .......
    .@@.@@.
    .@@@@..
    .......
    .@@.@@.
    .@@@@..
    .......
    .......

u+0e31:
uni0E31:
    .......
    .......
    .@@....
    .@@@@@.
    .......
    .......
    .......
    .......
    .......
    .......
    .......
    .......
    .......

u+0e32:
uni0E32:
    .......
    .......
    .......
    .......
    .......
    .@@@@..
    @@..@@.
    ....@@.
    ....@@.
    ....@@.
    ....@@.
    .......
    .......

u+0e33:
uni0E33:
    .......
    .......
    .......
    @@.....
    @@.....
    ..@@@..
    .@@.@@.
    ....@@.
    ....@@.
    ....@@.
    ....@@.
    .......
    .......

u+0e34:
uni0E34:
    .......
    .......
    .......
    .@@@@@.
    .......
    .......
    .......
    .......
    .......
    .......
    .......
    .......
    .......

u+0e35:
uni0E35:
    .......
    .......
    .....@.
    .@@@@@.
    .......
    .......
    .......
    .......
    .......
    .......
    .......
    .......
    .......

u+0e36:
uni0E36:
    .......
    .......
    ....@@.
    .@@@@@.
    .......
    .......
    .......
    .......
    .......
    .......
    .......
    .......
    .......

u+0e37:
uni0E37:
    .......
    .......
    ...@.@.
    .@@@@@.
    .......
    .......
    .......
    .......
    .......
    .......
    .......
    .......
    .......

u+0e38:
uni0E38:
    .......
    .......
    .......
    .......
    .......
    .......
    .......
    .......
    .......
    .......
    .......
    ...@@@.
    ....@@.

u+0e39:
uni0E39:
    .......
    .......
    .......
    .......
    .......
    .......
    .......
    .......
    .......
    .......
    .......
    ..@@.@.
    ...@@@.

u+0e3a:
uni0E3A:
    .......
    .......
    .......
    .......
    .......
    .......
    .......
    .......
    .......
    .......
    .......
    ....@@.
    ....@@.

u+0e3f:
uni0E3F:
    .......
    .......
    .......
    ..@....
    @@@@@..
    @.@.@@.
    @.@.@@.
    @@@@@..
    @.@.@@.
    @.@.@@.
    @@@@@..
    ..@....
    .......

u+0e40:
uni0E40:
    .......
    .......
    .......
    .......
    .......
    .@@....
    .@@....
    .@@....
    .@@....
    .@@....
    .@@@...
    .......
    .......

u+0e41:
uni0E41:
    .......
    .......
    .......
    .......
    .......
    @@.@@..
    @@.@@..
    @@.@@..
    @@.@@..
    @@.@@..
    @@.@@..
    .......
    .......

u+0e42:
uni0E42:
    .......
    .......
    .......
    .@@@@@.
    @@.....
    @@@@@..
    ...@@..
    ...@@..
    ...@@..
    ...@@..
    ...@@@.
    .......
    .......

u+0e43:
uni0E43:
    .......
    .......
    .......
    .@@@...
    @@.@@..
    @@.@@..
    .@@@@..
    ...@@..
    ...@@..
    ...@@..
    ...@@@.
    .......
    .......

u+0e44:
uni0E44:
    .......
    .......
    .......
    @.@@@..
    .@.@@..
    ...@@..
    ...@@..
    ...@@..
    ...@@..
    ...@@..
    ...@@@.
    .......
    .......

u+0e45:
uni0E45:
    .......
    .......
    .......
    .......
    .......
    .@@@@..
    @@..@@.
    ....@@.
    ....@@.
    ....@@.
    ....@@.
    ....@@.
    ....@@.

u+0e46:
uni0E46:
    .......
    .......
    .......
    .......
    .......
    @@@.@@.
    @@.@@@.
    ....@@.
    ....@@.
    ....@@.
    ....@@.
    ...@@..
    ..@@...

u+0e47:
uni0E47:
    .......
    .@@@@..
    .@@....
    .@.@@..
    .......
    .......
    .......
    .......
    .......
    .......
    .......
    .......
    .......

u+0e48:
uni0E48:
    ....@@.
    ....@@.
    .......
    .......
    .......
    .......
    .......
    .......
    .......
    .......
    .......
    .......
    .......

u+0e49:
uni0E49:
    ..@@.@.
    ...@@..
    .......
    .......
    .......
    .......
    .......
    .......
    .......
    .......
    .......
    .......
    .......

u+0e4a:
uni0E4A:
    ..@.@.@
    ..@@@@.
    .......
    .......
    .......
    .......
    .......
    .......
    .......
    .......
    .......
    .......
    .......

u+0e4b:
uni0E4B:
    ....@..
    ...@@@.
    ....@..
    .......
    .......
    .......
    .......
    .......
    .......
    .......
    .......
    .......
    .......

u+0e4c:
uni0E4C:
    ...@@@.
    ...@@..
    .......
    .......
    .......
    .......
    .......
    .......
    .......
    .......
    .......
    .......
    .......

u+0e4d:
uni0E4D:
    .......
    .......
    ...@@@.
    ...@@@.
    .......
    .......
    .......
    .......
    .......
    .......
    .......
    .......
    .......

u+0e4e:
uni0E4E:
    .......
    ....@@.
    ...@@@.
    ...@@..
    .......
    .......
    .......
    .......
    .......
    .......
    .......
    .......
    .......

u+0e4f:
uni0E4F:
    .......
    .......
    .......
    .......
    .......
    .......
    .@@@@@.
    @@...@@
    @@.@.@@
    @@...@@
    .@@@@@.
    .......
    .......

u+0e50:
uni0E50:
    .......
    .......
    .......
    .......
    .......
    .......
    .@@@@@.
    @@...@@
    @@...@@
    @@...@@
    .@@@@@.
    .......
    .......

u+0e51:
uni0E51:
    .......
    .......
    .......
    .......
    .......
    .......
    .@@@@@.
    @@...@@
    @@@@.@@
    .....@@
    .@@@@@.
    .......
    .......

u+0e52:
uni0E52:
    .......
    .......
    .......
    .......
    @@.....
    @@.....
    @@.@.@@
    @@.@@@@
    @@.@.@@
    @@...@@
    .@@@@@.
    .......
    .......

u+0e53:
uni0E53:
    .......
    .......
    .......
    .......
    .......
    .......
    .@@.@@.
    @@.@.@@
    @@...@@
    @@@..@@
    @@@..@@
    .......
    .......

u+0e54:
uni0E54:
    .......
    .......
    .......
    .......
    .....@@
    .....@@
    .@@@@@.
    @@.....
    @@.@@..
    @@.@@..
    .@@@@@@
    .......
    .......

u+0e55:
uni0E55:
    .......
    .......
    .......
    .......
    .....@@
    ..@@.@@
    .@@@@@.
    @@.....
    @@.@@..
    @@.@@..
    .@@@@@@
    .......
    .......

u+0e56:
uni0E56:
    .......
    .......
    .......
    .......
    .......
    @@.....
    .@@.@@.
    ..@@.@@
    .....@@
    ..@@.@@
    ..@@@@.
    .......
    .......

u+0e57:
uni0E57:
    .......
    .......
    .......
    .......
    ......@
    ......@
    @@.@@.@
    @@@@@.@
    @@.@@.@
    @@.@@.@
    @@@.@@.
    .......
    .......

u+0e58:
uni0E58:
    .......
    .......
    .......
    .......
    .......
    .....@@
    .@@@@@.
    @@.....
    @@..@@@
    @@.@.@@
    .@@.@@.
    .......
    .......

u+0e59:
uni0E59:
    .......
    .......
    .......
    .......
    .....@@
    .....@@
    ...@@@.
    .@@@...
    @@.@@..
    @@@.@@.
    @@@..@@
    .......
    .......

u+0e5a:
uni0E5A:
    .......
    .......
    .......
    .......
    .......
    @.@@.@@
    @@@@.@@
    ..@@.@@
    ..@@.@@
    ..@@.@@
    ..@@.@@
    .......
    .......

u+0e5b:
uni0E5B:
    .......
    .......
    .......
    .......
    .......
    .@@....
    @@@....
    @@.@.@@
    @@.@@@.
    @@.@@..
    .@@@...
    .......
    .......

u+1e02:
uni1E02:
    .......
    ..@@...
    .......
    @@@@@..
    @@..@@.
    @@..@@.
    @@@@@..
    @@..@@.
    @@..@@.
    @@..@@.
    @@@@@..
    .......
    .......

u+1e03:
uni1E03:
    .......
    ...@@..
    @@.....
    @@.....
    @@.....
    @@@@@..
    @@..@@.
    @@..@@.
    @@..@@.
    @@..@@.
    @@@@@..
    .......
    .......

u+1e0a:
uni1E0A:
    .......
    ..@@...
    .......
    @@@@@..
    @@..@@.
    @@..@@.
    @@..@@.
    @@..@@.
    @@..@@.
    @@..@@.
    @@@@@..
    .......
    .......

u+1e0b:
uni1E0B:
    .......
    .@@....
    ....@@.
    ....@@.
    ....@@.
    .@@@@@.
    @@..@@.
    @@..@@.
    @@..@@.
    @@..@@.
    .@@@@@.
    .......
    .......

u+1e1e:
uni1E1E:
    .......
    ..@@...
    .......
    @@@@@@.
    @@.....
    @@.....
    @@@@...
    @@.....
    @@.....
    @@.....
    @@.....
    .......
    .......

u+1e1f:
uni1E1F:
    .......
    ...@...
    .......
    ..@@@..
    .@@.@@.
    .@@....
    .@@....
    @@@@...
    .@@....
    .@@....
    .@@....
    .......
    .......

u+1e40:
uni1E40:
    .......
    ..@@...
    @....@.
    @@..@@.
    @@@@@@.
    @@@@@@.
    @@..@@.
    @@..@@.
    @@..@@.
    @@..@@.
    @@..@@.
    .......
    .......

u+1e41:
uni1E41:
    .......
    .......
    .......
    ..@@...
    .......
    @@.@@..
    @@@@@@.
    @@@@@@.
    @@..@@.
    @@..@@.
    @@..@@.
    .......
    .......

u+1e56:
uni1E56:
    .......
    ..@@...
    .......
    @@@@@..
    @@..@@.
    @@..@@.
    @@..@@.
    @@@@@..
    @@.....
    @@.....
    @@.....
    .......
    .......

u+1e57:
uni1E57:
    .......
    .......
    .......
    ..@@...
    .......
    @@@@@..
    @@..@@.
    @@..@@.
    @@..@@.
    @@@@@..
    @@.....
    @@.....
    @@.....

u+1e60:
uni1E60:
    .......
    ..@@...
    .......
    .@@@@..
    @@..@@.
    @@.....
    .@@@@..
    ....@@.
    ....@@.
    @@..@@.
    .@@@@..
    .......
    .......

u+1e61:
uni1E61:
    .......
    .......
    .......
    ..@@...
    .......
    .@@@@..
    @@..@@.
    .@@....
    ...@@..
    @@..@@.
    .@@@@..
    .......
    .......

u+1e6a:
uni1E6A:
    .......
    ..@@...
    .......
    @@@@@@.
    ..@@...
    ..@@...
    ..@@...
    ..@@...
    ..@@...
    ..@@...
    ..@@...
    .......
    .......

u+1e6b:
uni1E6B:
    .......
    .@@....
    .......
    .@@....
    .@@....
    @@@@...
    .@@....
    .@@....
    .@@....
    .@@.@@.
    ..@@@..
    .......
    .......

u+1e6c:
uni1E6C:
    .......
    .......
    .......
    @@@@@@.
    ..@@...
    ..@@...
    ..@@...
    ..@@...
    ..@@...
    ..@@...
    ..@@...
    .......
    ..@@...

u+1e6d:
uni1E6D:
    .......
    .......
    .......
    .@@....
    .@@....
    @@@@...
    .@@....
    .@@....
    .@@....
    .@@.@@.
    ..@@@..
    .......
    ..@@...

u+1e6e:
uni1E6E:
    .......
    .......
    .......
    @@@@@@.
    ..@@...
    ..@@...
    ..@@...
    ..@@...
    ..@@...
    ..@@...
    ..@@...
    .......
    .@@@@..

u+1e6f:
uni1E6F:
    .......
    .......
    .......
    .@@....
    .@@....
    @@@@...
    .@@....
    .@@....
    .@@....
    .@@.@@.
    ..@@@..
    .......
    .@@@@..

u+1e80:
Wgrave:
    .@@....
    ..@@...
    .......
    @@..@@.
    @@..@@.
    @@..@@.
    @@..@@.
    @@@@@@.
    @@@@@@.
    @@..@@.
    @....@.
    .......
    .......

u+1e81:
wgrave:
    .......
    .......
    .@@....
    ..@@...
    .......
    @@..@@.
    @@..@@.
    @@..@@.
    @@@@@@.
    @@@@@@.
    .@..@..
    .......
    .......

u+1e82:
Wacute:
    ...@@..
    ..@@...
    .......
    @@..@@.
    @@..@@.
    @@..@@.
    @@..@@.
    @@@@@@.
    @@@@@@.
    @@..@@.
    @....@.
    .......
    .......

u+1e83:
wacute:
    .......
    .......
    ...@@..
    ..@@...
    .......
    @@..@@.
    @@..@@.
    @@..@@.
    @@@@@@.
    @@@@@@.
    .@..@..
    .......
    .......

u+1e84:
Wdieresis:
    @@..@@.
    @@..@@.
    .......
    @@..@@.
    @@..@@.
    @@..@@.
    @@..@@.
    @@@@@@.
    @@@@@@.
    @@..@@.
    @....@.
    .......
    .......

u+1e85:
wdieresis:
    .......
    .......
    @@..@@.
    @@..@@.
    .......
    @@..@@.
    @@..@@.
    @@..@@.
    @@@@@@.
    @@@@@@.
    .@..@..
    .......
    .......

u+1ef2:
Ygrave:
    .......
    .@@....
    ..@@...
    .......
    @@..@@.
    @@..@@.
    .@..@..
    ..@@...
    ..@@...
    ..@@...
    ..@@...
    .......
    .......

u+1ef3:
ygrave:
    .......
    .......
    .@@....
    ..@@...
    .......
    @@..@@.
    @@..@@.
    @@..@@.
    @@..@@.
    .@@@@@.
    ....@@.
    @@..@@.
    .@@@@..

u+1f00:
uni1F00:
    .......
    ..@@@..
    ...@@..
    ..@@...
    .......
    .@@@@..
    @@..@@.
    @@..@@.
    @@..@@.
    @@.@@@.
    .@@.@@.
    .......
    .......

u+1f01:
uni1F01:
    .......
    ..@@@..
    ..@@...
    ...@@..
    .......
    .@@@@..
    @@..@@.
    @@..@@.
    @@..@@.
    @@.@@@.
    .@@.@@.
    .......
    .......

u+1f02:
uni1F02:
    .......
    @@@@@..
    .@@.@@.
    @@.....
    .......
    .@@@@..
    @@..@@.
    @@..@@.
    @@..@@.
    @@.@@@.
    .@@.@@.
    .......
    .......

u+1f03:
uni1F03:
    .......
    @@@@@..
    @@..@@.
    .@@....
    .......
    .@@@@..
    @@..@@.
    @@..@@.
    @@..@@.
    @@.@@@.
    .@@.@@.
    .......
    .......

u+1f04:
uni1F04:
    .......
    @@@.@@.
    .@@@@..
    @@.....
    .......
    .@@@@..
    @@..@@.
    @@..@@.
    @@..@@.
    @@.@@@.
    .@@.@@.
    .......
    .......

u+1f05:
uni1F05:
    .......
    @@@.@@.
    @@.@@..
    .@@....
    .......
    .@@@@..
    @@..@@.
    @@..@@.
    @@..@@.
    @@.@@@.
    .@@.@@.
    .......
    .......

u+1f06:
uni1F06:
    .@@..@.
    @.@@@..
    ...@@..
    ..@@...
    .......
    .@@@@..
    @@..@@.
    @@..@@.
    @@..@@.
    @@.@@@.
    .@@.@@.
    .......
    .......

u+1f07:
uni1F07:
    .@@..@.
    @.@@@..
    ..@@...
    ...@@..
    .......
    .@@@@..
    @@..@@.
    @@..@@.
    @@..@@.
    @@.@@@.
    .@@.@@.
    .......
    .......

u+1f08:
uni1F08:
    .......
    .......
    @.@@@..
    @@@.@@.
    .@@.@@.
    .@@.@@.
    .@@@@@.
    .@@.@@.
    .@@.@@.
    .@@.@@.
    .@@.@@.
    .......
    .......

u+1f09:
uni1F09:
    .......
    .......
    @.@@@..
    @@@.@@.
    .@@.@@.
    .@@.@@.
    .@@@@@.
    .@@.@@.
    .@@.@@.
    .@@.@@.
    .@@.@@.
    .......
    .......

u+1f0a:
uni1F0A:
    .......
    .......
    @.@@@..
    @@@.@@.
    .@@.@@.
    .@@.@@.
    .@@@@@.
    .@@.@@.
    .@@.@@.
    .@@.@@.
    .@@.@@.
    .......
    .......

u+1f0b:
uni1F0B:
    .......
    .......
    @.@@@..
    @@@.@@.
    .@@.@@.
    .@@.@@.
    .@@@@@.
    .@@.@@.
    .@@.@@.
    .@@.@@.
    .@@.@@.
    .......
    .......

u+1f0c:
uni1F0C:
    .......
    .......
    @.@@@..
    @@@.@@.
    .@@.@@.
    .@@.@@.
    .@@@@@.
    .@@.@@.
    .@@.@@.
    .@@.@@.
    .@@.@@.
    .......
    .......

u+1f0d:
uni1F0D:
    .......
    .......
    @.@@@..
    @@@.@@.
    .@@.@@.
    .@@.@@.
    .@@@@@.
    .@@.@@.
    .@@.@@.
    .@@.@@.
    .@@.@@.
    .......
    .......

u+1f0e:
uni1F0E:
    .......
    .......
    @.@@@..
    @@@.@@.
    .@@.@@.
    .@@.@@.
    .@@@@@.
    .@@.@@.
    .@@.@@.
    .@@.@@.
    .@@.@@.
    .......
    .......

u+1f0f:
uni1F0F:
    .......
    .......
    @.@@@..
    @@@.@@.
    .@@.@@.
    .@@.@@.
    .@@@@@.
    .@@.@@.
    .@@.@@.
    .@@.@@.
    .@@.@@.
    .......
    .......

u+1f10:
uni1F10:
    .......
    ..@@@..
    ...@@..
    ..@@...
    .......
    .@@@@..
    @@..@@.
    .@@@...
    @@.....
    @@..@@.
    .@@@@..
    .......
    .......

u+1f11:
uni1F11:
    .......
    ..@@@..
    ..@@...
    ...@@..
    .......
    .@@@@..
    @@..@@.
    .@@@...
    @@.....
    @@..@@.
    .@@@@..
    .......
    .......

u+1f12:
uni1F12:
    .......
    @@@@@..
    .@@.@@.
    @@.....
    .......
    .@@@@..
    @@..@@.
    .@@@...
    @@.....
    @@..@@.
    .@@@@..
    .......
    .......

u+1f13:
uni1F13:
    .......
    @@@@@..
    @@..@@.
    .@@....
    .......
    .@@@@..
    @@..@@.
    .@@@...
    @@.....
    @@..@@.
    .@@@@..
    .......
    .......

u+1f14:
uni1F14:
    .......
    @@@.@@.
    .@@@@..
    @@.....
    .......
    .@@@@..
    @@..@@.
    .@@@...
    @@.....
    @@..@@.
    .@@@@..
    .......
    .......

u+1f15:
uni1F15:
    .......
    @@@.@@.
    @@.@@..
    .@@....
    .......
    .@@@@..
    @@..@@.
    .@@@...
    @@.....
    @@..@@.
    .@@@@..
    .......
    .......

u+1f18:
uni1F18:
    .......
    .......
    @@@@@@.
    @@@....
    .@@....
    .@@....
    .@@@@..
    .@@....
    .@@....
    .@@....
    .@@@@@.
    .......
    .......

u+1f19:
uni1F19:
    .......
    .......
    @@@@@@.
    @@@....
    .@@....
    .@@....
    .@@@@..
    .@@....
    .@@....
    .@@....
    .@@@@@.
    .......
    .......

u+1f1a:
uni1F1A:
    .......
    .......
    @@@@@@.
    @@@....
    .@@....
    .@@....
    .@@@@..
    .@@....
    .@@....
    .@@....
    .@@@@@.
    .......
    .......

u+1f1b:
uni1F1B:
    .......
    .......
    @@@@@@.
    @@@....
    .@@....
    .@@....
    .@@@@..
    .@@....
    .@@....
    .@@....
    .@@@@@.
    .......
    .......

u+1f1c:
uni1F1C:
    .......
    .......
    @@@@@@.
    @@@....
    .@@....
    .@@....
    .@@@@..
    .@@....
    .@@....
    .@@....
    .@@@@@.
    .......
    .......

u+1f1d:
uni1F1D:
    .......
    .......
    @@@@@@.
    @@@....
    .@@....
    .@@....
    .@@@@..
    .@@....
    .@@....
    .@@....
    .@@@@@.
    .......
    .......

u+1f20:
uni1F20:
    .......
    ..@@@..
    ...@@..
    ..@@...
    .......
    @@@@@..
    @@..@@.
    @@..@@.
    @@..@@.
    @@..@@.
    @@..@@.
    ....@@.
    ....@@.

u+1f21:
uni1F21:
    .......
    ..@@@..
    ..@@...
    ...@@..
    .......
    @@@@@..
    @@..@@.
    @@..@@.
    @@..@@.
    @@..@@.
    @@..@@.
    ....@@.
    ....@@.

u+1f22:
uni1F22:
    .......
    @@@@@..
    .@@.@@.
    @@.....
    .......
    @@@@@..
    @@..@@.
    @@..@@.
    @@..@@.
    @@..@@.
    @@..@@.
    ....@@.
    ....@@.

u+1f23:
uni1F23:
    .......
    @@@@@..
    @@..@@.
    .@@....
    .......
    @@@@@..
    @@..@@.
    @@..@@.
    @@..@@.
    @@..@@.
    @@..@@.
    ....@@.
    ....@@.

u+1f24:
uni1F24:
    .......
    @@@.@@.
    .@@@@..
    @@.....
    .......
    @@@@@..
    @@..@@.
    @@..@@.
    @@..@@.
    @@..@@.
    @@..@@.
    ....@@.
    ....@@.

u+1f25:
uni1F25:
    .......
    @@@.@@.
    @@.@@..
    .@@....
    .......
    @@@@@..
    @@..@@.
    @@..@@.
    @@..@@.
    @@..@@.
    @@..@@.
    ....@@.
    ....@@.

u+1f26:
uni1F26:
    .@@..@.
    @.@@@..
    ...@@..
    ..@@...
    .......
    @@@@@..
    @@..@@.
    @@..@@.
    @@..@@.
    @@..@@.
    @@..@@.
    ....@@.
    ....@@.

u+1f27:
uni1F27:
    .@@..@.
    @.@@@..
    ..@@...
    ...@@..
    .......
    @@@@@..
    @@..@@.
    @@..@@.
    @@..@@.
    @@..@@.
    @@..@@.
    ....@@.
    ....@@.

u+1f28:
uni1F28:
    .......
    .......
    @@@.@@.
    @@@.@@.
    .@@.@@.
    .@@.@@.
    .@@@@@.
    .@@.@@.
    .@@.@@.
    .@@.@@.
    .@@.@@.
    .......
    .......

u+1f29:
uni1F29:
    .......
    .......
    @@@.@@.
    @@@.@@.
    .@@.@@.
    .@@.@@.
    .@@@@@.
    .@@.@@.
    .@@.@@.
    .@@.@@.
    .@@.@@.
    .......
    .......

u+1f2a:
uni1F2A:
    .......
    .......
    @@@.@@.
    @@@.@@.
    .@@.@@.
    .@@.@@.
    .@@@@@.
    .@@.@@.
    .@@.@@.
    .@@.@@.
    .@@.@@.
    .......
    .......

u+1f2b:
uni1F2B:
    .......
    .......
    @@@.@@.
    @@@.@@.
    .@@.@@.
    .@@.@@.
    .@@@@@.
    .@@.@@.
    .@@.@@.
    .@@.@@.
    .@@.@@.
    .......
    .......

u+1f2c:
uni1F2C:
    .......
    .......
    @@@.@@.
    @@@.@@.
    .@@.@@.
    .@@.@@.
    .@@@@@.
    .@@.@@.
    .@@.@@.
    .@@.@@.
    .@@.@@.
    .......
    .......

u+1f2d:
uni1F2D:
    .......
    .......
    @@@.@@.
    @@@.@@.
    .@@.@@.
    .@@.@@.
    .@@@@@.
    .@@.@@.
    .@@.@@.
    .@@.@@.
    .@@.@@.
    .......
    .......

u+1f2e:
uni1F2E:
    .......
    .......
    @@@.@@.
    @@@.@@.
    .@@.@@.
    .@@.@@.
    .@@@@@.
    .@@.@@.
    .@@.@@.
    .@@.@@.
    .@@.@@.
    .......
    .......

u+1f2f:
uni1F2F:
    .......
    .......
    @@@.@@.
    @@@.@@.
    .@@.@@.
    .@@.@@.
    .@@@@@.
    .@@.@@.
    .@@.@@.
    .@@.@@.
    .@@.@@.
    .......
    .......

u+1f30:
uni1F30:
    .......
    .@@@...
    ..@@...
    .@@....
    .......
    .@@....
    .@@....
    .@@....
    .@@....
    .@@@@..
    ..@@...
    .......
    .......

u+1f31:
uni1F31:
    .......
    .@@@...
    .@@....
    ..@@...
    .......
    .@@....
    .@@....
    .@@....
    .@@....
    .@@@@..
    ..@@...
    .......
    .......

u+1f32:
uni1F32:
    .......
    @@@@@..
    .@@.@@.
    @@.....
    .......
    ..@@...
    ..@@...
    ..@@...
    ..@@...
    ..@@@@.
    ...@@..
    .......
    .......

u+1f33:
uni1F33:
    .......
    @@@@@..
    @@..@@.
    .@@....
    .......
    ..@@...
    ..@@...
    ..@@...
    ..@@...
    ..@@@@.
    ...@@..
    .......
    .......

u+1f34:
uni1F34:
    .......
    @@@.@@.
    .@@@@..
    @@.....
    .......
    ..@@...
    ..@@...
    ..@@...
    ..@@...
    ..@@@@.
    ...@@..
    .......
    .......

u+1f35:
uni1F35:
    .......
    @@@.@@.
    @@.@@..
    .@@....
    .......
    ..@@...
    ..@@...
    ..@@...
    ..@@...
    ..@@@@.
    ...@@..
    .......
    .......

u+1f36:
uni1F36:
    .@@..@.
    @.@@@..
    ...@@..
    ..@@...
    .......
    ..@@...
    ..@@...
    ..@@...
    ..@@...
    ..@@@@.
    ...@@..
    .......
    .......

u+1f37:
uni1F37:
    .@@..@.
    @.@@@..
    ..@@...
    ...@@..
    .......
    ..@@...
    ..@@...
    ..@@...
    ..@@...
    ..@@@@.
    ...@@..
    .......
    .......

u+1f38:
uni1F38:
    .......
    .......
    @.@@@@.
    @..@@..
    ...@@..
    ...@@..
    ...@@..
    ...@@..
    ...@@..
    ...@@..
    ..@@@@.
    .......
    .......

u+1f39:
uni1F39:
    .......
    .......
    @.@@@@.
    @..@@..
    ...@@..
    ...@@..
    ...@@..
    ...@@..
    ...@@..
    ...@@..
    ..@@@@.
    .......
    .......

u+1f3a:
uni1F3A:
    .......
    .......
    @.@@@@.
    @..@@..
    ...@@..
    ...@@..
    ...@@..
    ...@@..
    ...@@..
    ...@@..
    ..@@@@.
    .......
    .......

u+1f3b:
uni1F3B:
    .......
    .......
    @.@@@@.
    @..@@..
    ...@@..
    ...@@..
    ...@@..
    ...@@..
    ...@@..
    ...@@..
    ..@@@@.
    .......
    .......

u+1f3c:
uni1F3C:
    .......
    .......
    @.@@@@.
    @..@@..
    ...@@..
    ...@@..
    ...@@..
    ...@@..
    ...@@..
    ...@@..
    ..@@@@.
    .......
    .......

u+1f3d:
uni1F3D:
    .......
    .......
    @.@@@@.
    @..@@..
    ...@@..
    ...@@..
    ...@@..
    ...@@..
    ...@@..
    ...@@..
    ..@@@@.
    .......
    .......

u+1f3e:
uni1F3E:
    .......
    .......
    @.@@@@.
    @..@@..
    ...@@..
    ...@@..
    ...@@..
    ...@@..
    ...@@..
    ...@@..
    ..@@@@.
    .......
    .......

u+1f3f:
uni1F3F:
    .......
    .......
    @.@@@@.
    @..@@..
    ...@@..
    ...@@..
    ...@@..
    ...@@..
    ...@@..
    ...@@..
    ..@@@@.
    .......
    .......

u+1f40:
uni1F40:
    .......
    ..@@@..
    ...@@..
    ..@@...
    .......
    .@@@@..
    @@..@@.
    @@..@@.
    @@..@@.
    @@..@@.
    .@@@@..
    .......
    .......

u+1f41:
uni1F41:
    .......
    ..@@@..
    ..@@...
    ...@@..
    .......
    .@@@@..
    @@..@@.
    @@..@@.
    @@..@@.
    @@..@@.
    .@@@@..
    .......
    .......

u+1f42:
uni1F42:
    .......
    @@@@@..
    .@@.@@.
    @@.....
    .......
    .@@@@..
    @@..@@.
    @@..@@.
    @@..@@.
    @@..@@.
    .@@@@..
    .......
    .......

u+1f43:
uni1F43:
    .......
    @@@@@..
    @@..@@.
    .@@....
    .......
    .@@@@..
    @@..@@.
    @@..@@.
    @@..@@.
    @@..@@.
    .@@@@..
    .......
    .......

u+1f44:
uni1F44:
    .......
    @@@.@@.
    .@@@@..
    @@.....
    .......
    .@@@@..
    @@..@@.
    @@..@@.
    @@..@@.
    @@..@@.
    .@@@@..
    .......
    .......

u+1f45:
uni1F45:
    .......
    @@@.@@.
    @@.@@..
    .@@....
    .......
    .@@@@..
    @@..@@.
    @@..@@.
    @@..@@.
    @@..@@.
    .@@@@..
    .......
    .......

u+1f48:
uni1F48:
    .......
    .......
    @.@@@..
    @@@.@@.
    .@@.@@.
    .@@.@@.
    .@@.@@.
    .@@.@@.
    .@@.@@.
    .@@.@@.
    ..@@@..
    .......
    .......

u+1f49:
uni1F49:
    .......
    .......
    @.@@@..
    @@@.@@.
    .@@.@@.
    .@@.@@.
    .@@.@@.
    .@@.@@.
    .@@.@@.
    .@@.@@.
    ..@@@..
    .......
    .......

u+1f4a:
uni1F4A:
    .......
    .......
    @.@@@..
    @@@.@@.
    .@@.@@.
    .@@.@@.
    .@@.@@.
    .@@.@@.
    .@@.@@.
    .@@.@@.
    ..@@@..
    .......
    .......

u+1f4b:
uni1F4B:
    .......
    .......
    @.@@@..
    @@@.@@.
    .@@.@@.
    .@@.@@.
    .@@.@@.
    .@@.@@.
    .@@.@@.
    .@@.@@.
    ..@@@..
    .......
    .......

u+1f4c:
uni1F4C:
    .......
    .......
    @.@@@..
    @@@.@@.
    .@@.@@.
    .@@.@@.
    .@@.@@.
    .@@.@@.
    .@@.@@.
    .@@.@@.
    ..@@@..
    .......
    .......

u+1f4d:
uni1F4D:
    .......
    .......
    @.@@@..
    @@@.@@.
    .@@.@@.
    .@@.@@.
    .@@.@@.
    .@@.@@.
    .@@.@@.
    .@@.@@.
    ..@@@..
    .......
    .......

u+1f50:
uni1F50:
    .......
    ..@@@..
    ...@@..
    ..@@...
    .......
    @@..@@.
    @@..@@.
    @@..@@.
    @@..@@.
    @@..@@.
    .@@@@..
    .......
    .......

u+1f51:
uni1F51:
    .......
    ..@@@..
    ..@@...
    ...@@..
    .......
    @@..@@.
    @@..@@.
    @@..@@.
    @@..@@.
    @@..@@.
    .@@@@..
    .......
    .......

u+1f52:
uni1F52:
    .......
    @@@@@..
    .@@.@@.
    @@.....
    .......
    @@..@@.
    @@..@@.
    @@..@@.
    @@..@@.
    @@..@@.
    .@@@@..
    .......
    .......

u+1f53:
uni1F53:
    .......
    @@@@@..
    @@..@@.
    .@@....
    .......
    @@..@@.
    @@..@@.
    @@..@@.
    @@..@@.
    @@..@@.
    .@@@@..
    .......
    .......

u+1f54:
uni1F54:
    .......
    @@@.@@.
    .@@@@..
    @@.....
    .......
    @@..@@.
    @@..@@.
    @@..@@.
    @@..@@.
    @@..@@.
    .@@@@..
    .......
    .......

u+1f55:
uni1F55:
    .......
    @@@.@@.
    @@.@@..
    .@@....
    .......
    @@..@@.
    @@..@@.
    @@..@@.
    @@..@@.
    @@..@@.
    .@@@@..
    .......
    .......

u+1f56:
uni1F56:
    .@@..@.
    @.@@@..
    ...@@..
    ..@@...
    .......
    @@..@@.
    @@..@@.
    @@..@@.
    @@..@@.
    @@..@@.
    .@@@@..
    .......
    .......

u+1f57:
uni1F57:
    .@@..@.
    @.@@@..
    ..@@...
    ...@@..
    .......
    @@..@@.
    @@..@@.
    @@..@@.
    @@..@@.
    @@..@@.
    .@@@@..
    .......
    .......

u+1f59:
uni1F59:
    .......
    .......
    @.@..@.
    @.@..@.
    ..@@@@.
    ..@@@@.
    ...@@..
    ...@@..
    ...@@..
    ...@@..
    ...@@..
    .......
    .......

u+1f5b:
uni1F5B:
    .......
    .......
    @.@..@.
    @.@..@.
    ..@@@@.
    ..@@@@.
    ...@@..
    ...@@..
    ...@@..
    ...@@..
    ...@@..
    .......
    .......

u+1f5d:
uni1F5D:
    .......
    .......
    @.@..@.
    @.@..@.
    ..@@@@.
    ..@@@@.
    ...@@..
    ...@@..
    ...@@..
    ...@@..
    ...@@..
    .......
    .......

u+1f5f:
uni1F5F:
    .......
    .......
    @.@..@.
    @.@..@.
    ..@@@@.
    ..@@@@.
    ...@@..
    ...@@..
    ...@@..
    ...@@..
    ...@@..
    .......
    .......

u+1f60:
uni1F60:
    .......
    ..@@@..
    ...@@..
    ..@@...
    .......
    @@..@@.
    @@..@@.
    @@..@@.
    @@@@@@.
    @@@@@@.
    .@..@..
    .......
    .......

u+1f61:
uni1F61:
    .......
    ..@@@..
    ..@@...
    ...@@..
    .......
    @@..@@.
    @@..@@.
    @@..@@.
    @@@@@@.
    @@@@@@.
    .@..@..
    .......
    .......

u+1f62:
uni1F62:
    .......
    @@@@@..
    .@@.@@.
    @@.....
    .......
    @@..@@.
    @@..@@.
    @@..@@.
    @@@@@@.
    @@@@@@.
    .@..@..
    .......
    .......

u+1f63:
uni1F63:
    .......
    @@@@@..
    @@..@@.
    .@@....
    .......
    @@..@@.
    @@..@@.
    @@..@@.
    @@@@@@.
    @@@@@@.
    .@..@..
    .......
    .......

u+1f64:
uni1F64:
    .......
    @@@.@@.
    .@@@@..
    @@.....
    .......
    @@..@@.
    @@..@@.
    @@..@@.
    @@@@@@.
    @@@@@@.
    .@..@..
    .......
    .......

u+1f65:
uni1F65:
    .......
    @@@.@@.
    @@.@@..
    .@@....
    .......
    @@..@@.
    @@..@@.
    @@..@@.
    @@@@@@.
    @@@@@@.
    .@..@..
    .......
    .......

u+1f66:
uni1F66:
    .......
    ..@@@..
    ...@@..
    ..@@...
    .......
    @@..@@.
    @@..@@.
    @@..@@.
    @@@@@@.
    @@@@@@.
    .@..@..
    .......
    .......

u+1f67:
uni1F67:
    .......
    ..@@@..
    ..@@...
    ...@@..
    .......
    @@..@@.
    @@..@@.
    @@..@@.
    @@@@@@.
    @@@@@@.
    .@..@..
    .......
    .......

u+1f68:
uni1F68:
    .......
    .......
    @.@@@..
    @@@.@@.
    .@@.@@.
    .@@.@@.
    .@@.@@.
    .@@.@@.
    ..@.@..
    ..@.@..
    .@@.@@.
    .......
    .......

u+1f69:
uni1F69:
    .......
    .......
    @.@@@..
    @@@.@@.
    .@@.@@.
    .@@.@@.
    .@@.@@.
    .@@.@@.
    ..@.@..
    ..@.@..
    .@@.@@.
    .......
    .......

u+1f6a:
uni1F6A:
    .......
    .......
    @.@@@..
    @@@.@@.
    .@@.@@.
    .@@.@@.
    .@@.@@.
    .@@.@@.
    ..@.@..
    ..@.@..
    .@@.@@.
    .......
    .......

u+1f6b:
uni1F6B:
    .......
    .......
    @.@@@..
    @@@.@@.
    .@@.@@.
    .@@.@@.
    .@@.@@.
    .@@.@@.
    ..@.@..
    ..@.@..
    .@@.@@.
    .......
    .......

u+1f6c:
uni1F6C:
    .......
    .......
    @.@@@..
    @@@.@@.
    .@@.@@.
    .@@.@@.
    .@@.@@.
    .@@.@@.
    ..@.@..
    ..@.@..
    .@@.@@.
    .......
    .......

u+1f6d:
uni1F6D:
    .......
    .......
    @.@@@..
    @@@.@@.
    .@@.@@.
    .@@.@@.
    .@@.@@.
    .@@.@@.
    ..@.@..
    ..@.@..
    .@@.@@.
    .......
    .......

u+1f6e:
uni1F6E:
    .......
    .......
    @.@@@..
    @@@.@@.
    .@@.@@.
    .@@.@@.
    .@@.@@.
    .@@.@@.
    ..@.@..
    ..@.@..
    .@@.@@.
    .......
    .......

u+1f6f:
uni1F6F:
    .......
    .......
    @.@@@..
    @@@.@@.
    .@@.@@.
    .@@.@@.
    .@@.@@.
    .@@.@@.
    ..@.@..
    ..@.@..
    .@@.@@.
    .......
    .......

u+1f70:
uni1F70:
    .......
    .......
    .@@....
    ..@@...
    .......
    .@@@@..
    @@..@@.
    @@..@@.
    @@..@@.
    @@.@@@.
    .@@.@@.
    .......
    .......

u+1f71:
uni1F71:
    .......
    .......
    ...@@..
    ..@@...
    .......
    .@@@@..
    @@..@@.
    @@..@@.
    @@..@@.
    @@.@@@.
    .@@.@@.
    .......
    .......

u+1f72:
uni1F72:
    .......
    .......
    .@@....
    ..@@...
    .......
    .@@@@..
    @@..@@.
    .@@@...
    @@.....
    @@..@@.
    .@@@@..
    .......
    .......

u+1f73:
uni1F73:
    .......
    .......
    ...@@..
    ..@@...
    .......
    .@@@@..
    @@..@@.
    .@@@...
    @@.....
    @@..@@.
    .@@@@..
    .......
    .......

u+1f74:
uni1F74:
    .......
    .......
    .@@....
    ..@@...
    .......
    @@@@@..
    @@..@@.
    @@..@@.
    @@..@@.
    @@..@@.
    @@..@@.
    ....@@.
    ....@@.

u+1f75:
uni1F75:
    .......
    .......
    ...@@..
    ..@@...
    .......
    @@@@@..
    @@..@@.
    @@..@@.
    @@..@@.
    @@..@@.
    @@..@@.
    ....@@.
    ....@@.

u+1f76:
uni1F76:
    .......
    .......
    @@.....
    .@@....
    .......
    .@@....
    .@@....
    .@@....
    .@@....
    .@@@@..
    ..@@...
    .......
    .......

u+1f77:
uni1F77:
    .......
    .......
    ..@@...
    .@@....
    .......
    .@@....
    .@@....
    .@@....
    .@@....
    .@@@@..
    ..@@...
    .......
    .......

u+1f78:
uni1F78:
    .......
    .......
    .@@....
    ..@@...
    .......
    .@@@@..
    @@..@@.
    @@..@@.
    @@..@@.
    @@..@@.
    .@@@@..
    .......
    .......

u+1f79:
uni1F79:
    .......
    .......
    ...@@..
    ..@@...
    .......
    .@@@@..
    @@..@@.
    @@..@@.
    @@..@@.
    @@..@@.
    .@@@@..
    .......
    .......

u+1f7a:
uni1F7A:
    .......
    .......
    .@@....
    ..@@...
    .......
    @@..@@.
    @@..@@.
    @@..@@.
    @@..@@.
    @@..@@.
    .@@@@..
    .......
    .......

u+1f7b:
uni1F7B:
    .......
    .......
    ...@@..
    ..@@...
    .......
    @@..@@.
    @@..@@.
    @@..@@.
    @@..@@.
    @@..@@.
    .@@@@..
    .......
    .......

u+1f7c:
uni1F7C:
    .......
    .......
    .@@....
    ..@@...
    .......
    @@..@@.
    @@..@@.
    @@..@@.
    @@@@@@.
    @@@@@@.
    .@..@..
    .......
    .......

u+1f7d:
uni1F7D:
    .......
    .......
    ...@@..
    ..@@...
    .......
    @@..@@.
    @@..@@.
    @@..@@.
    @@@@@@.
    @@@@@@.
    .@..@..
    .......
    .......

u+1f80:
uni1F80:
    .......
    ..@@@..
    ...@@..
    ..@@...
    .......
    .@@@@..
    @@..@@.
    @@..@@.
    @@..@@.
    @@.@@@.
    .@@.@@.
    .......
    ..@@...

u+1f81:
uni1F81:
    .......
    ..@@@..
    ..@@...
    ...@@..
    .......
    .@@@@..
    @@..@@.
    @@..@@.
    @@..@@.
    @@.@@@.
    .@@.@@.
    .......
    ..@@...

u+1f82:
uni1F82:
    .......
    @@@@@..
    .@@.@@.
    @@.....
    .......
    .@@@@..
    @@..@@.
    @@..@@.
    @@..@@.
    @@.@@@.
    .@@.@@.
    .......
    ..@@...

u+1f83:
uni1F83:
    .......
    @@@@@..
    @@..@@.
    .@@....
    .......
    .@@@@..
    @@..@@.
    @@..@@.
    @@..@@.
    @@.@@@.
    .@@.@@.
    .......
    ..@@...

u+1f84:
uni1F84:
    .......
    @@@.@@.
    .@@@@..
    @@.....
    .......
    .@@@@..
    @@..@@.
    @@..@@.
    @@..@@.
    @@.@@@.
    .@@.@@.
    .......
    ..@@...

u+1f85:
uni1F85:
    .......
    @@@.@@.
    @@.@@..
    .@@....
    .......
    .@@@@..
    @@..@@.
    @@..@@.
    @@..@@.
    @@.@@@.
    .@@.@@.
    .......
    ..@@...

u+1f86:
uni1F86:
    .@@..@.
    @.@@@..
    ...@@..
    ..@@...
    .......
    .@@@@..
    @@..@@.
    @@..@@.
    @@..@@.
    @@.@@@.
    .@@.@@.
    .......
    ..@@...

u+1f87:
uni1F87:
    .@@..@.
    @.@@@..
    ..@@...
    ...@@..
    .......
    .@@@@..
    @@..@@.
    @@..@@.
    @@..@@.
    @@.@@@.
    .@@.@@.
    .......
    ..@@...

u+1f88:
uni1F88:
    .......
    .......
    @.@@@..
    @@@.@@.
    .@@.@@.
    .@@.@@.
    .@@@@@.
    .@@.@@.
    .@@.@@.
    .@@.@@.
    .@@.@@.
    .......
    ...@@..

u+1f89:
uni1F89:
    .......
    .......
    @.@@@..
    @@@.@@.
    .@@.@@.
    .@@.@@.
    .@@@@@.
    .@@.@@.
    .@@.@@.
    .@@.@@.
    .@@.@@.
    .......
    ...@@..

u+1f8a:
uni1F8A:
    .......
    .......
    @.@@@..
    @@@.@@.
    .@@.@@.
    .@@.@@.
    .@@@@@.
    .@@.@@.
    .@@.@@.
    .@@.@@.
    .@@.@@.
    .......
    ...@@..

u+1f8b:
uni1F8B:
    .......
    .......
    @.@@@..
    @@@.@@.
    .@@.@@.
    .@@.@@.
    .@@@@@.
    .@@.@@.
    .@@.@@.
    .@@.@@.
    .@@.@@.
    .......
    ...@@..

u+1f8c:
uni1F8C:
    .......
    .......
    @.@@@..
    @@@.@@.
    .@@.@@.
    .@@.@@.
    .@@@@@.
    .@@.@@.
    .@@.@@.
    .@@.@@.
    .@@.@@.
    .......
    ...@@..

u+1f8d:
uni1F8D:
    .......
    .......
    @.@@@..
    @@@.@@.
    .@@.@@.
    .@@.@@.
    .@@@@@.
    .@@.@@.
    .@@.@@.
    .@@.@@.
    .@@.@@.
    .......
    ...@@..

u+1f8e:
uni1F8E:
    .......
    .......
    @.@@@..
    @@@.@@.
    .@@.@@.
    .@@.@@.
    .@@@@@.
    .@@.@@.
    .@@.@@.
    .@@.@@.
    .@@.@@.
    .......
    ...@@..

u+1f8f:
uni1F8F:
    .......
    .......
    @.@@@..
    @@@.@@.
    .@@.@@.
    .@@.@@.
    .@@@@@.
    .@@.@@.
    .@@.@@.
    .@@.@@.
    .@@.@@.
    .......
    ...@@..

u+1f90:
uni1F90:
    .......
    ..@@@..
    ...@@..
    ..@@...
    .......
    @@@@@..
    @@..@@.
    @@..@@.
    @@..@@.
    @@..@@.
    @@..@@.
    ....@@.
    @@..@@.

u+1f91:
uni1F91:
    .......
    ..@@@..
    ..@@...
    ...@@..
    .......
    @@@@@..
    @@..@@.
    @@..@@.
    @@..@@.
    @@..@@.
    @@..@@.
    ....@@.
    @@..@@.

u+1f92:
uni1F92:
    .......
    @@@@@..
    .@@.@@.
    @@.....
    .......
    @@@@@..
    @@..@@.
    @@..@@.
    @@..@@.
    @@..@@.
    @@..@@.
    ....@@.
    @@..@@.

u+1f93:
uni1F93:
    .......
    @@@@@..
    @@..@@.
    .@@....
    .......
    @@@@@..
    @@..@@.
    @@..@@.
    @@..@@.
    @@..@@.
    @@..@@.
    ....@@.
    @@..@@.

u+1f94:
uni1F94:
    .......
    @@@.@@.
    .@@@@..
    @@.....
    .......
    @@@@@..
    @@..@@.
    @@..@@.
    @@..@@.
    @@..@@.
    @@..@@.
    ....@@.
    @@..@@.

u+1f95:
uni1F95:
    .......
    @@@.@@.
    @@.@@..
    .@@....
    .......
    @@@@@..
    @@..@@.
    @@..@@.
    @@..@@.
    @@..@@.
    @@..@@.
    ....@@.
    @@..@@.

u+1f96:
uni1F96:
    .@@..@.
    @.@@@..
    ...@@..
    ..@@...
    .......
    @@@@@..
    @@..@@.
    @@..@@.
    @@..@@.
    @@..@@.
    @@..@@.
    ....@@.
    @@..@@.

u+1f97:
uni1F97:
    .@@..@.
    @.@@@..
    ..@@...
    ...@@..
    .......
    @@@@@..
    @@..@@.
    @@..@@.
    @@..@@.
    @@..@@.
    @@..@@.
    ....@@.
    @@..@@.

u+1f98:
uni1F98:
    .......
    .......
    @@@.@@.
    @@@.@@.
    .@@.@@.
    .@@.@@.
    .@@@@@.
    .@@.@@.
    .@@.@@.
    .@@.@@.
    .@@.@@.
    .......
    ...@@..

u+1f99:
uni1F99:
    .......
    .......
    @@@.@@.
    @@@.@@.
    .@@.@@.
    .@@.@@.
    .@@@@@.
    .@@.@@.
    .@@.@@.
    .@@.@@.
    .@@.@@.
    .......
    ...@@..

u+1f9a:
uni1F9A:
    .......
    .......
    @@@.@@.
    @@@.@@.
    .@@.@@.
    .@@.@@.
    .@@@@@.
    .@@.@@.
    .@@.@@.
    .@@.@@.
    .@@.@@.
    .......
    ...@@..

u+1f9b:
uni1F9B:
    .......
    .......
    @@@.@@.
    @@@.@@.
    .@@.@@.
    .@@.@@.
    .@@@@@.
    .@@.@@.
    .@@.@@.
    .@@.@@.
    .@@.@@.
    .......
    ...@@..

u+1f9c:
uni1F9C:
    .......
    .......
    @@@.@@.
    @@@.@@.
    .@@.@@.
    .@@.@@.
    .@@@@@.
    .@@.@@.
    .@@.@@.
    .@@.@@.
    .@@.@@.
    .......
    ...@@..

u+1f9d:
uni1F9D:
    .......
    .......
    @@@.@@.
    @@@.@@.
    .@@.@@.
    .@@.@@.
    .@@@@@.
    .@@.@@.
    .@@.@@.
    .@@.@@.
    .@@.@@.
    .......
    ...@@..

u+1f9e:
uni1F9E:
    .......
    .......
    @@@.@@.
    @@@.@@.
    .@@.@@.
    .@@.@@.
    .@@@@@.
    .@@.@@.
    .@@.@@.
    .@@.@@.
    .@@.@@.
    .......
    ...@@..

u+1f9f:
uni1F9F:
    .......
    .......
    @@@.@@.
    @@@.@@.
    .@@.@@.
    .@@.@@.
    .@@@@@.
    .@@.@@.
    .@@.@@.
    .@@.@@.
    .@@.@@.
    .......
    ...@@..

u+1fa0:
uni1FA0:
    .......
    ..@@@..
    ...@@..
    ..@@...
    .......
    @@..@@.
    @@..@@.
    @@..@@.
    @@@@@@.
    @@@@@@.
    .@..@..
    .......
    ..@@...

u+1fa1:
uni1FA1:
    .......
    ..@@@..
    ..@@...
    ...@@..
    .......
    @@..@@.
    @@..@@.
    @@..@@.
    @@@@@@.
    @@@@@@.
    .@..@..
    .......
    ..@@...

u+1fa2:
uni1FA2:
    .......
    @@@@@..
    .@@.@@.
    @@.....
    .......
    @@..@@.
    @@..@@.
    @@..@@.
    @@@@@@.
    @@@@@@.
    .@..@..
    .......
    ..@@...

u+1fa3:
uni1FA3:
    .......
    @@@@@..
    @@..@@.
    .@@....
    .......
    @@..@@.
    @@..@@.
    @@..@@.
    @@@@@@.
    @@@@@@.
    .@..@..
    .......
    ..@@...

u+1fa4:
uni1FA4:
    .......
    @@@.@@.
    .@@@@..
    @@.....
    .......
    @@..@@.
    @@..@@.
    @@..@@.
    @@@@@@.
    @@@@@@.
    .@..@..
    .......
    ..@@...

u+1fa5:
uni1FA5:
    .......
    @@@.@@.
    @@.@@..
    .@@....
    .......
    @@..@@.
    @@..@@.
    @@..@@.
    @@@@@@.
    @@@@@@.
    .@..@..
    .......
    ..@@...

u+1fa6:
uni1FA6:
    .......
    ..@@@..
    ...@@..
    ..@@...
    .......
    @@..@@.
    @@..@@.
    @@..@@.
    @@@@@@.
    @@@@@@.
    .@..@..
    .......
    ..@@...

u+1fa7:
uni1FA7:
    .......
    ..@@@..
    ..@@...
    ...@@..
    .......
    @@..@@.
    @@..@@.
    @@..@@.
    @@@@@@.
    @@@@@@.
    .@..@..
    .......
    ..@@...

u+1fa8:
uni1FA8:
    .......
    .......
    @.@@@..
    @@@.@@.
    .@@.@@.
    .@@.@@.
    .@@.@@.
    .@@.@@.
    ..@.@..
    ..@.@..
    .@@.@@.
    .......
    ...@@..

u+1fa9:
uni1FA9:
    .......
    .......
    @.@@@..
    @@@.@@.
    .@@.@@.
    .@@.@@.
    .@@.@@.
    .@@.@@.
    ..@.@..
    ..@.@..
    .@@.@@.
    .......
    ...@@..

u+1faa:
uni1FAA:
    .......
    .......
    @.@@@..
    @@@.@@.
    .@@.@@.
    .@@.@@.
    .@@.@@.
    .@@.@@.
    ..@.@..
    ..@.@..
    .@@.@@.
    .......
    ...@@..

u+1fab:
uni1FAB:
    .......
    .......
    @.@@@..
    @@@.@@.
    .@@.@@.
    .@@.@@.
    .@@.@@.
    .@@.@@.
    ..@.@..
    ..@.@..
    .@@.@@.
    .......
    ...@@..

u+1fac:
uni1FAC:
    .......
    .......
    @.@@@..
    @@@.@@.
    .@@.@@.
    .@@.@@.
    .@@.@@.
    .@@.@@.
    ..@.@..
    ..@.@..
    .@@.@@.
    .......
    ...@@..

u+1fad:
uni1FAD:
    .......
    .......
    @.@@@..
    @@@.@@.
    .@@.@@.
    .@@.@@.
    .@@.@@.
    .@@.@@.
    ..@.@..
    ..@.@..
    .@@.@@.
    .......
    ...@@..

u+1fae:
uni1FAE:
    .......
    .......
    @.@@@..
    @@@.@@.
    .@@.@@.
    .@@.@@.
    .@@.@@.
    .@@.@@.
    ..@.@..
    ..@.@..
    .@@.@@.
    .......
    ...@@..

u+1faf:
uni1FAF:
    .......
    .......
    @.@@@..
    @@@.@@.
    .@@.@@.
    .@@.@@.
    .@@.@@.
    .@@.@@.
    ..@.@..
    ..@.@..
    .@@.@@.
    .......
    ...@@..

u+1fb0:
uni1FB0:
    .......
    .......
    @@..@@.
    .@@@@..
    .......
    .@@@@..
    @@..@@.
    @@..@@.
    @@..@@.
    @@.@@@.
    .@@.@@.
    .......
    .......

u+1fb1:
uni1FB1:
    .......
    .......
    .......
    @@@@@@.
    .......
    .@@@@..
    @@..@@.
    @@..@@.
    @@..@@.
    @@.@@@.
    .@@.@@.
    .......
    .......

u+1fb2:
uni1FB2:
    .......
    .......
    .@@....
    ..@@...
    .......
    .@@@@..
    @@..@@.
    @@..@@.
    @@..@@.
    @@.@@@.
    .@@.@@.
    .......
    ..@@...

u+1fb3:
uni1FB3:
    .......
    .......
    .......
    .......
    .......
    .@@@@..
    @@..@@.
    @@..@@.
    @@..@@.
    @@.@@@.
    .@@.@@.
    .......
    ..@@...

u+1fb4:
uni1FB4:
    .......
    .......
    ...@@..
    ..@@...
    .......
    .@@@@..
    @@..@@.
    @@..@@.
    @@..@@.
    @@.@@@.
    .@@.@@.
    .......
    ..@@...

u+1fb6:
uni1FB6:
    .......
    ..@..@.
    .@@@@@.
    .@.@@..
    .......
    .@@@@..
    @@..@@.
    @@..@@.
    @@..@@.
    @@.@@@.
    .@@.@@.
    .......
    .......

u+1fb7:
uni1FB7:
    .......
    ..@..@.
    .@@@@@.
    .@.@@..
    .......
    .@@@@..
    @@..@@.
    @@..@@.
    @@..@@.
    @@.@@@.
    .@@.@@.
    .......
    ..@@...

u+1fb8:
uni1FB8:
    .......
    @@..@@.
    .@@@@..
    .......
    .@@@@..
    @@..@@.
    @@..@@.
    @@@@@@.
    @@..@@.
    @@..@@.
    @@..@@.
    .......
    .......

u+1fb9:
uni1FB9:
    .......
    @@@@@@.
    .......
    .@@@@..
    @@..@@.
    @@..@@.
    @@..@@.
    @@@@@@.
    @@..@@.
    @@..@@.
    @@..@@.
    .......
    .......

u+1fba:
uni1FBA:
    .......
    .......
    @.@@@..
    @@@.@@.
    .@@.@@.
    .@@.@@.
    .@@@@@.
    .@@.@@.
    .@@.@@.
    .@@.@@.
    .@@.@@.
    .......
    .......

u+1fbb:
uni1FBB:
    .......
    .......
    @.@@@..
    @@@.@@.
    .@@.@@.
    .@@.@@.
    .@@@@@.
    .@@.@@.
    .@@.@@.
    .@@.@@.
    .@@.@@.
    .......
    .......

u+1fbc:
uni1FBC:
    .......
    .......
    .@@@@..
    @@..@@.
    @@..@@.
    @@..@@.
    @@@@@@.
    @@..@@.
    @@..@@.
    @@..@@.
    @@..@@.
    ..@@...
    ..@@@..

u+1fbd:
uni1FBD:
    .......
    .......
    ..@@@..
    ...@@..
    ..@@...
    .......
    .......
    .......
    .......
    .......
    .......
    .......
    .......

u+1fbe:
uni1FBE:
    .......
    .......
    .......
    .......
    .......
    .......
    .......
    ..@@...
    ..@@...
    ..@@...
    ...@@..
    .......
    .......

u+1fbf:
uni1FBF:
    .......
    .......
    ..@@@..
    ...@@..
    ..@@...
    .......
    .......
    .......
    .......
    .......
    .......
    .......
    .......

u+1fc0:
uni1FC0:
    .......
    .......
    ..@..@.
    .@@@@@.
    .@.@@..
    .......
    .......
    .......
    .......
    .......
    .......
    .......
    .......

u+1fc1:
uni1FC1:
    .......
    .......
    ..@..@.
    .@@@@@.
    .@.@@..
    .@@.@@.
    .......
    .......
    .......
    .......
    .......
    .......
    .......

u+1fc2:
uni1FC2:
    .......
    .......
    .@@....
    ..@@...
    .......
    @@@@@..
    @@..@@.
    @@..@@.
    @@..@@.
    @@..@@.
    @@..@@.
    ....@@.
    @@..@@.

u+1fc3:
uni1FC3:
    .......
    .......
    .......
    .......
    .......
    @@@@@..
    @@..@@.
    @@..@@.
    @@..@@.
    @@..@@.
    @@..@@.
    ....@@.
    @@..@@.

u+1fc4:
uni1FC4:
    .......
    .......
    ...@@..
    ..@@...
    .......
    @@@@@..
    @@..@@.
    @@..@@.
    @@..@@.
    @@..@@.
    @@..@@.
    ....@@.
    @@..@@.

u+1fc6:
uni1FC6:
    .......
    ..@..@.
    .@@@@@.
    .@.@@..
    .......
    @@@@@..
    @@..@@.
    @@..@@.
    @@..@@.
    @@..@@.
    @@..@@.
    ....@@.
    ....@@.

u+1fc7:
uni1FC7:
    .......
    ..@..@.
    .@@@@@.
    .@.@@..
    .......
    @@@@@..
    @@..@@.
    @@..@@.
    @@..@@.
    @@..@@.
    @@..@@.
    ....@@.
    @@..@@.

u+1fc8:
uni1FC8:
    .......
    .......
    @@@@@@.
    @@@....
    .@@....
    .@@....
    .@@@@..
    .@@....
    .@@....
    .@@....
    .@@@@@.
    .......
    .......

u+1fc9:
uni1FC9:
    .......
    .......
    @@@@@@.
    @@@....
    .@@....
    .@@....
    .@@@@..
    .@@....
    .@@....
    .@@....
    .@@@@@.
    .......
    .......

u+1fca:
uni1FCA:
    .......
    .......
    @@@.@@.
    @@@.@@.
    .@@.@@.
    .@@.@@.
    .@@@@@.
    .@@.@@.
    .@@.@@.
    .@@.@@.
    .@@.@@.
    .......
    .......

u+1fcb:
uni1FCB:
    .......
    .......
    @@@.@@.
    @@@.@@.
    .@@.@@.
    .@@.@@.
    .@@@@@.
    .@@.@@.
    .@@.@@.
    .@@.@@.
    .@@.@@.
    .......
    .......

u+1fcc:
uni1FCC:
    .......
    .......
    @@..@@.
    @@..@@.
    @@..@@.
    @@..@@.
    @@@@@@.
    @@..@@.
    @@..@@.
    @@..@@.
    @@..@@.
    ..@@...
    ..@@@..

u+1fcd:
uni1FCD:
    .......
    .......
    @@@@@..
    .@@.@@.
    @@.....
    .......
    .......
    .......
    .......
    .......
    .......
    .......
    .......

u+1fce:
uni1FCE:
    .......
    .......
    @@@.@@.
    .@@@@..
    @@.....
    .......
    .......
    .......
    .......
    .......
    .......
    .......
    .......

u+1fcf:
uni1FCF:
    .......
    .......
    .@@..@.
    @.@@@..
    ...@@..
    ..@@...
    .......
    .......
    .......
    .......
    .......
    .......
    .......

u+1fd0:
uni1FD0:
    .......
    .......
    @@..@@.
    .@@@@..
    .......
    ..@@...
    ..@@...
    ..@@...
    ..@@...
    ..@@@@.
    ...@@..
    .......
    .......

u+1fd1:
uni1FD1:
    .......
    .......
    .......
    @@@@@@.
    .......
    ..@@...
    ..@@...
    ..@@...
    ..@@...
    ..@@@@.
    ...@@..
    .......
    .......

u+1fd2:
uni1FD2:
    .......
    .@@....
    @.@@.@.
    @....@.
    .......
    ..@@...
    ..@@...
    ..@@...
    ..@@...
    ..@@@@.
    ...@@..
    .......
    .......

u+1fd3:
uni1FD3:
    .......
    ...@@..
    @.@@.@.
    @....@.
    .......
    ..@@...
    ..@@...
    ..@@...
    ..@@...
    ..@@@@.
    ...@@..
    .......
    .......

u+1fd6:
uni1FD6:
    .......
    ..@..@.
    .@@@@@.
    .@.@@..
    .......
    ..@@...
    ..@@...
    ..@@...
    ..@@...
    ..@@@@.
    ...@@..
    .......
    .......

u+1fd7:
uni1FD7:
    ..@..@.
    .@@@@@.
    .@.@@..
    .@@.@@.
    .......
    ..@@...
    ..@@...
    ..@@...
    ..@@...
    ..@@@@.
    ...@@..
    .......
    .......

u+1fd8:
uni1FD8:
    .......
    @@..@@.
    .@@@@..
    .......
    @@@@@@.
    ..@@...
    ..@@...
    ..@@...
    ..@@...
    ..@@...
    @@@@@@.
    .......
    .......

u+1fd9:
uni1FD9:
    .......
    @@@@@@.
    .......
    @@@@@@.
    ..@@...
    ..@@...
    ..@@...
    ..@@...
    ..@@...
    ..@@...
    @@@@@@.
    .......
    .......

u+1fda:
uni1FDA:
    .......
    .......
    @.@@@@.
    @..@@..
    ...@@..
    ...@@..
    ...@@..
    ...@@..
    ...@@..
    ...@@..
    ..@@@@.
    .......
    .......

u+1fdb:
uni1FDB:
    .......
    .......
    @.@@@@.
    @..@@..
    ...@@..
    ...@@..
    ...@@..
    ...@@..
    ...@@..
    ...@@..
    ..@@@@.
    .......
    .......

u+1fdd:
uni1FDD:
    .......
    .......
    @@@@@..
    @@..@@.
    .@@....
    .......
    .......
    .......
    .......
    .......
    .......
    .......
    .......

u+1fde:
uni1FDE:
    .......
    .......
    @@@.@@.
    @@.@@..
    .@@....
    .......
    .......
    .......
    .......
    .......
    .......
    .......
    .......

u+1fdf:
uni1FDF:
    .......
    .......
    .@@..@.
    @.@@@..
    ..@@...
    ...@@..
    .......
    .......
    .......
    .......
    .......
    .......
    .......

u+1fe0:
uni1FE0:
    .......
    .......
    @@..@@.
    .@@@@..
    .......
    @@..@@.
    @@..@@.
    @@..@@.
    @@..@@.
    @@..@@.
    .@@@@..
    .......
    .......

u+1fe1:
uni1FE1:
    .......
    .......
    .......
    @@@@@@.
    .......
    @@..@@.
    @@..@@.
    @@..@@.
    @@..@@.
    @@..@@.
    .@@@@..
    .......
    .......

u+1fe2:
uni1FE2:
    .......
    .@@....
    @.@@.@.
    @....@.
    .......
    @@..@@.
    @@..@@.
    @@..@@.
    @@..@@.
    @@..@@.
    .@@@@..
    .......
    .......

u+1fe3:
uni1FE3:
    .......
    ...@@..
    @.@@.@.
    @....@.
    .......
    @@..@@.
    @@..@@.
    @@..@@.
    @@..@@.
    @@..@@.
    .@@@@..
    .......
    .......

u+1fe4:
uni1FE4:
    .......
    ..@@@..
    ...@@..
    ..@@...
    .......
    .@@@@..
    @@..@@.
    @@..@@.
    @@..@@.
    @@..@@.
    @@@@@..
    @@.....
    @@.....

u+1fe5:
uni1FE5:
    .......
    ..@@@..
    ..@@...
    ...@@..
    .......
    .@@@@..
    @@..@@.
    @@..@@.
    @@..@@.
    @@..@@.
    @@@@@..
    @@.....
    @@.....

u+1fe6:
uni1FE6:
    .......
    ..@..@.
    .@@@@@.
    .@.@@..
    .......
    @@..@@.
    @@..@@.
    @@..@@.
    @@..@@.
    @@..@@.
    .@@@@..
    .......
    .......

u+1fe7:
uni1FE7:
    .@@..@.
    @@@@@@.
    @..@@..
    @@..@@.
    .......
    @@..@@.
    @@..@@.
    @@..@@.
    @@..@@.
    @@..@@.
    .@@@@..
    .......
    .......

u+1fe8:
uni1FE8:
    .......
    @@..@@.
    .@@@@..
    .......
    @@..@@.
    .@..@..
    .@@@@..
    ..@@...
    ..@@...
    ..@@...
    ..@@...
    .......
    .......

u+1fe9:
uni1FE9:
    .......
    @@@@@@.
    .......
    @@..@@.
    @@..@@.
    .@..@..
    .@@@@..
    ..@@...
    ..@@...
    ..@@...
    ..@@...
    .......
    .......

u+1fea:
uni1FEA:
    .......
    .......
    @.@..@.
    @.@..@.
    ..@@@@.
    ..@@@@.
    ...@@..
    ...@@..
    ...@@..
    ...@@..
    ...@@..
    .......
    .......

u+1feb:
uni1FEB:
    .......
    .......
    @.@..@.
    @.@..@.
    ..@@@@.
    ..@@@@.
    ...@@..
    ...@@..
    ...@@..
    ...@@..
    ...@@..
    .......
    .......

u+1fec:
uni1FEC:
    .......
    .......
    @@@@@..
    @@@.@@.
    .@@.@@.
    .@@.@@.
    .@@@@..
    .@@....
    .@@....
    .@@....
    .@@....
    .......
    .......

u+1fed:
uni1FED:
    .......
    .@@....
    @.@@.@.
    @....@.
    .......
    .......
    .......
    .......
    .......
    .......
    .......
    .......
    .......

u+1fee:
uni1FEE:
    .......
    ...@@..
    @.@@.@.
    @....@.
    .......
    .......
    .......
    .......
    .......
    .......
    .......
    .......
    .......

u+1fef:
uni1FEF:
    .......
    .......
    ..@@...
    ...@@..
    .......
    .......
    .......
    .......
    .......
    .......
    .......
    .......
    .......

u+1ff2:
uni1FF2:
    .......
    .......
    .@@....
    ..@@...
    .......
    @@..@@.
    @@..@@.
    @@..@@.
    @@@@@@.
    @@@@@@.
    .@..@..
    .......
    ..@@...

u+1ff3:
uni1FF3:
    .......
    .......
    .......
    .......
    .......
    @@..@@.
    @@..@@.
    @@..@@.
    @@@@@@.
    @@@@@@.
    .@..@..
    .......
    ..@@...

u+1ff4:
uni1FF4:
    .......
    .......
    ...@@..
    ..@@...
    .......
    @@..@@.
    @@..@@.
    @@..@@.
    @@@@@@.
    @@@@@@.
    .@..@..
    .......
    ..@@...

u+1ff6:
uni1FF6:
    .......
    ..@..@.
    .@@@@@.
    .@.@@..
    .......
    @@..@@.
    @@..@@.
    @@..@@.
    @@@@@@.
    @@@@@@.
    .@..@..
    .......
    .......

u+1ff7:
uni1FF7:
    .......
    ..@..@.
    .@@@@@.
    .@.@@..
    .......
    @@..@@.
    @@..@@.
    @@..@@.
    @@@@@@.
    @@@@@@.
    .@..@..
    .......
    ..@@...

u+1ff8:
uni1FF8:
    .......
    .......
    @.@@@..
    @@@.@@.
    .@@.@@.
    .@@.@@.
    .@@.@@.
    .@@.@@.
    .@@.@@.
    .@@.@@.
    ..@@@..
    .......
    .......

u+1ff9:
uni1FF9:
    .......
    .......
    @.@@@..
    @@@.@@.
    .@@.@@.
    .@@.@@.
    .@@.@@.
    .@@.@@.
    .@@.@@.
    .@@.@@.
    ..@@@..
    .......
    .......

u+1ffa:
uni1FFA:
    .......
    .......
    @.@@@..
    @@@.@@.
    .@@.@@.
    .@@.@@.
    .@@.@@.
    .@@.@@.
    ..@.@..
    ..@.@..
    .@@.@@.
    .......
    .......

u+1ffb:
uni1FFB:
    .......
    .......
    @.@@@..
    @@@.@@.
    .@@.@@.
    .@@.@@.
    .@@.@@.
    .@@.@@.
    ..@.@..
    ..@.@..
    .@@.@@.
    .......
    .......

u+1ffc:
uni1FFC:
    .......
    .......
    .@@@@..
    @@..@@.
    @@..@@.
    @@..@@.
    @@..@@.
    @@..@@.
    .@..@..
    .@..@..
    @@..@@.
    ..@@...
    ..@@@..

u+1ffd:
uni1FFD:
    .......
    .......
    ...@@..
    ..@@...
    .......
    .......
    .......
    .......
    .......
    .......
    .......
    .......
    .......

u+1ffe:
uni1FFE:
    .......
    .......
    ..@@@..
    ..@@...
    ...@@..
    .......
    .......
    .......
    .......
    .......
    .......
    .......
    .......

u+2010:
uni2010:
    .......
    .......
    .......
    .......
    .......
    .......
    .......
    .@@@@..
    .......
    .......
    .......
    .......
    .......

u+2011:
uni2011:
    .......
    .......
    .......
    .......
    .......
    .......
    .......
    .@@@@..
    .......
    .......
    .......
    .......
    .......

u+2012:
figuredash:
    .......
    .......
    .......
    .......
    .......
    .......
    .......
    @@@@@@.
    .......
    .......
    .......
    .......
    .......

u+2013:
endash:
    .......
    .......
    .......
    .......
    .......
    .......
    .......
    @@@@@@.
    .......
    .......
    .......
    .......
    .......

u+2014:
emdash:
    .......
    .......
    .......
    .......
    .......
    .......
    .......
    @@@@@@@
    .......
    .......
    .......
    .......
    .......

u+2015:
afii00208:
    .......
    .......
    .......
    .......
    .......
    .......
    .......
    @@@@@@@
    .......
    .......
    .......
    .......
    .......

u+2016:
uni2016:
    .......
    .......
    .@@.@@.
    .@@.@@.
    .@@.@@.
    .@@.@@.
    .@@.@@.
    .@@.@@.
    .@@.@@.
    .@@.@@.
    .@@.@@.
    .......
    .......

u+2017:
underscoredbl:
    .......
    .......
    .......
    .......
    .......
    .......
    .......
    .......
    .......
    .......
    @@@@@@@
    .......
    @@@@@@@

u+2018:
quoteleft:
    .......
    ...@@..
    ..@@...
    ..@@@..
    ..@@@..
    .......
    .......
    .......
    .......
    .......
    .......
    .......
    .......

u+2019:
quoteright:
    .......
    ..@@@..
    ..@@@..
    ...@@..
    ..@@...
    .......
    .......
    .......
    .......
    .......
    .......
    .......
    .......

u+201a:
quotesinglbase:
    .......
    .......
    .......
    .......
    .......
    .......
    .......
    .......
    ..@@@..
    ..@@@..
    ...@@..
    ..@@...
    .......

u+201b:
quotereversed:
    .......
    ..@@@..
    ..@@@..
    ..@@...
    ...@@..
    .......
    .......
    .......
    .......
    .......
    .......
    .......
    .......

u+201c:
quotedblleft:
    .......
    .@@.@@.
    @@.@@..
    @@@@@@.
    @@@@@@.
    .......
    .......
    .......
    .......
    .......
    .......
    .......
    .......

u+201d:
quotedblright:
    .......
    @@@@@@.
    @@@@@@.
    .@@.@@.
    @@.@@..
    .......
    .......
    .......
    .......
    .......
    .......
    .......
    .......

u+201e:
quotedblbase:
    .......
    .......
    .......
    .......
    .......
    .......
    .......
    .......
    @@@@@@.
    @@@@@@.
    .@@.@@.
    @@.@@..
    .......

u+201f:
uni201F:
    .......
    @@@@@@.
    @@@@@@.
    @@.@@..
    .@@.@@.
    .......
    .......
    .......
    .......
    .......
    .......
    .......
    .......

u+2020:
dagger:
    .......
    .......
    ..@@...
    ..@@...
    @@@@@@.
    ..@@...
    ..@@...
    ..@@...
    ..@@...
    ..@@...
    ..@@...
    .......
    .......

u+2021:
daggerdbl:
    .......
    .......
    ..@@...
    ..@@...
    @@@@@@.
    ..@@...
    ..@@...
    ..@@...
    @@@@@@.
    ..@@...
    ..@@...
    .......
    .......

u+2022:
bullet:
    .......
    .......
    .......
    .......
    .......
    ..@@@..
    .@@@@@.
    .@@@@@.
    .@@@@@.
    ..@@@..
    .......
    .......
    .......

u+2026:
ellipsis:
    .......
    .......
    .......
    .......
    .......
    .......
    .......
    .......
    .......
    .......
    .@.@.@.
    .......
    .......

u+2030:
perthousand:
    .......
    .......
    .@..@@.
    @@@.@@.
    .@..@@.
    ...@@..
    ...@@..
    ..@@...
    .@@@.@.
    @@@@@@@
    @@.@.@.
    .......
    .......

u+2039:
guilsinglleft:
    .......
    .......
    .......
    .......
    ...@@..
    ..@@...
    .@@....
    @@.....
    .@@....
    ..@@...
    ...@@..
    .......
    .......

u+203a:
guilsinglright:
    .......
    .......
    .......
    .......
    @@.....
    .@@....
    ..@@...
    ...@@..
    ..@@...
    .@@....
    @@.....
    .......
    .......

u+203e:
uni203E:
    .......
    @@@@@@@
    .......
    .......
    .......
    .......
    .......
    .......
    .......
    .......
    .......
    .......
    .......

u+20ab:
dong:
    .......
    .......
    ....@@.
    ..@@@@@
    ....@@.
    .@@@@@.
    @@..@@.
    @@..@@.
    @@..@@.
    @@..@@.
    .@@@@@.
    .......
    .@@@@@.

u+20ac:
Euro:
    .......
    .......
    ..@@@..
    .@@.@@.
    .@@....
    @@@@@..
    .@@....
    @@@@@..
    .@@....
    .@@.@@.
    ..@@@..
    .......
    .......

u+20af:
uni20AF:
    .......
    .......
    .@@....
    .@@@@..
    @@@.@@.
    .@@.@@.
    .@@.@@.
    .@@.@@.
    @@@.@@.
    @.@@@@.
    @@@.@..
    .......
    .......

u+2116:
afii61352:
    .......
    .......
    @@@....
    @@.@...
    @@.@...
    @@.@.@.
    @@.@@.@
    @@.@@.@
    @@.@.@.
    @@.@...
    @@.@@@@
    .......
    .......

u+2122:
trademark:
    @@@@@@.
    .@.@@@.
    .@.@.@.
    .@.@.@.
    .......
    .......
    .......
    .......
    .......
    .......
    .......
    .......
    .......

u+2126:
Omega:
    .......
    .......
    .@@@@..
    @@..@@.
    @@..@@.
    @@..@@.
    @@..@@.
    @@..@@.
    .@..@..
    .@..@..
    @@..@@.
    .......
    .......

u+215b:
oneeighth:
    .......
    @@.....
    @@.....
    @@.....
    @@.....
    @@.@@@.
    @@@@.@@
    ...@@@.
    ..@@.@@
    ..@@.@@
    ...@@@.
    .......
    .......

u+215c:
threeeighths:
    .......
    @@.....
    .@@....
    @@.....
    .@@....
    .@@@@@.
    @@@@.@@
    ...@@@.
    ..@@.@@
    ..@@.@@
    ...@@@.
    .......
    .......

u+215d:
fiveeighths:
    .......
    @@@@...
    @@.....
    .@@@...
    ..@@...
    .@@@@@.
    @@.@.@@
    ...@@@.
    ..@@.@@
    ..@@.@@
    ...@@@.
    .......
    .......

u+215e:
seveneighths:
    .......
    @@@@...
    ..@@...
    ..@@...
    .@@....
    @@.@@@.
    @.@@.@@
    ...@@@.
    ..@@.@@
    ..@@.@@
    ...@@@.
    .......
    .......

u+2190:
arrowleft:
    .......
    .......
    .......
    ..@....
    .@@....
    @@@@@@.
    @@@@@@.
    .@@....
    ..@....
    .......
    .......
    .......
    .......

u+2191:
arrowup:
    .......
    .......
    ..@@...
    .@@@@..
    @@@@@@.
    ..@@...
    ..@@...
    ..@@...
    ..@@...
    ..@@...
    ..@@...
    .......
    .......

u+2192:
arrowright:
    .......
    .......
    .......
    ...@...
    ...@@..
    @@@@@@.
    @@@@@@.
    ...@@..
    ...@...
    .......
    .......
    .......
    .......

u+2193:
arrowdown:
    .......
    .......
    ..@@...
    ..@@...
    ..@@...
    ..@@...
    ..@@...
    ..@@...
    @@@@@@.
    .@@@@..
    ..@@...
    .......
    .......

u+2212:
minus:
    .......
    .......
    .......
    .......
    .......
    .......
    @@@@@@.
    @@@@@@.
    .......
    .......
    .......
    .......
    .......

u+2260:
notequal:
    .......
    .......
    .......
    ...@@..
    ...@@..
    @@@@@@.
    ..@@...
    ..@@...
    @@@@@@.
    .@@....
    .@@....
    .......
    .......

u+2264:
lessequal:
    .......
    .......
    ....@@.
    ...@@..
    .@@....
    @@.....
    .@@....
    ...@@..
    ....@@.
    .......
    @@@@@@.
    .......
    .......

u+2265:
greaterequal:
    .......
    .......
    @@.....
    .@@....
    ...@@..
    ....@@.
    ...@@..
    .@@....
    @@.....
    .......
    @@@@@@.
    .......
    .......

u+23ba:
uni23BA:
    @@@@@@@
    @@@@@@@
    .......
    .......
    .......
    .......
    .......
    .......
    .......
    .......
    .......
    .......
    .......

u+23bb:
uni23BB:
    .......
    .......
    .......
    @@@@@@@
    @@@@@@@
    .......
    .......
    .......
    .......
    .......
    .......
    .......
    .......

u+23bc:
uni23BC:
    .......
    .......
    .......
    .......
    .......
    .......
    .......
    .......
    @@@@@@@
    @@@@@@@
    .......
    .......
    .......

u+23bd:
uni23BD:
    .......
    .......
    .......
    .......
    .......
    .......
    .......
    .......
    .......
    .......
    .......
    @@@@@@@
    @@@@@@@

u+2409:
uni2409:
    .......
    @@.@@..
    @@.@@..
    @@@@@..
    @@.@@..
    @@.@@..
    .......
    ..@@@@.
    ...@@..
    ...@@..
    ...@@..
    ...@@..
    .......

u+240a:
uni240A:
    .......
    @@.....
    @@.....
    @@.....
    @@.....
    @@@@...
    .......
    ..@@@@.
    ..@@...
    ..@@@..
    ..@@...
    ..@@...
    .......

u+240b:
uni240B:
    .......
    @@..@@.
    @@..@@.
    .@..@..
    .@@@@..
    ..@@...
    .......
    ..@@@@.
    ...@@..
    ...@@..
    ...@@..
    ...@@..
    .......

u+240c:
uni240C:
    .......
    @@@@...
    @@.....
    @@@....
    @@.....
    @@.....
    .......
    ..@@@@.
    ..@@...
    ..@@@..
    ..@@...
    ..@@...
    .......

u+240d:
uni240D:
    .......
    .@@@...
    @@.....
    @@.....
    @@.....
    .@@@...
    .......
    ..@@@..
    ..@@.@.
    ..@@@..
    ..@@.@.
    ..@@.@.
    .......

u+2424:
uni2424:
    .......
    @@..@@.
    @@@.@@.
    @@@@@@.
    @@.@@@.
    @@..@@.
    .......
    ..@@...
    ..@@...
    ..@@...
    ..@@...
    ..@@@@.
    .......

u+2500:
SF100000:
    .......
    .......
    .......
    .......
    .......
    .......
    @@@@@@@
    @@@@@@@
    .......
    .......
    .......
    .......
    .......

u+2502:
SF110000:
    ..@@...
    ..@@...
    ..@@...
    ..@@...
    ..@@...
    ..@@...
    ..@@...
    ..@@...
    ..@@...
    ..@@...
    ..@@...
    ..@@...
    ..@@...

u+250c:
SF010000:
    .......
    .......
    .......
    .......
    .......
    .......
    ..@@@@@
    ..@@@@@
    ..@@...
    ..@@...
    ..@@...
    ..@@...
    ..@@...

u+2510:
SF030000:
    .......
    .......
    .......
    .......
    .......
    .......
    @@@@...
    @@@@...
    ..@@...
    ..@@...
    ..@@...
    ..@@...
    ..@@...

u+2514:
SF020000:
    ..@@...
    ..@@...
    ..@@...
    ..@@...
    ..@@...
    ..@@...
    ..@@@@@
    ..@@@@@
    .......
    .......
    .......
    .......
    .......

u+2518:
SF040000:
    ..@@...
    ..@@...
    ..@@...
    ..@@...
    ..@@...
    ..@@...
    @@@@...
    @@@@...
    .......
    .......
    .......
    .......
    .......

u+251c:
SF080000:
    ..@@...
    ..@@...
    ..@@...
    ..@@...
    ..@@...
    ..@@...
    ..@@@@@
    ..@@@@@
    ..@@...
    ..@@...
    ..@@...
    ..@@...
    ..@@...

u+2524:
SF090000:
    ..@@...
    ..@@...
    ..@@...
    ..@@...
    ..@@...
    ..@@...
    @@@@...
    @@@@...
    ..@@...
    ..@@...
    ..@@...
    ..@@...
    ..@@...

u+252c:
SF060000:
    .......
    .......
    .......
    .......
    .......
    .......
    @@@@@@@
    @@@@@@@
    ..@@...
    ..@@...
    ..@@...
    ..@@...
    ..@@...

u+2534:
SF070000:
    ..@@...
    ..@@...
    ..@@...
    ..@@...
    ..@@...
    ..@@...
    @@@@@@@
    @@@@@@@
    .......
    .......
    .......
    .......
    .......

u+253c:
SF050000:
    ..@@...
    ..@@...
    ..@@...
    ..@@...
    ..@@...
    ..@@...
    @@@@@@@
    @@@@@@@
    ..@@...
    ..@@...
    ..@@...
    ..@@...
    ..@@...

u+256d:
uni256D:
    .......
    .......
    .......
    .......
    .......
    .......
    ....@@@
    ...@@@@
    ..@@@..
    ..@@...
    ..@@...
    ..@@...
    ..@@...

u+256e:
uni256E:
    .......
    .......
    .......
    .......
    .......
    .......
    @@.....
    @@@....
    .@@@...
    ..@@...
    ..@@...
    ..@@...
    ..@@...

u+256f:
uni256F:
    ..@@...
    ..@@...
    ..@@...
    ..@@...
    ..@@...
    .@@@...
    @@@....
    @@.....
    .......
    .......
    .......
    .......
    .......

u+2570:
uni2570:
    ..@@...
    ..@@...
    ..@@...
    ..@@...
    ..@@...
    ..@@@..
    ...@@@@
    ....@@@
    .......
    .......
    .......
    .......
    .......

u+2571:
uni2571:
    .....@@
    .....@@
    ....@@.
    ....@@.
    ...@@..
    ...@@..
    ..@@@..
    ..@@...
    ..@@...
    .@@....
    .@@....
    @@.....
    @@.....

u+2572:
uni2572:
    @@.....
    @@.....
    .@@....
    .@@....
    ..@@...
    ..@@...
    ..@@@..
    ...@@..
    ...@@..
    ....@@.
    ....@@.
    .....@@
    .....@@

u+2573:
uni2573:
    @@...@@
    @@...@@
    .@@.@@.
    .@@.@@.
    ..@@@..
    ..@@@..
    ..@@@..
    ..@@@..
    ..@@@..
    .@@.@@.
    .@@.@@.
    @@...@@
    @@...@@

u+2592:
shade:
    .@.@.@.
    @.@.@.@
    .@.@.@.
    @.@.@.@
    .@.@.@.
    @.@.@.@
    .@.@.@.
    @.@.@.@
    .@.@.@.
    @.@.@.@
    .@.@.@.
    @.@.@.@
    .@.@.@.

u+25ae:
uni25AE:
    .......
    .@@@@@.
    .@@@@@.
    .@@@@@.
    .@@@@@.
    .@@@@@.
    .@@@@@.
    .@@@@@.
    .@@@@@.
    .@@@@@.
    .@@@@@.
    .@@@@@.
    .......

u+25c6:
uni25C6:
    .......
    .......
    .......
    .......
    .......
    ..@@...
    .@@@@..
    @@@@@@.
    .@@@@..
    ..@@...
    .......
    .......
    .......

u+266a:
musicalnote:
    .......
    .......
    ...@@@.
    ...@@@@
    ...@@.@
    ...@@..
    ...@@..
    .@@@@..
    @@@@@..
    @@@@@..
    .@@@@..
    .......
    .......

u+fffd:
uniFFFD:
    .......
    .......
    .@@@@@.
    @@...@@
    @..@..@
    @@@@..@
    @@@..@@
    @@@..@@
    @@@@@@@
    @@@..@@
    .@@@@@.
    .......
    .......

